<?xml version='1.0' encoding='UTF-8' standalone='no'?>
<!-- Created with Fritzing (http://www.fritzing.org/) -->
<svg xmlns="http://www.w3.org/2000/svg" x="0in" y="0in" version="1.2" baseProfile="tiny" xmlns:svg="http://www.w3.org/2000/svg" width="3.33333in" height="2.22222in" viewBox="0 0 240 160" >
 <g partID="57690">
  <g transform="translate(240,160)">
   <g transform="matrix(-1,0,0,-1,0,0)">
    <g id="board" >
     <rect stroke-width="0.5" x="0.288" fill="none" y="0.288" fill-opacity="0.5" stroke="black" id="boardoutline" width="239.424" height="159.424" />
    </g>
   </g>
  </g>
 </g>
 <g partID="854332710">
  <g transform="translate(203.992,25.5862)">
   <g flipped="1" id="copper0">
    <g transform="matrix(-1, 0, 0, 1, 17.5748, 0)">
     <g>
      <g>
       <g>
        <rect stroke-width="0" connectorname="1" x="0" y="0" fill="black" stroke="none" id="connector0pad" width="5.10235" height="7.65353" stroke-linecap="round"/>
        <rect stroke-width="0" connectorname="2" x="12.4724" y="0" fill="black" stroke="none" id="connector1pad" width="5.10235" height="7.65353" stroke-linecap="round"/>
        <g id="copper0"/>
       </g>
       <g/>
      </g>
     </g>
    </g>
   </g>
  </g>
 </g>
 <g partID="854332730">
  <g transform="translate(203.992,39.7595)">
   <g flipped="1" id="copper0">
    <g transform="matrix(-1, 0, 0, 1, 17.5748, 0)">
     <g>
      <g>
       <g>
        <rect stroke-width="0" connectorname="1" x="0" y="0" fill="black" stroke="none" id="connector0pad" width="5.10235" height="7.65353" stroke-linecap="round"/>
        <rect stroke-width="0" connectorname="2" x="12.4724" y="0" fill="black" stroke="none" id="connector1pad" width="5.10235" height="7.65353" stroke-linecap="round"/>
        <g id="copper0"/>
       </g>
       <g/>
      </g>
     </g>
    </g>
   </g>
  </g>
 </g>
 <g partID="854216190">
  <g transform="translate(188.623,89.9565)">
   <g id="copper0" >
    <circle stroke-width="1.24668" connectorname="ADJ" fill="none" stroke="black" id="connector0pad" cx="7.488" cy="7.488" r="2.04066" />
    <path stroke-width="0" fill="black" stroke="none"  d="m4.824,4.824,5.328,0,0,5.328,-5.328,0,0,-5.328zM6.07068,7.488a1.41732,1.41732,0,1,0,2.83465,0,1.41732,1.41732,0,1,0,-2.83465,0z"/>
    <circle stroke-width="1.24668" connectorname="OUT" fill="none" stroke="black" id="connector2pad" cx="14.688" cy="7.488" r="2.04066" />
    <circle stroke-width="1.24668" connectorname="IN" fill="none" stroke="black" id="connector1pad" cx="21.888" cy="7.488" r="2.04066" />
   </g>
  </g>
 </g>
 <g partID="854137120">
  <g transform="translate(62.1064,69.0862)">
   <g id="copper0" >
    <circle stroke-width="1.44" fill="none" stroke="black" id="connector0pad" cx="20.8462" cy="15.6024" r="1.98" />
    <circle stroke-width="1.44" fill="none" stroke="black" id="connector1pad" cx="2.42064" cy="15.6024" r="1.98" />
    <circle stroke-width="1.44" fill="none" stroke="black" id="connector2pad" cx="20.8462" cy="2.84616" r="1.98" />
    <circle stroke-width="1.44" fill="none" stroke="black" id="connector3pad" cx="2.42064" cy="2.84616" r="1.98" />
   </g>
  </g>
 </g>
 <g partID="854137860">
  <g transform="translate(61.3735,104.27)">
   <g id="copper0" >
    <g id="copper1" >
     <!-- <rect width="55" x="10" y="15.5" fill="none" height="55" stroke="rgb(255, 191, 0)" stroke-width="20" />  -->
     <circle stroke-width="1.44" fill="none" stroke="black" id="connector0pin" cx="2.7" cy="3.096" r="1.98" />
     <circle stroke-width="1.44" fill="none" stroke="black" id="connector1pin" cx="31.5" cy="3.096" r="1.98" />
    </g>
   </g>
  </g>
 </g>
 <g partID="854143530">
  <g transform="translate(23.1415,129.331)">
   <g id="copper0" >
    <g id="copper1" >
     <circle stroke-width="1.13384" fill="none" stroke="black" id="connector1pad" cx="8.7872" cy="10.6336" r="1.7008" />
     <rect stroke-width="1.13384" x="7.0864" y="8.9328" fill="none" stroke="black" width="3.4016" height="3.4016" />
     <circle stroke-width="1.13384" fill="none" stroke="black" id="connector0pad" cx="8.7872" cy="3.5464" r="1.7008" />
    </g>
   </g>
  </g>
 </g>
 <g partID="854144470">
  <g transform="translate(42.9483,136.868)">
   <g id="copper0" >
    <g id="copper1" >
     <!-- <rect width="55" x="10" y="15.5" fill="none" height="55" stroke="rgb(255, 191, 0)" stroke-width="20" />  -->
     <circle stroke-width="1.44" fill="none" stroke="black" id="connector0pin" cx="2.7" cy="3.096" r="1.98" />
     <circle stroke-width="1.44" fill="none" stroke="black" id="connector1pin" cx="31.5" cy="3.096" r="1.98" />
    </g>
   </g>
  </g>
 </g>
 <g partID="854144830">
  <g transform="translate(3.29853,129.331)">
   <g id="copper0" >
    <g id="copper1" >
     <circle stroke-width="1.13384" fill="none" stroke="black" id="connector1pad" cx="8.7876" cy="10.6336" r="1.7008" />
     <rect stroke-width="1.13384" x="7.0868" fill="none" y="8.9328" stroke="black" width="3.4016" height="3.4016" />
     <circle stroke-width="1.13384" fill="none" stroke="black" id="connector0pad" cx="8.7876" cy="3.5464" r="1.7008" />
    </g>
   </g>
  </g>
 </g>
 <g partID="854145570">
  <g transform="translate(9.38613,149.624)">
   <g id="copper0" >
    <g id="copper1" >
     <!-- <rect width="55" x="10" y="15.5" fill="none" height="55" stroke="rgb(255, 191, 0)" stroke-width="20" />  -->
     <circle stroke-width="1.44" fill="none" stroke="black" id="connector0pin" cx="2.7" cy="3.096" r="1.98" />
     <circle stroke-width="1.44" fill="none" stroke="black" id="connector1pin" cx="31.5" cy="3.096" r="1.98" />
    </g>
   </g>
  </g>
 </g>
 <g partID="854148620">
  <g transform="translate(106.259,55.4407)">
   <g id="copper0" >
    <rect stroke-width="1.44" x="2.952" fill="none" y="2.952" stroke="black" id="square" height="4.176" width="4.176" />
    <circle stroke-width="1.44" fill="none" stroke="black" id="connector0pin" cx="5.04" cy="5.04" r="2.088" />
    <circle stroke-width="1.44" fill="none" stroke="black" id="connector1pin" cx="5.04" cy="12.24" r="2.088" />
   </g>
  </g>
 </g>
 <g partID="854103900">
  <g transform="translate(192.378,67.2073)">
   <g id="copper0" >
    <rect stroke-width="1.44" x="1.98" y="5.58" fill="none" stroke="black" width="3.96" height="3.96" id="rect11" />
    <circle stroke-width="1.44" fill="none" stroke="black" id="connector0pin" cx="3.96" cy="7.56" r="1.98" />
    <circle stroke-width="1.44" fill="none" stroke="black" id="connector1pin" cx="11.16" cy="7.56" r="1.98" />
   </g>
  </g>
 </g>
 <g partID="854103930">
  <g transform="translate(3.2633,112.774)">
   <g id="copper0" >
    <g id="copper1" >
     <!-- <rect width="55" x="10" y="15.5" fill="none" height="55" stroke="rgb(255, 191, 0)" stroke-width="20" />  -->
     <circle stroke-width="1.44" fill="none" stroke="black" id="connector0pin" cx="2.7" cy="3.096" r="1.98" />
     <circle stroke-width="1.44" fill="none" stroke="black" id="connector1pin" cx="31.5" cy="3.096" r="1.98" />
    </g>
   </g>
  </g>
 </g>
 <g partID="854345680">
  <g transform="translate(22.0192,66.6774)">
   <g transform="matrix(0,1,-1,0,0,0)">
    <g id="copper0" >
     <circle stroke-width="1.44" fill="none" stroke="black" id="connector0pad" cx="20.8462" cy="15.6024" r="1.98" />
     <circle stroke-width="1.44" fill="none" stroke="black" id="connector1pad" cx="2.42064" cy="15.6024" r="1.98" />
     <circle stroke-width="1.44" fill="none" stroke="black" id="connector2pad" cx="20.8462" cy="2.84616" r="1.98" />
     <circle stroke-width="1.44" fill="none" stroke="black" id="connector3pad" cx="2.42064" cy="2.84616" r="1.98" />
    </g>
   </g>
  </g>
 </g>
 <g partID="854104830">
  <g transform="translate(50.3657,66.6774)">
   <g transform="matrix(0,1,-1,0,0,0)">
    <g id="copper0" >
     <circle stroke-width="1.44" fill="none" stroke="black" id="connector0pad" cx="20.8462" cy="15.6024" r="1.98" />
     <circle stroke-width="1.44" fill="none" stroke="black" id="connector1pad" cx="2.42064" cy="15.6024" r="1.98" />
     <circle stroke-width="1.44" fill="none" stroke="black" id="connector2pad" cx="20.8462" cy="2.84616" r="1.98" />
     <circle stroke-width="1.44" fill="none" stroke="black" id="connector3pad" cx="2.42064" cy="2.84616" r="1.98" />
    </g>
   </g>
  </g>
 </g>
 <g partID="854105380">
  <g transform="translate(25.9405,98.6005)">
   <g id="copper0" >
    <g id="copper1" >
     <!-- <rect width="55" x="10" y="15.5" fill="none" height="55" stroke="rgb(255, 191, 0)" stroke-width="20" />  -->
     <circle stroke-width="1.44" fill="none" stroke="black" id="connector0pin" cx="2.7" cy="3.096" r="1.98" />
     <circle stroke-width="1.44" fill="none" stroke="black" id="connector1pin" cx="31.5" cy="3.096" r="1.98" />
    </g>
   </g>
  </g>
 </g>
 <g partID="854106290">
  <g transform="translate(124.374,123.218)">
   <g transform="matrix(-1,0,0,-1,0,0)">
    <g id="copper0" >
     <g id="copper1" >
      <!-- <rect width="55" x="10" y="15.5" fill="none" height="55" stroke="rgb(255, 191, 0)" stroke-width="20" />  -->
      <circle stroke-width="1.44" fill="none" stroke="black" id="connector0pin" cx="2.7" cy="3.096" r="1.98" />
      <circle stroke-width="1.44" fill="none" stroke="black" id="connector1pin" cx="31.5" cy="3.096" r="1.98" />
     </g>
    </g>
   </g>
  </g>
 </g>
 <g partID="854232760">
  <g transform="translate(133.46,88.1525)">
   <g transform="matrix(0,1,-1,0,0,0)">
    <g id="copper0" >
     <rect stroke-width="1.44" x="2.952" fill="none" y="2.952" stroke="black" id="square" height="4.176" width="4.176" />
     <circle stroke-width="1.44" fill="none" stroke="black" id="connector0pin" cx="5.04" cy="5.04" r="2.088" />
     <circle stroke-width="1.44" fill="none" stroke="black" id="connector1pin" cx="5.04" cy="12.24" r="2.088" />
     <circle stroke-width="1.44" fill="none" stroke="black" id="connector2pin" cx="5.04" cy="19.44" r="2.088" />
    </g>
   </g>
  </g>
 </g>
 <g partID="854232510">
  <g transform="translate(51.2553,38.5462)">
   <g transform="matrix(0,1,-1,0,0,0)">
    <g id="copper0" >
     <rect stroke-width="1.44" x="2.952" fill="none" y="2.952" stroke="black" id="square" height="4.176" width="4.176" />
     <circle stroke-width="1.44" fill="none" stroke="black" id="connector0pin" cx="5.04" cy="5.04" r="2.088" />
     <circle stroke-width="1.44" fill="none" stroke="black" id="connector1pin" cx="5.04" cy="12.24" r="2.088" />
     <circle stroke-width="1.44" fill="none" stroke="black" id="connector2pin" cx="5.04" cy="19.44" r="2.088" />
    </g>
   </g>
  </g>
 </g>
 <g partID="854108020">
  <g transform="translate(58.5389,41.9076)">
   <g id="copper0" >
    <g id="copper1" >
     <!-- <rect width="55" x="10" y="15.5" fill="none" height="55" stroke="rgb(255, 191, 0)" stroke-width="20" />  -->
     <circle stroke-width="1.44" fill="none" stroke="black" id="connector0pin" cx="2.7" cy="3.096" r="1.98" />
     <circle stroke-width="1.44" fill="none" stroke="black" id="connector1pin" cx="31.5" cy="3.096" r="1.98" />
    </g>
   </g>
  </g>
 </g>
 <g partID="854109670">
  <g transform="translate(198.521,20.1437)">
   <g transform="matrix(0,1,-1,0,0,0)">
    <g id="copper0"  gorn="0.3.0">
     <rect stroke-width="1.44" x="37.8" y="52.2" fill="none" stroke="black" width="3.6" height="3.6" id="square"  gorn="0.3.0.0"/>
     <rect stroke-width="1.44" x="37.8" y="9" fill="none" stroke="black" width="3.6" height="3.6" id="square"  gorn="0.3.0.1"/>
     <circle stroke-width="1.44" fill="none" stroke="black" id="connector0pad" cx="3.6" cy="3.6" r="1.8"  gorn="0.3.0.2"/>
     <circle stroke-width="1.44" fill="none" stroke="black" id="connector15pad" cx="39.6" cy="3.6" r="1.8"  gorn="0.3.0.3"/>
     <circle stroke-width="1.44" fill="none" stroke="black" id="connector1pad" cx="3.6" cy="10.8" r="1.8"  gorn="0.3.0.4"/>
     <circle stroke-width="1.44" fill="none" stroke="black" id="connector14pad" cx="39.6" cy="10.8" r="1.8"  gorn="0.3.0.5"/>
     <circle stroke-width="1.44" fill="none" stroke="black" id="connector2pad" cx="3.6" cy="18" r="1.8"  gorn="0.3.0.6"/>
     <circle stroke-width="1.44" fill="none" stroke="black" id="connector13pad" cx="39.6" cy="18" r="1.8"  gorn="0.3.0.7"/>
     <circle stroke-width="1.44" fill="none" stroke="black" id="connector3pad" cx="3.6" cy="25.2" r="1.8"  gorn="0.3.0.8"/>
     <circle stroke-width="1.44" fill="none" stroke="black" id="connector12pad" cx="39.6" cy="25.2" r="1.8"  gorn="0.3.0.9"/>
     <circle stroke-width="1.44" fill="none" stroke="black" id="connector4pad" cx="3.6" cy="32.4" r="1.8"  gorn="0.3.0.10"/>
     <circle stroke-width="1.44" fill="none" stroke="black" id="connector11pad" cx="39.6" cy="32.4" r="1.8"  gorn="0.3.0.11"/>
     <circle stroke-width="1.44" fill="none" stroke="black" id="connector5pad" cx="3.6" cy="39.6" r="1.8"  gorn="0.3.0.12"/>
     <circle stroke-width="1.44" fill="none" stroke="black" id="connector10pad" cx="39.6" cy="39.6" r="1.8"  gorn="0.3.0.13"/>
     <circle stroke-width="1.44" fill="none" stroke="black" id="connector6pad" cx="3.6" cy="46.8" r="1.8"  gorn="0.3.0.14"/>
     <circle stroke-width="1.44" fill="none" stroke="black" id="connector9pad" cx="39.6" cy="46.8" r="1.8"  gorn="0.3.0.15"/>
     <circle stroke-width="1.44" fill="none" stroke="black" id="connector7pad" cx="3.6" cy="54" r="1.8"  gorn="0.3.0.16"/>
     <circle stroke-width="1.44" fill="none" stroke="black" id="connector8pad" cx="39.6" cy="54" r="1.8"  gorn="0.3.0.17"/>
    </g>
   </g>
  </g>
 </g>
 <g partID="854114620">
  <g transform="translate(178.814,81.0659)">
   <g transform="matrix(0,1,-1,0,0,0)">
    <g id="copper0" >
     <rect stroke-width="1.44" x="2.952" fill="none" y="2.952" stroke="black" id="square" height="4.176" width="4.176" />
     <circle stroke-width="1.44" fill="none" stroke="black" id="connector0pin" cx="5.04" cy="5.04" r="2.088" />
     <circle stroke-width="1.44" fill="none" stroke="black" id="connector1pin" cx="5.04" cy="12.24" r="2.088" />
     <circle stroke-width="1.44" fill="none" stroke="black" id="connector2pin" cx="5.04" cy="19.44" r="2.088" />
     <circle stroke-width="1.44" fill="none" stroke="black" id="connector3pin" cx="5.04" cy="26.64" r="2.088" />
    </g>
   </g>
  </g>
 </g>
 <g partID="854604370">
  <line stroke-width="1.728" stroke="black" y1="41.4183" y2="35.0665" x1="38.9944" x2="38.9334" stroke-linecap="round"/>
 </g>
 <g partID="854604410">
  <line stroke-width="1.728" stroke="black" y1="35.0665" y2="35.0665" x1="38.9334" x2="50.3334" stroke-linecap="round"/>
 </g>
 <g partID="854604430">
  <line stroke-width="1.728" stroke="black" y1="35.0665" y2="43.6161" x1="50.3334" x2="59.7162" stroke-linecap="round"/>
 </g>
 <g partID="854604950">
  <line stroke-width="1.728" stroke="black" y1="86.7482" y2="105.306" x1="64.4859" x2="64.1147" stroke-linecap="round"/>
 </g>
 <g partID="854605070">
  <line stroke-width="1.728" stroke="black" y1="139.964" y2="139.964" x1="33.8625" x2="43.5883" stroke-linecap="round"/>
 </g>
 <g partID="854605170">
  <line stroke-width="1.728" stroke="black" y1="139.964" y2="139.964" x1="72.3883" x2="47.7083" stroke-linecap="round"/>
 </g>
 <g partID="854605390">
  <line stroke-width="1.728" stroke="black" y1="152.72" y2="152.72" x1="38.8261" x2="14.1461" stroke-linecap="round"/>
 </g>
 <g partID="854605450">
  <line stroke-width="1.728" stroke="black" y1="95.2295" y2="47.52" x1="210.41" x2="208.224" stroke-linecap="round"/>
 </g>
 <g partID="854605510">
  <line stroke-width="1.728" stroke="black" y1="47.52" y2="47.013" x1="208.224" x2="208.007" stroke-linecap="round"/>
 </g>
 <g partID="854605670">
  <line stroke-width="1.728" stroke="black" y1="95.2273" y2="76.8272" x1="203.334" x2="203.518" stroke-linecap="round"/>
 </g>
 <g partID="854609920">
  <line stroke-width="1.728" stroke="black" y1="96.0665" y2="61.6237" x1="180.733" x2="180.532" stroke-linecap="round"/>
 </g>
 <g partID="854609950">
  <line stroke-width="1.728" stroke="black" y1="96.0665" y2="96.0665" x1="152.333" x2="180.733" stroke-linecap="round"/>
 </g>
 <g partID="854605790">
  <line stroke-width="1.728" stroke="black" y1="88.2736" y2="96.0665" x1="152.209" x2="152.333" stroke-linecap="round"/>
 </g>
 <g partID="854606070">
  <line stroke-width="1.728" stroke="black" y1="32.8398" y2="40.1595" x1="219.015" x2="219.015" stroke-linecap="round"/>
 </g>
 <g partID="854606190">
  <line stroke-width="1.728" stroke="black" y1="57.8638" y2="36.4665" x1="187.738" x2="187.933" stroke-linecap="round"/>
 </g>
 <g partID="854606350">
  <line stroke-width="1.728" stroke="black" y1="36.4665" y2="36.4665" x1="187.933" x2="211.933" stroke-linecap="round"/>
 </g>
 <g partID="854606370">
  <line stroke-width="1.728" stroke="black" y1="36.4665" y2="41.4236" x1="211.933" x2="216.864" stroke-linecap="round"/>
 </g>
 <g partID="854606470">
  <line stroke-width="1.728" stroke="black" y1="72.9804" y2="61.3745" x1="195.313" x2="188.656" stroke-linecap="round"/>
 </g>
 <g partID="854606670">
  <line stroke-width="1.728" stroke="black" y1="95.2273" y2="76.8272" x1="196.134" x2="196.318" stroke-linecap="round"/>
 </g>
 <g partID="854606790">
  <line stroke-width="1.728" stroke="black" y1="71.5937" y2="69.4367" x1="62.4951" x2="49.5515" stroke-linecap="round"/>
 </g>
 <g partID="854606850">
  <line stroke-width="1.728" stroke="black" y1="67.0648" y2="64.8" x1="19.5037" x2="19.872" stroke-linecap="round"/>
 </g>
 <g partID="854606890">
  <line stroke-width="1.728" stroke="black" y1="64.8" y2="64.8" x1="19.872" x2="38.88" stroke-linecap="round"/>
 </g>
 <g partID="854606910">
  <line stroke-width="1.728" stroke="black" y1="64.8" y2="68.1805" x1="38.88" x2="45.6752" stroke-linecap="round"/>
 </g>
 <g partID="854606970">
  <line stroke-width="1.728" stroke="black" y1="45.6432" y2="64.8" x1="32.5003" x2="38.88" stroke-linecap="round"/>
 </g>
 <g partID="854607250">
  <line stroke-width="1.728" stroke="black" y1="61.5315" y2="61.344" x1="151.139" x2="151.2" stroke-linecap="round"/>
 </g>
 <g partID="854610300">
  <line stroke-width="1.728" stroke="black" y1="76.2665" y2="76.2665" x1="150.933" x2="114.133" stroke-linecap="round"/>
 </g>
 <g partID="854610190">
  <line stroke-width="1.728" stroke="black" y1="76.2665" y2="91.0246" x1="114.133" x2="114.035" stroke-linecap="round"/>
 </g>
 <g partID="854607270">
  <line stroke-width="1.728" stroke="black" y1="61.344" y2="76.2665" x1="151.2" x2="150.933" stroke-linecap="round"/>
 </g>
 <g partID="854607910">
  <line stroke-width="1.728" stroke="black" y1="103.756" y2="115.867" x1="57.454" x2="57.5334" stroke-linecap="round"/>
 </g>
 <g partID="854608070">
  <line stroke-width="1.728" stroke="black" y1="115.867" y2="107.848" x1="57.5334" x2="90.8707" stroke-linecap="round"/>
 </g>
 <g partID="854608190">
  <line stroke-width="1.728" stroke="black" y1="115.869" y2="115.867" x1="36.8233" x2="57.5334" stroke-linecap="round"/>
 </g>
 <g partID="854608250">
  <line stroke-width="1.728" stroke="black" y1="61.9841" y2="78.624" x1="109.737" x2="92.448" stroke-linecap="round"/>
 </g>
 <g partID="854608370">
  <line stroke-width="1.728" stroke="black" y1="78.624" y2="105.306" x1="92.448" x2="92.843" stroke-linecap="round"/>
 </g>
 <g partID="854608410">
  <line stroke-width="1.728" stroke="black" y1="46.216" y2="59.2047" x1="91.7043" x2="109.546" stroke-linecap="round"/>
 </g>
 <g partID="854608570">
  <line stroke-width="1.728" stroke="black" y1="59.7854" y2="60.4326" x1="142.641" x2="113.466" stroke-linecap="round"/>
 </g>
 <g partID="854604710">
  <line stroke-width="1.728" stroke="black" y1="83.9382" y2="61.6235" x1="173.737" x2="173.353" stroke-linecap="round"/>
 </g>
 <g partID="854604830">
  <line stroke-width="1.728" stroke="black" y1="83.9382" y2="61.6235" x1="166.537" x2="166.153" stroke-linecap="round"/>
 </g>
 <g partID="854604590">
  <line stroke-width="1.728" stroke="black" y1="83.9382" y2="61.6235" x1="159.337" x2="158.953" stroke-linecap="round"/>
 </g>
 <g partID="854605530">
  <line stroke-width="1.728" stroke="black" y1="61.3745" y2="72.9804" x1="195.856" x2="202.513" stroke-linecap="round"/>
 </g>
 <g partID="854604490">
  <line stroke-width="1.728" stroke="black" y1="118.062" y2="95.3602" x1="121.639" x2="121.256" stroke-linecap="round"/>
 </g>
 <g partID="854604270">
  <line stroke-width="1.728" stroke="black" y1="99.6391" y2="91.8665" x1="28.7436" x2="29.1334" stroke-linecap="round"/>
 </g>
 <g partID="854613450">
  <line stroke-width="1.728" stroke="black" y1="91.8665" y2="88.7818" x1="29.1334" x2="33.1322" stroke-linecap="round"/>
 </g>
 <g partID="854604150">
  <line stroke-width="1.728" stroke="black" y1="113.81" y2="89.5833" x1="5.99625" x2="6.38388" stroke-linecap="round"/>
 </g>
 <g partID="854611260">
  <line stroke-width="1.728" stroke="black" y1="5.26655" y2="69.8728" x1="81.5334" x2="82.9088" stroke-linecap="round"/>
 </g>
 <g partID="854611540">
  <line stroke-width="1.728" stroke="black" y1="107.267" y2="107.267" x1="139.733" x2="233.133" stroke-linecap="round"/>
 </g>
 <g partID="854611670">
  <line stroke-width="1.728" stroke="black" y1="86.0665" y2="107.267" x1="139.733" x2="139.733" stroke-linecap="round"/>
 </g>
 <g partID="854611760">
  <line stroke-width="1.728" stroke="black" y1="86.0665" y2="86.0665" x1="119.733" x2="139.733" stroke-linecap="round"/>
 </g>
 <g partID="854611450">
  <line stroke-width="1.728" stroke="black" y1="107.267" y2="5.26655" x1="233.133" x2="234.533" stroke-linecap="round"/>
 </g>
 <g partID="854611360">
  <line stroke-width="1.728" stroke="black" y1="5.26655" y2="5.26655" x1="234.533" x2="81.5334" stroke-linecap="round"/>
 </g>
 <g partID="854611270">
  <line stroke-width="1.728" stroke="black" y1="91.5011" y2="86.0665" x1="115.376" x2="119.733" stroke-linecap="round"/>
 </g>
 <g partID="854605230">
  <line stroke-width="1.728" stroke="black" y1="141.898" y2="150.66" x1="12.0861" x2="12.0861" stroke-linecap="round"/>
 </g>
 <g partID="854607590">
  <line stroke-width="1.728" stroke="black" y1="128.667" y2="128.667" x1="92.9334" x2="12.1334" stroke-linecap="round"/>
 </g>
 <g partID="854612570">
  <line stroke-width="1.728" stroke="black" y1="128.667" y2="130.943" x1="12.1334" x2="12.1078" stroke-linecap="round"/>
 </g>
 <g partID="854607530">
  <line stroke-width="1.728" stroke="black" y1="122.182" y2="128.667" x1="92.888" x2="92.9334" stroke-linecap="round"/>
 </g>
 <g partID="854607470">
  <line stroke-width="1.728" stroke="black" y1="132.877" y2="132.877" x1="29.9948" x2="14.02" stroke-linecap="round"/>
 </g>
</svg>
