<?xml version='1.0' encoding='UTF-8' standalone='no'?>
<!-- Created with Fritzing (http://www.fritzing.org/) -->
<svg xmlns="http://www.w3.org/2000/svg" x="0in" y="0in" version="1.2" baseProfile="tiny" xmlns:svg="http://www.w3.org/2000/svg" width="3.33333in" height="2.22222in" viewBox="0 0 240 160" >
 <g partID="57690">
  <g transform="translate(240,160)">
   <g transform="matrix(-1,0,0,-1,0,0)">
    <g id="board" >
     <rect stroke-width="0.5" x="0.288" fill="none" y="0.288" fill-opacity="0.5" stroke="black" id="boardoutline" width="239.424" height="159.424" />
    </g>
   </g>
  </g>
 </g>
 <g partID="854332710">
  <g transform="translate(203.992,25.5862)">
   <g flipped="1" id="copper0">
    <g transform="matrix(-1, 0, 0, 1, 17.5748, 0)">
     <g>
      <g>
       <g>
        <rect stroke-width="0.72" connectorname="1" x="0" y="0" fill="black" stroke="black" id="connector0pad" width="5.10235" height="7.65353" stroke-linecap="round"/>
        <rect stroke-width="0.72" connectorname="2" x="12.4724" y="0" fill="black" stroke="black" id="connector1pad" width="5.10235" height="7.65353" stroke-linecap="round"/>
        <g id="copper0"/>
       </g>
       <g/>
      </g>
     </g>
    </g>
   </g>
  </g>
 </g>
 <g partID="854332730">
  <g transform="translate(203.992,39.7595)">
   <g flipped="1" id="copper0">
    <g transform="matrix(-1, 0, 0, 1, 17.5748, 0)">
     <g>
      <g>
       <g>
        <rect stroke-width="0.72" connectorname="1" x="0" y="0" fill="black" stroke="black" id="connector0pad" width="5.10235" height="7.65353" stroke-linecap="round"/>
        <rect stroke-width="0.72" connectorname="2" x="12.4724" y="0" fill="black" stroke="black" id="connector1pad" width="5.10235" height="7.65353" stroke-linecap="round"/>
        <g id="copper0"/>
       </g>
       <g/>
      </g>
     </g>
    </g>
   </g>
  </g>
 </g>
 <g partID="854216190">
  <g transform="translate(188.623,89.9565)">
   <g id="copper0" >
    <circle stroke-width="1.96668" connectorname="ADJ" fill="black" stroke="black" id="connector0pad" cx="7.488" cy="7.488" r="2.04066" />
    <path stroke-width="0.72" fill="black" stroke="black"  d="m4.824,4.824,5.328,0,0,5.328,-5.328,0,0,-5.328zM6.07068,7.488a1.41732,1.41732,0,1,0,2.83465,0,1.41732,1.41732,0,1,0,-2.83465,0z"/>
    <circle stroke-width="1.96668" connectorname="OUT" fill="black" stroke="black" id="connector2pad" cx="14.688" cy="7.488" r="2.04066" />
    <circle stroke-width="1.96668" connectorname="IN" fill="black" stroke="black" id="connector1pad" cx="21.888" cy="7.488" r="2.04066" />
   </g>
  </g>
 </g>
 <g partID="854137120">
  <g transform="translate(62.1064,69.0862)">
   <g id="copper0" >
    <circle stroke-width="2.16" fill="black" stroke="black" id="connector0pad" cx="20.8462" cy="15.6024" r="1.98" />
    <circle stroke-width="2.16" fill="black" stroke="black" id="connector1pad" cx="2.42064" cy="15.6024" r="1.98" />
    <circle stroke-width="2.16" fill="black" stroke="black" id="connector2pad" cx="20.8462" cy="2.84616" r="1.98" />
    <circle stroke-width="2.16" fill="black" stroke="black" id="connector3pad" cx="2.42064" cy="2.84616" r="1.98" />
   </g>
  </g>
 </g>
 <g partID="854137860">
  <g transform="translate(61.3735,104.27)">
   <g id="copper0" >
    <g id="copper1" >
     <!-- <rect width="55" x="10" y="15.5" fill="none" height="55" stroke="rgb(255, 191, 0)" stroke-width="20" />  -->
     <circle stroke-width="2.16" fill="black" stroke="black" id="connector0pin" cx="2.7" cy="3.096" r="1.98" />
     <circle stroke-width="2.16" fill="black" stroke="black" id="connector1pin" cx="31.5" cy="3.096" r="1.98" />
    </g>
   </g>
  </g>
 </g>
 <g partID="854143530">
  <g transform="translate(23.1415,129.331)">
   <g id="copper0" >
    <g id="copper1" >
     <circle stroke-width="1.85384" fill="black" stroke="black" id="connector1pad" cx="8.7872" cy="10.6336" r="1.7008" />
     <rect stroke-width="1.85384" x="7.0864" y="8.9328" fill="black" stroke="black" width="3.4016" height="3.4016" />
     <circle stroke-width="1.85384" fill="black" stroke="black" id="connector0pad" cx="8.7872" cy="3.5464" r="1.7008" />
    </g>
   </g>
  </g>
 </g>
 <g partID="854144470">
  <g transform="translate(42.9483,136.868)">
   <g id="copper0" >
    <g id="copper1" >
     <!-- <rect width="55" x="10" y="15.5" fill="none" height="55" stroke="rgb(255, 191, 0)" stroke-width="20" />  -->
     <circle stroke-width="2.16" fill="black" stroke="black" id="connector0pin" cx="2.7" cy="3.096" r="1.98" />
     <circle stroke-width="2.16" fill="black" stroke="black" id="connector1pin" cx="31.5" cy="3.096" r="1.98" />
    </g>
   </g>
  </g>
 </g>
 <g partID="854144830">
  <g transform="translate(3.29853,129.331)">
   <g id="copper0" >
    <g id="copper1" >
     <circle stroke-width="1.85384" fill="black" stroke="black" id="connector1pad" cx="8.7876" cy="10.6336" r="1.7008" />
     <rect stroke-width="1.85384" x="7.0868" fill="black" y="8.9328" stroke="black" width="3.4016" height="3.4016" />
     <circle stroke-width="1.85384" fill="black" stroke="black" id="connector0pad" cx="8.7876" cy="3.5464" r="1.7008" />
    </g>
   </g>
  </g>
 </g>
 <g partID="854145570">
  <g transform="translate(9.38613,149.624)">
   <g id="copper0" >
    <g id="copper1" >
     <!-- <rect width="55" x="10" y="15.5" fill="none" height="55" stroke="rgb(255, 191, 0)" stroke-width="20" />  -->
     <circle stroke-width="2.16" fill="black" stroke="black" id="connector0pin" cx="2.7" cy="3.096" r="1.98" />
     <circle stroke-width="2.16" fill="black" stroke="black" id="connector1pin" cx="31.5" cy="3.096" r="1.98" />
    </g>
   </g>
  </g>
 </g>
 <g partID="854148620">
  <g transform="translate(106.259,55.4407)">
   <g id="copper0" >
    <rect stroke-width="2.16" x="2.952" fill="black" y="2.952" stroke="black" id="square" height="4.176" width="4.176" />
    <circle stroke-width="2.16" fill="black" stroke="black" id="connector0pin" cx="5.04" cy="5.04" r="2.088" />
    <circle stroke-width="2.16" fill="black" stroke="black" id="connector1pin" cx="5.04" cy="12.24" r="2.088" />
   </g>
  </g>
 </g>
 <g partID="854103900">
  <g transform="translate(192.378,67.2073)">
   <g id="copper0" >
    <rect stroke-width="2.16" x="1.98" y="5.58" fill="black" stroke="black" width="3.96" height="3.96" id="rect11" />
    <circle stroke-width="2.16" fill="black" stroke="black" id="connector0pin" cx="3.96" cy="7.56" r="1.98" />
    <circle stroke-width="2.16" fill="black" stroke="black" id="connector1pin" cx="11.16" cy="7.56" r="1.98" />
   </g>
  </g>
 </g>
 <g partID="854103930">
  <g transform="translate(3.2633,112.774)">
   <g id="copper0" >
    <g id="copper1" >
     <!-- <rect width="55" x="10" y="15.5" fill="none" height="55" stroke="rgb(255, 191, 0)" stroke-width="20" />  -->
     <circle stroke-width="2.16" fill="black" stroke="black" id="connector0pin" cx="2.7" cy="3.096" r="1.98" />
     <circle stroke-width="2.16" fill="black" stroke="black" id="connector1pin" cx="31.5" cy="3.096" r="1.98" />
    </g>
   </g>
  </g>
 </g>
 <g partID="854345680">
  <g transform="translate(22.0192,66.6774)">
   <g transform="matrix(0,1,-1,0,0,0)">
    <g id="copper0" >
     <circle stroke-width="2.16" fill="black" stroke="black" id="connector0pad" cx="20.8462" cy="15.6024" r="1.98" />
     <circle stroke-width="2.16" fill="black" stroke="black" id="connector1pad" cx="2.42064" cy="15.6024" r="1.98" />
     <circle stroke-width="2.16" fill="black" stroke="black" id="connector2pad" cx="20.8462" cy="2.84616" r="1.98" />
     <circle stroke-width="2.16" fill="black" stroke="black" id="connector3pad" cx="2.42064" cy="2.84616" r="1.98" />
    </g>
   </g>
  </g>
 </g>
 <g partID="854104830">
  <g transform="translate(50.3657,66.6774)">
   <g transform="matrix(0,1,-1,0,0,0)">
    <g id="copper0" >
     <circle stroke-width="2.16" fill="black" stroke="black" id="connector0pad" cx="20.8462" cy="15.6024" r="1.98" />
     <circle stroke-width="2.16" fill="black" stroke="black" id="connector1pad" cx="2.42064" cy="15.6024" r="1.98" />
     <circle stroke-width="2.16" fill="black" stroke="black" id="connector2pad" cx="20.8462" cy="2.84616" r="1.98" />
     <circle stroke-width="2.16" fill="black" stroke="black" id="connector3pad" cx="2.42064" cy="2.84616" r="1.98" />
    </g>
   </g>
  </g>
 </g>
 <g partID="854105380">
  <g transform="translate(25.9405,98.6005)">
   <g id="copper0" >
    <g id="copper1" >
     <!-- <rect width="55" x="10" y="15.5" fill="none" height="55" stroke="rgb(255, 191, 0)" stroke-width="20" />  -->
     <circle stroke-width="2.16" fill="black" stroke="black" id="connector0pin" cx="2.7" cy="3.096" r="1.98" />
     <circle stroke-width="2.16" fill="black" stroke="black" id="connector1pin" cx="31.5" cy="3.096" r="1.98" />
    </g>
   </g>
  </g>
 </g>
 <g partID="854106290">
  <g transform="translate(124.374,123.218)">
   <g transform="matrix(-1,0,0,-1,0,0)">
    <g id="copper0" >
     <g id="copper1" >
      <!-- <rect width="55" x="10" y="15.5" fill="none" height="55" stroke="rgb(255, 191, 0)" stroke-width="20" />  -->
      <circle stroke-width="2.16" fill="black" stroke="black" id="connector0pin" cx="2.7" cy="3.096" r="1.98" />
      <circle stroke-width="2.16" fill="black" stroke="black" id="connector1pin" cx="31.5" cy="3.096" r="1.98" />
     </g>
    </g>
   </g>
  </g>
 </g>
 <g partID="854232760">
  <g transform="translate(133.46,88.1525)">
   <g transform="matrix(0,1,-1,0,0,0)">
    <g id="copper0" >
     <rect stroke-width="2.16" x="2.952" fill="black" y="2.952" stroke="black" id="square" height="4.176" width="4.176" />
     <circle stroke-width="2.16" fill="black" stroke="black" id="connector0pin" cx="5.04" cy="5.04" r="2.088" />
     <circle stroke-width="2.16" fill="black" stroke="black" id="connector1pin" cx="5.04" cy="12.24" r="2.088" />
     <circle stroke-width="2.16" fill="black" stroke="black" id="connector2pin" cx="5.04" cy="19.44" r="2.088" />
    </g>
   </g>
  </g>
 </g>
 <g partID="854232510">
  <g transform="translate(51.2553,38.5462)">
   <g transform="matrix(0,1,-1,0,0,0)">
    <g id="copper0" >
     <rect stroke-width="2.16" x="2.952" fill="black" y="2.952" stroke="black" id="square" height="4.176" width="4.176" />
     <circle stroke-width="2.16" fill="black" stroke="black" id="connector0pin" cx="5.04" cy="5.04" r="2.088" />
     <circle stroke-width="2.16" fill="black" stroke="black" id="connector1pin" cx="5.04" cy="12.24" r="2.088" />
     <circle stroke-width="2.16" fill="black" stroke="black" id="connector2pin" cx="5.04" cy="19.44" r="2.088" />
    </g>
   </g>
  </g>
 </g>
 <g partID="854108020">
  <g transform="translate(58.5389,41.9076)">
   <g id="copper0" >
    <g id="copper1" >
     <!-- <rect width="55" x="10" y="15.5" fill="none" height="55" stroke="rgb(255, 191, 0)" stroke-width="20" />  -->
     <circle stroke-width="2.16" fill="black" stroke="black" id="connector0pin" cx="2.7" cy="3.096" r="1.98" />
     <circle stroke-width="2.16" fill="black" stroke="black" id="connector1pin" cx="31.5" cy="3.096" r="1.98" />
    </g>
   </g>
  </g>
 </g>
 <g partID="854109670">
  <g transform="translate(198.521,20.1437)">
   <g transform="matrix(0,1,-1,0,0,0)">
    <g id="copper0"  gorn="0.3.0">
     <rect stroke-width="2.16" x="37.8" y="52.2" fill="black" stroke="black" width="3.6" height="3.6" id="square"  gorn="0.3.0.0"/>
     <rect stroke-width="2.16" x="37.8" y="9" fill="black" stroke="black" width="3.6" height="3.6" id="square"  gorn="0.3.0.1"/>
     <circle stroke-width="2.16" fill="black" stroke="black" id="connector0pad" cx="3.6" cy="3.6" r="1.8"  gorn="0.3.0.2"/>
     <circle stroke-width="2.16" fill="black" stroke="black" id="connector15pad" cx="39.6" cy="3.6" r="1.8"  gorn="0.3.0.3"/>
     <circle stroke-width="2.16" fill="black" stroke="black" id="connector1pad" cx="3.6" cy="10.8" r="1.8"  gorn="0.3.0.4"/>
     <circle stroke-width="2.16" fill="black" stroke="black" id="connector14pad" cx="39.6" cy="10.8" r="1.8"  gorn="0.3.0.5"/>
     <circle stroke-width="2.16" fill="black" stroke="black" id="connector2pad" cx="3.6" cy="18" r="1.8"  gorn="0.3.0.6"/>
     <circle stroke-width="2.16" fill="black" stroke="black" id="connector13pad" cx="39.6" cy="18" r="1.8"  gorn="0.3.0.7"/>
     <circle stroke-width="2.16" fill="black" stroke="black" id="connector3pad" cx="3.6" cy="25.2" r="1.8"  gorn="0.3.0.8"/>
     <circle stroke-width="2.16" fill="black" stroke="black" id="connector12pad" cx="39.6" cy="25.2" r="1.8"  gorn="0.3.0.9"/>
     <circle stroke-width="2.16" fill="black" stroke="black" id="connector4pad" cx="3.6" cy="32.4" r="1.8"  gorn="0.3.0.10"/>
     <circle stroke-width="2.16" fill="black" stroke="black" id="connector11pad" cx="39.6" cy="32.4" r="1.8"  gorn="0.3.0.11"/>
     <circle stroke-width="2.16" fill="black" stroke="black" id="connector5pad" cx="3.6" cy="39.6" r="1.8"  gorn="0.3.0.12"/>
     <circle stroke-width="2.16" fill="black" stroke="black" id="connector10pad" cx="39.6" cy="39.6" r="1.8"  gorn="0.3.0.13"/>
     <circle stroke-width="2.16" fill="black" stroke="black" id="connector6pad" cx="3.6" cy="46.8" r="1.8"  gorn="0.3.0.14"/>
     <circle stroke-width="2.16" fill="black" stroke="black" id="connector9pad" cx="39.6" cy="46.8" r="1.8"  gorn="0.3.0.15"/>
     <circle stroke-width="2.16" fill="black" stroke="black" id="connector7pad" cx="3.6" cy="54" r="1.8"  gorn="0.3.0.16"/>
     <circle stroke-width="2.16" fill="black" stroke="black" id="connector8pad" cx="39.6" cy="54" r="1.8"  gorn="0.3.0.17"/>
    </g>
   </g>
  </g>
 </g>
 <g partID="854114620">
  <g transform="translate(178.814,81.0659)">
   <g transform="matrix(0,1,-1,0,0,0)">
    <g id="copper0" >
     <rect stroke-width="2.16" x="2.952" fill="black" y="2.952" stroke="black" id="square" height="4.176" width="4.176" />
     <circle stroke-width="2.16" fill="black" stroke="black" id="connector0pin" cx="5.04" cy="5.04" r="2.088" />
     <circle stroke-width="2.16" fill="black" stroke="black" id="connector1pin" cx="5.04" cy="12.24" r="2.088" />
     <circle stroke-width="2.16" fill="black" stroke="black" id="connector2pin" cx="5.04" cy="19.44" r="2.088" />
     <circle stroke-width="2.16" fill="black" stroke="black" id="connector3pin" cx="5.04" cy="26.64" r="2.088" />
    </g>
   </g>
  </g>
 </g>
</svg>
