<?xml version='1.0' encoding='UTF-8' standalone='no'?>
<!-- Created with Fritzing (http://www.fritzing.org/) -->
<svg xmlns="http://www.w3.org/2000/svg" width="3.33333in" height="2.22222in" baseProfile="tiny"  viewBox="0 0 240 160" xmlns:svg="http://www.w3.org/2000/svg" x="0in" y="0in" version="1.2">
 <g transform="matrix(-1, 0, 0, 1, 240, 0)">
  <g partID="57690">
   <g  id="board">
    <rect stroke-width="0.5" width="239.424" height="159.424" fill-opacity="0.5"  fill="none" id="boardoutline" x="0.288" y="0.288" stroke="black"/>
   </g>
  </g>
  <g partID="854216190">
   <g transform="translate(199.179,133.045)">
    <g  id="copper0">
     <circle cx="7.488" stroke-width="1.24668" connectorname="ADJ" cy="7.488"  r="2.04066" fill="none" id="connector0pad" stroke="black"/>
     <path stroke-width="0"  fill="black" d="m4.824,4.824,5.328,0,0,5.328,-5.328,0,0,-5.328zM6.07068,7.488a1.41732,1.41732,0,1,0,2.83465,0,1.41732,1.41732,0,1,0,-2.83465,0z" stroke="none"/>
     <circle cx="14.688" stroke-width="1.24668" connectorname="OUT" cy="7.488"  r="2.04066" fill="none" id="connector2pad" stroke="black"/>
     <circle cx="21.888" stroke-width="1.24668" connectorname="IN" cy="7.488"  r="2.04066" fill="none" id="connector1pad" stroke="black"/>
    </g>
   </g>
  </g>
  <g partID="854137120">
   <g transform="translate(142.62,81.7309)">
    <g  id="copper0">
     <circle cx="20.8462" stroke-width="1.44" cy="15.6024"  fill="none" r="1.98" id="connector0pad" stroke="black"/>
     <circle cx="2.42064" stroke-width="1.44" cy="15.6024"  fill="none" r="1.98" id="connector1pad" stroke="black"/>
     <circle cx="20.8462" stroke-width="1.44" cy="2.84616"  fill="none" r="1.98" id="connector2pad" stroke="black"/>
     <circle cx="2.42064" stroke-width="1.44" cy="2.84616"  fill="none" r="1.98" id="connector3pad" stroke="black"/>
    </g>
   </g>
  </g>
  <g partID="854137860">
   <g transform="translate(16.7666,130.237)">
    <g  id="copper0">
     <g  id="copper1">
      <!-- <rect width="55" x="10" y="15.5" fill="none" height="55" stroke="rgb(255, 191, 0)" stroke-width="20" />  -->
      <circle cx="2.7" stroke-width="1.44" cy="3.096"  fill="none" r="1.98" id="connector0pin" stroke="black"/>
      <circle cx="31.5" stroke-width="1.44" cy="3.096"  fill="none" r="1.98" id="connector1pin" stroke="black"/>
     </g>
    </g>
   </g>
  </g>
  <g partID="854143530">
   <g transform="translate(118.679,86.5869)">
    <g  id="copper0">
     <g  id="copper1">
      <circle stroke-width="1.13384" cx="8.7872" cy="10.6336"  fill="none" r="1.7008" id="connector1pad" stroke="black"/>
      <rect stroke-width="1.13384" width="3.4016" height="3.4016"  fill="none" x="7.0864" y="8.9328" stroke="black"/>
      <circle stroke-width="1.13384" cx="8.7872" cy="3.5464"  fill="none" r="1.7008" id="connector0pad" stroke="black"/>
     </g>
    </g>
   </g>
  </g>
  <g partID="854144470">
   <g transform="translate(23.9666,137.437)">
    <g  id="copper0">
     <g  id="copper1">
      <!-- <rect width="55" x="10" y="15.5" fill="none" height="55" stroke="rgb(255, 191, 0)" stroke-width="20" />  -->
      <circle cx="2.7" stroke-width="1.44" cy="3.096"  fill="none" r="1.98" id="connector0pin" stroke="black"/>
      <circle cx="31.5" stroke-width="1.44" cy="3.096"  fill="none" r="1.98" id="connector1pin" stroke="black"/>
     </g>
    </g>
   </g>
  </g>
  <g partID="854144830">
   <g transform="translate(97.0786,86.5869)">
    <g  id="copper0">
     <g  id="copper1">
      <circle cx="8.7876" stroke-width="1.13384" cy="10.6336"  fill="none" r="1.7008" id="connector1pad" stroke="black"/>
      <rect stroke-width="1.13384" width="3.4016" height="3.4016"  fill="none" x="7.0868" y="8.9328" stroke="black"/>
      <circle cx="8.7876" stroke-width="1.13384" cy="3.5464"  fill="none" r="1.7008" id="connector0pad" stroke="black"/>
     </g>
    </g>
   </g>
  </g>
  <g partID="854145570">
   <g transform="translate(88.7666,123.037)">
    <g  id="copper0">
     <g  id="copper1">
      <!-- <rect width="55" x="10" y="15.5" fill="none" height="55" stroke="rgb(255, 191, 0)" stroke-width="20" />  -->
      <circle cx="2.7" stroke-width="1.44" cy="3.096"  fill="none" r="1.98" id="connector0pin" stroke="black"/>
      <circle cx="31.5" stroke-width="1.44" cy="3.096"  fill="none" r="1.98" id="connector1pin" stroke="black"/>
     </g>
    </g>
   </g>
  </g>
  <g partID="854148620">
   <g transform="translate(100.827,13.0933)">
    <g  id="copper0">
     <rect width="4.176" stroke-width="1.44" height="4.176"  fill="none" id="square" x="2.952" y="2.952" stroke="black"/>
     <circle cx="5.04" stroke-width="1.44" cy="5.04"  fill="none" r="2.088" id="connector0pin" stroke="black"/>
     <circle cx="5.04" stroke-width="1.44" cy="12.24"  fill="none" r="2.088" id="connector1pin" stroke="black"/>
    </g>
   </g>
  </g>
  <g partID="63610">
   <g transform="translate(44.8466,79.1533)">
    <g transform="matrix(0,1,-1,0,0,0)">
     <g  id="copper0">
      <circle cx="3.78" stroke-width="0.72" connectorname="P$1" cy="3.78"  r="1.77732" fill="none" id="connector0pad" stroke="black"/>
      <path stroke-width="0"  fill="black" d="m1.64268,1.64268,4.27465,0,0,4.27465,-4.27465,0,0,-4.27465zM2.36268,3.78a1.41732,1.41732,0,1,0,2.83465,0,1.41732,1.41732,0,1,0,-2.83465,0z" stroke="none"/>
      <circle cx="25.38" stroke-width="0.72" connectorname="P$2" cy="3.78"  r="1.77732" fill="none" id="connector1pad" stroke="black"/>
      <path stroke-width="0"  fill="black" d="m23.2427,1.64268,4.27465,0,0,4.27465,-4.27465,0,0,-4.27465zM23.9627,3.78a1.41732,1.41732,0,1,0,2.83465,0,1.41732,1.41732,0,1,0,-2.83465,0z" stroke="none"/>
      <circle cx="3.78" stroke-width="0.72" connectorname="P$3" cy="18.18"  r="1.77732" fill="none" id="connector2pad" stroke="black"/>
      <path stroke-width="0"  fill="black" d="m1.64268,16.0427,4.27465,0,0,4.27465,-4.27465,0,0,-4.27465zM2.36268,18.18a1.41732,1.41732,0,1,0,2.83465,0,1.41732,1.41732,0,1,0,-2.83465,0z" stroke="none"/>
      <circle cx="25.38" stroke-width="0.72" connectorname="P$4" cy="18.18"  r="1.77732" fill="none" id="connector3pad" stroke="black"/>
      <path stroke-width="0"  fill="black" d="m23.2427,16.0427,4.27465,0,0,4.27465,-4.27465,0,0,-4.27465zM23.9627,18.18a1.41732,1.41732,0,1,0,2.83465,0,1.41732,1.41732,0,1,0,-2.83465,0z" stroke="none"/>
     </g>
    </g>
   </g>
  </g>
  <g partID="854103900">
   <g transform="translate(202.707,82.5733)">
    <g  id="copper0">
     <rect width="3.96" stroke-width="1.44" height="3.96"  fill="none" x="1.98" id="rect11" y="5.58" stroke="black"/>
     <circle cx="3.96" stroke-width="1.44" cy="7.56"  r="1.98" fill="none" id="connector0pin" stroke="black"/>
     <circle cx="11.16" stroke-width="1.44" cy="7.56"  r="1.98" fill="none" id="connector1pin" stroke="black"/>
    </g>
   </g>
  </g>
  <g partID="854103930">
   <g transform="translate(16.7666,51.0373)">
    <g  id="copper0">
     <g  id="copper1">
      <!-- <rect width="55" x="10" y="15.5" fill="none" height="55" stroke="rgb(255, 191, 0)" stroke-width="20" />  -->
      <circle cx="2.7" stroke-width="1.44" cy="3.096"  fill="none" r="1.98" id="connector0pin" stroke="black"/>
      <circle cx="31.5" stroke-width="1.44" cy="3.096"  fill="none" r="1.98" id="connector1pin" stroke="black"/>
     </g>
    </g>
   </g>
  </g>
  <g partID="854104830">
   <g transform="translate(71.069,83.6872)">
    <g transform="matrix(0,1,-1,0,0,0)">
     <g  id="copper0">
      <circle cx="20.8462" stroke-width="1.44" cy="15.6024"  fill="none" r="1.98" id="connector0pad" stroke="black"/>
      <circle cx="2.42064" stroke-width="1.44" cy="15.6024"  fill="none" r="1.98" id="connector1pad" stroke="black"/>
      <circle cx="20.8462" stroke-width="1.44" cy="2.84616"  fill="none" r="1.98" id="connector2pad" stroke="black"/>
      <circle cx="2.42064" stroke-width="1.44" cy="2.84616"  fill="none" r="1.98" id="connector3pad" stroke="black"/>
     </g>
    </g>
   </g>
  </g>
  <g partID="854105380">
   <g transform="translate(16.7666,58.2373)">
    <g  id="copper0">
     <g  id="copper1">
      <!-- <rect width="55" x="10" y="15.5" fill="none" height="55" stroke="rgb(255, 191, 0)" stroke-width="20" />  -->
      <circle cx="2.7" stroke-width="1.44" cy="3.096"  fill="none" r="1.98" id="connector0pin" stroke="black"/>
      <circle cx="31.5" stroke-width="1.44" cy="3.096"  fill="none" r="1.98" id="connector1pin" stroke="black"/>
     </g>
    </g>
   </g>
  </g>
  <g partID="854106290">
   <g transform="translate(88.7666,137.437)">
    <g  id="copper0">
     <g  id="copper1">
      <!-- <rect width="55" x="10" y="15.5" fill="none" height="55" stroke="rgb(255, 191, 0)" stroke-width="20" />  -->
      <circle cx="2.7" stroke-width="1.44" cy="3.096"  fill="none" r="1.98" id="connector0pin" stroke="black"/>
      <circle cx="31.5" stroke-width="1.44" cy="3.096"  fill="none" r="1.98" id="connector1pin" stroke="black"/>
     </g>
    </g>
   </g>
  </g>
  <g partID="854232510">
   <g transform="translate(24.5066,27.4933)">
    <g transform="matrix(0,1,-1,0,0,0)">
     <g  id="copper0">
      <rect width="4.176" stroke-width="1.44" height="4.176"  fill="none" id="square" x="2.952" y="2.952" stroke="black"/>
      <circle cx="5.04" stroke-width="1.44" cy="5.04"  fill="none" r="2.088" id="connector0pin" stroke="black"/>
      <circle cx="5.04" stroke-width="1.44" cy="12.24"  fill="none" r="2.088" id="connector1pin" stroke="black"/>
      <circle cx="5.04" stroke-width="1.44" cy="19.44"  fill="none" r="2.088" id="connector2pin" stroke="black"/>
     </g>
    </g>
   </g>
  </g>
  <g partID="854108020">
   <g transform="translate(88.7666,36.6373)">
    <g  id="copper0">
     <g  id="copper1">
      <!-- <rect width="55" x="10" y="15.5" fill="none" height="55" stroke="rgb(255, 191, 0)" stroke-width="20" />  -->
      <circle cx="2.7" stroke-width="1.44" cy="3.096"  fill="none" r="1.98" id="connector0pin" stroke="black"/>
      <circle cx="31.5" stroke-width="1.44" cy="3.096"  fill="none" r="1.98" id="connector1pin" stroke="black"/>
     </g>
    </g>
   </g>
  </g>
  <g partID="854109670">
   <g transform="translate(210.267,21.7333)">
    <g transform="matrix(0,1,-1,0,0,0)">
     <g gorn="0.3.0"  id="copper0">
      <rect width="3.6" stroke-width="1.44" gorn="0.3.0.0" height="3.6"  fill="none" x="37.8" id="square" y="52.2" stroke="black"/>
      <rect width="3.6" stroke-width="1.44" gorn="0.3.0.1" height="3.6"  fill="none" x="37.8" id="square" y="9" stroke="black"/>
      <circle cx="3.6" stroke-width="1.44" gorn="0.3.0.2" cy="3.6"  fill="none" r="1.8" id="connector0pad" stroke="black"/>
      <circle cx="39.6" stroke-width="1.44" gorn="0.3.0.3" cy="3.6"  fill="none" r="1.8" id="connector15pad" stroke="black"/>
      <circle cx="3.6" stroke-width="1.44" gorn="0.3.0.4" cy="10.8"  fill="none" r="1.8" id="connector1pad" stroke="black"/>
      <circle cx="39.6" stroke-width="1.44" gorn="0.3.0.5" cy="10.8"  fill="none" r="1.8" id="connector14pad" stroke="black"/>
      <circle cx="3.6" stroke-width="1.44" gorn="0.3.0.6" cy="18"  fill="none" r="1.8" id="connector2pad" stroke="black"/>
      <circle cx="39.6" stroke-width="1.44" gorn="0.3.0.7" cy="18"  fill="none" r="1.8" id="connector13pad" stroke="black"/>
      <circle cx="3.6" stroke-width="1.44" gorn="0.3.0.8" cy="25.2"  fill="none" r="1.8" id="connector3pad" stroke="black"/>
      <circle cx="39.6" stroke-width="1.44" gorn="0.3.0.9" cy="25.2"  fill="none" r="1.8" id="connector12pad" stroke="black"/>
      <circle cx="3.6" stroke-width="1.44" gorn="0.3.0.10" cy="32.4"  fill="none" r="1.8" id="connector4pad" stroke="black"/>
      <circle cx="39.6" stroke-width="1.44" gorn="0.3.0.11" cy="32.4"  fill="none" r="1.8" id="connector11pad" stroke="black"/>
      <circle cx="3.6" stroke-width="1.44" gorn="0.3.0.12" cy="39.6"  fill="none" r="1.8" id="connector5pad" stroke="black"/>
      <circle cx="39.6" stroke-width="1.44" gorn="0.3.0.13" cy="39.6"  fill="none" r="1.8" id="connector10pad" stroke="black"/>
      <circle cx="3.6" stroke-width="1.44" gorn="0.3.0.14" cy="46.8"  fill="none" r="1.8" id="connector6pad" stroke="black"/>
      <circle cx="39.6" stroke-width="1.44" gorn="0.3.0.15" cy="46.8"  fill="none" r="1.8" id="connector9pad" stroke="black"/>
      <circle cx="3.6" stroke-width="1.44" gorn="0.3.0.16" cy="54"  fill="none" r="1.8" id="connector7pad" stroke="black"/>
      <circle cx="39.6" stroke-width="1.44" gorn="0.3.0.17" cy="54"  fill="none" r="1.8" id="connector8pad" stroke="black"/>
     </g>
    </g>
   </g>
  </g>
  <g partID="854114620">
   <g transform="translate(204.507,121.093)">
    <g transform="matrix(0,1,-1,0,0,0)">
     <g  id="copper0">
      <rect width="4.176" stroke-width="1.44" height="4.176"  fill="none" id="square" x="2.952" y="2.952" stroke="black"/>
      <circle cx="5.04" stroke-width="1.44" cy="5.04"  fill="none" r="2.088" id="connector0pin" stroke="black"/>
      <circle cx="5.04" stroke-width="1.44" cy="12.24"  fill="none" r="2.088" id="connector1pin" stroke="black"/>
      <circle cx="5.04" stroke-width="1.44" cy="19.44"  fill="none" r="2.088" id="connector2pin" stroke="black"/>
      <circle cx="5.04" stroke-width="1.44" cy="26.64"  fill="none" r="2.088" id="connector3pin" stroke="black"/>
     </g>
    </g>
   </g>
  </g>
  <g partID="854293370">
   <line y2="126.133" stroke-width="1.728" x1="26.6666" x2="77.0666" stroke-linecap="round" stroke="black" y1="126.133"/>
  </g>
  <g partID="854283470">
   <line y2="126.133" stroke-width="1.728" x1="20.9233" x2="26.6666" stroke-linecap="round" stroke="black" y1="131.877"/>
  </g>
  <g partID="854283650">
   <line y2="111.733" stroke-width="1.728" x1="77.0666" x2="98.6666" stroke-linecap="round" stroke="black" y1="126.133"/>
  </g>
  <g partID="854283670">
   <line y2="104.533" stroke-width="1.728" x1="98.6666" x2="141.867" stroke-linecap="round" stroke="black" y1="111.733"/>
  </g>
  <g partID="854283730">
   <line y2="99.2183" stroke-width="1.728" x1="141.867" x2="144.21" stroke-linecap="round" stroke="black" y1="104.533"/>
  </g>
  <g partID="854301980">
   <line y2="88.1348" stroke-width="1.728" x1="207.123" x2="213.367" stroke-linecap="round" stroke="black" y1="63.1572"/>
  </g>
  <g partID="854302140">
   <line y2="92.1933" stroke-width="1.728" x1="213.867" x2="213.867" stroke-linecap="round" stroke="black" y1="138.316"/>
  </g>
  <g partID="854302420">
   <line y2="124.017" stroke-width="1.728" x1="191.859" x2="178.337" stroke-linecap="round" stroke="black" y1="63.1686"/>
  </g>
  <g partID="854303340">
   <line y2="63.1572" stroke-width="1.728" x1="206.167" x2="199.923" stroke-linecap="round" stroke="black" y1="88.1348"/>
  </g>
  <g partID="854303480">
   <line y2="92.1933" stroke-width="1.728" x1="206.667" x2="206.667" stroke-linecap="round" stroke="black" y1="138.316"/>
  </g>
  <g partID="854303600">
   <line y2="56.16" stroke-width="1.728" x1="40.3699" x2="25.056" stroke-linecap="round" stroke="black" y1="102.428"/>
  </g>
  <g partID="854303760">
   <line y2="54.8355" stroke-width="1.728" x1="25.056" x2="21.4033" stroke-linecap="round" stroke="black" y1="56.16"/>
  </g>
  <g partID="854303800">
   <line y2="49.248" stroke-width="1.728" x1="54.2507" x2="28.512" stroke-linecap="round" stroke="black" y1="84.445"/>
  </g>
  <g partID="854304040">
   <line y2="49.248" stroke-width="1.728" x1="28.512" x2="16.416" stroke-linecap="round" stroke="black" y1="49.248"/>
  </g>
  <g partID="854304060">
   <line y2="50.976" stroke-width="1.728" x1="16.416" x2="14.688" stroke-linecap="round" stroke="black" y1="49.248"/>
  </g>
  <g partID="854304120">
   <line y2="57.888" stroke-width="1.728" x1="14.688" x2="14.688" stroke-linecap="round" stroke="black" y1="50.976"/>
  </g>
  <g partID="854304140">
   <line y2="60.1286" stroke-width="1.728" x1="14.688" x2="17.7957" stroke-linecap="round" stroke="black" y1="57.888"/>
  </g>
  <g partID="854304660">
   <line y2="84.6181" stroke-width="1.728" x1="70.2825" x2="142.981" stroke-linecap="round" stroke="black" y1="86.0668"/>
  </g>
  <g partID="854304720">
   <line y2="109.728" stroke-width="1.728" x1="28.6535" x2="37.152" stroke-linecap="round" stroke="black" y1="105.518"/>
  </g>
  <g partID="854304800">
   <line y2="109.728" stroke-width="1.728" x1="37.152" x2="45.792" stroke-linecap="round" stroke="black" y1="109.728"/>
  </g>
  <g partID="854304820">
   <line y2="99.36" stroke-width="1.728" x1="45.792" x2="52.704" stroke-linecap="round" stroke="black" y1="109.728"/>
  </g>
  <g partID="854304880">
   <line y2="99.36" stroke-width="1.728" x1="52.704" x2="59.616" stroke-linecap="round" stroke="black" y1="99.36"/>
  </g>
  <g partID="854304900">
   <line y2="103.472" stroke-width="1.728" x1="59.616" x2="66.4573" stroke-linecap="round" stroke="black" y1="99.36"/>
  </g>
  <g partID="854304960">
   <line y2="56.1933" stroke-width="1.728" x1="48.2666" x2="48.2666" stroke-linecap="round" stroke="black" y1="59.2733"/>
  </g>
  <g partID="854305200">
   <line y2="90.1333" stroke-width="1.728" x1="125.533" x2="107.8" stroke-linecap="round" stroke="black" y1="90.1333"/>
  </g>
  <g partID="854305260">
   <line y2="88.992" stroke-width="1.728" x1="155.818" x2="149.472" stroke-linecap="round" stroke="black" y1="63.1591"/>
  </g>
  <g partID="854305400">
   <line y2="90.0332" stroke-width="1.728" x1="149.472" x2="129.398" stroke-linecap="round" stroke="black" y1="88.992"/>
  </g>
  <g partID="854305440">
   <line y2="60.3661" stroke-width="1.728" x1="122.033" x2="154.655" stroke-linecap="round" stroke="black" y1="40.7932"/>
  </g>
 </g>
</svg>
