<?xml version='1.0' encoding='UTF-8' standalone='no'?>
<!-- Created with Fritzing (http://www.fritzing.org/) -->
<svg xmlns="http://www.w3.org/2000/svg" width="3.33333in" height="2.22222in" baseProfile="tiny"  viewBox="0 0 240 160" xmlns:svg="http://www.w3.org/2000/svg" x="0in" y="0in" version="1.2">
 <g partID="57691">
  <g id="silkscreen">
   <rect stroke-width="0.576" width="239.424" height="159.424" fill="none" x="0.288" y="0.288" stroke="black"/>
  </g>
 </g>
 <g partID="57690">
  <g id="board">
   <rect stroke-width="0.5" width="239.424" height="159.424" fill-opacity="0.5" fill="none" id="boardoutline" x="0.288" y="0.288" stroke="black"/>
  </g>
 </g>
 <g partID="854216191">
  <g transform="translate(199.179,133.045)">
   <g id="silkscreen">
    <line y2="12.888" stroke-width="0.576" x1="29.088" class="other" x2="0.288" stroke-linecap="round" stroke="black" y1="12.888"/>
    <line y2="2.088" stroke-width="0.576" x1="0.288" class="other" x2="0.288" stroke-linecap="round" stroke="black" y1="12.888"/>
    <line y2="0.288" stroke-width="0.576" x1="0.288" class="other" x2="0.288" stroke-linecap="round" stroke="black" y1="2.088"/>
    <line y2="0.288" stroke-width="0.576" x1="0.288" class="other" x2="29.088" stroke-linecap="round" stroke="black" y1="0.288"/>
    <line y2="2.088" stroke-width="0.576" x1="29.088" class="other" x2="29.088" stroke-linecap="round" stroke="black" y1="0.288"/>
    <line y2="12.888" stroke-width="0.576" x1="29.088" class="other" x2="29.088" stroke-linecap="round" stroke="black" y1="2.088"/>
    <line y2="2.088" stroke-width="0.576" x1="29.088" class="other" x2="0.288" stroke-linecap="round" stroke="black" y1="2.088"/>
   </g>
  </g>
 </g>
 <g partID="854217481">
  <g transform="translate(211.315,50.3066)">
   <g id="silkscreen">
    <line y2="0.297637" stroke-width="0.431999" x1="5.87621" class="other" x2="11.6986" stroke-linecap="round" stroke="black" y1="0.297637"/>
    <line y2="7.35589" stroke-width="0.431999" x1="5.94707" class="other" x2="11.6674" stroke-linecap="round" stroke="black" y1="7.35589"/>
   </g>
  </g>
 </g>
 <g partID="854220261">
  <g transform="translate(211.315,35.9066)">
   <g id="silkscreen">
    <line y2="0.297637" stroke-width="0.431999" x1="5.87621" class="other" x2="11.6986" stroke-linecap="round" stroke="black" y1="0.297637"/>
    <line y2="7.35589" stroke-width="0.431999" x1="5.94707" class="other" x2="11.6674" stroke-linecap="round" stroke="black" y1="7.35589"/>
   </g>
  </g>
 </g>
 <g partID="854137121">
  <g transform="translate(142.62,81.7309)">
   <g id="silkscreen">
    <line stroke-width="0.72" y2="12.0586" x1="20.137" x2="20.137" stroke="black" y1="6.38928"/>
    <line stroke-width="0.72" y2="0.72" x1="5.96376" x2="18.0115" stroke="black" y1="0.72"/>
    <line stroke-width="0.72" y2="17.7278" x1="5.96376" x2="18.0115" stroke="black" y1="17.7278"/>
    <line stroke-width="0.72" y2="12.0586" x1="3.12912" x2="3.12912" stroke="black" y1="6.38928"/>
    <line stroke-width="0.72" y2="10.6416" x1="11.633" x2="11.633" stroke="black" y1="7.80696"/>
    <line stroke-width="0.72" y2="9.22392" x1="13.0507" x2="10.2161" stroke="black" y1="9.22392"/>
   </g>
  </g>
 </g>
 <g partID="854137861">
  <g transform="translate(16.7666,130.237)">
   <g id="silkscreen">
    <line y2="3.096" stroke-width="0.72" x1="5.4" x2="10.584" stroke="black" y1="3.096"/>
    <line y2="3.096" stroke-width="0.72" x1="24.984" x2="28.8" stroke="black" y1="3.096"/>
    <line y2="0.72" stroke-width="0.72" x1="10.584" x2="24.984" stroke="black" y1="0.72"/>
    <line y2="5.472" stroke-width="0.72" x1="24.984" x2="24.984" stroke="black" y1="0.72"/>
    <line y2="5.472" stroke-width="0.72" x1="24.984" x2="10.584" stroke="black" y1="5.472"/>
    <line y2="0.72" stroke-width="0.72" x1="10.584" x2="10.584" stroke="black" y1="5.472"/>
   </g>
  </g>
 </g>
 <g partID="854143531">
  <g transform="translate(118.679,86.5869)">
   <g id="silkscreen">
    <path stroke-width="0.36864" stroke-linejoin="round" fill="none" stroke-linecap="round" d="M6.0272,11.6048c-0.196,-0.1136,-0.388,-0.24,-0.5736,-0.3808c-2.4368,-1.84,-2.92,-5.3088,-1.0792,-7.7456C4.688,3.064,5.0576,2.696,5.4728,2.384" id="path2820_2_" stroke="black"/>
    <path stroke-width="0.36864" stroke-linejoin="round" fill="none" stroke-linecap="round" d="M12.12,2.3992c2.436,1.8392,2.9192,5.308,1.08,7.7456c-0.4424,0.5856,-0.9792,1.0584,-1.5728,1.4136" id="path2820_1_" stroke="black"/>
    <path stroke-width="0.36864" fill="none" stroke-linecap="round" d="M6.3872,2.3864L5.4696,2.3864" id="path3707_2_" stroke="black"/>
    <path stroke-width="0.36864" fill="none" stroke-linecap="round" d="M12.1048,2.3864l-0.9168,0" id="path3707_1_" stroke="black"/>
   </g>
  </g>
 </g>
 <g partID="854144471">
  <g transform="translate(23.9666,137.437)">
   <g id="silkscreen">
    <line y2="3.096" stroke-width="0.72" x1="5.4" x2="10.584" stroke="black" y1="3.096"/>
    <line y2="3.096" stroke-width="0.72" x1="24.984" x2="28.8" stroke="black" y1="3.096"/>
    <line y2="0.72" stroke-width="0.72" x1="10.584" x2="24.984" stroke="black" y1="0.72"/>
    <line y2="5.472" stroke-width="0.72" x1="24.984" x2="24.984" stroke="black" y1="0.72"/>
    <line y2="5.472" stroke-width="0.72" x1="24.984" x2="10.584" stroke="black" y1="5.472"/>
    <line y2="0.72" stroke-width="0.72" x1="10.584" x2="10.584" stroke="black" y1="5.472"/>
   </g>
  </g>
 </g>
 <g partID="854144831">
  <g transform="translate(97.0786,86.5869)">
   <g id="silkscreen">
    <path stroke-width="0.56696" stroke-linejoin="round" fill="none" stroke-linecap="round" d="M13.912,0.3048c3.748,2.8296,4.4912,8.1624,1.6608,11.9112c-2.8304,3.748,-8.1632,4.4912,-11.9112,1.6608S-0.8288,5.7128,2.0016,1.9656C2.4824,1.328,3.0504,0.7616,3.6904,0.2832" id="path2820" stroke="black"/>
    <path stroke-width="0.56696" fill="none" stroke-linecap="round" d="M13.8896,0.2872L3.6848,0.2872" id="path3707" stroke="black"/>
   </g>
  </g>
 </g>
 <g partID="854145571">
  <g transform="translate(88.7666,123.037)">
   <g id="silkscreen">
    <line y2="3.096" stroke-width="0.72" x1="5.4" x2="10.584" stroke="black" y1="3.096"/>
    <line y2="3.096" stroke-width="0.72" x1="24.984" x2="28.8" stroke="black" y1="3.096"/>
    <line y2="0.72" stroke-width="0.72" x1="10.584" x2="24.984" stroke="black" y1="0.72"/>
    <line y2="5.472" stroke-width="0.72" x1="24.984" x2="24.984" stroke="black" y1="0.72"/>
    <line y2="5.472" stroke-width="0.72" x1="24.984" x2="10.584" stroke="black" y1="5.472"/>
    <line y2="0.72" stroke-width="0.72" x1="10.584" x2="10.584" stroke="black" y1="5.472"/>
   </g>
  </g>
 </g>
 <g partID="854148621">
  <g transform="translate(100.827,13.0933)">
   <g id="silkscreen">
    <line stroke-width="0.72" y2="15.84" x1="1.44" x2="1.44" stroke="black" y1="1.44"/>
    <line stroke-width="0.72" y2="15.84" x1="1.44" x2="8.64" stroke="black" y1="15.84"/>
    <line stroke-width="0.72" y2="1.44" x1="8.64" x2="8.64" stroke="black" y1="15.84"/>
    <line stroke-width="0.72" y2="1.44" x1="8.64" x2="1.44" stroke="black" y1="1.44"/>
    <line stroke-width="0.36" y2="1.44" x1="1.44" x2="3.96" stroke="black" y1="3.96"/>
    <!-- 120 -->
   </g>
  </g>
 </g>
 <g partID="57691">
  <g id="silkscreen">
   <rect stroke-width="0.576" width="239.424" height="159.424" fill="none" x="0.288" y="0.288" stroke="black"/>
  </g>
 </g>
 <g partID="63611">
  <g transform="translate(44.8466,79.1533)">
   <g transform="matrix(0,1,-1,0,0,0)">
    <g id="silkscreen">
     <line y2="14.58" stroke-width="0.36" x1="14.58" class="other" x2="14.58" stroke-linecap="round" stroke="black" y1="7.38"/>
     <line y2="10.98" stroke-width="0.36" x1="10.98" class="other" x2="18.18" stroke-linecap="round" stroke="black" y1="10.98"/>
     <line y2="0.18" stroke-width="0.36" x1="0.18" class="other" x2="28.98" stroke-linecap="round" stroke="black" y1="0.18"/>
     <line y2="21.78" stroke-width="0.36" x1="28.98" class="other" x2="28.98" stroke-linecap="round" stroke="black" y1="0.18"/>
     <line y2="21.78" stroke-width="0.36" x1="28.98" class="other" x2="0.18" stroke-linecap="round" stroke="black" y1="21.78"/>
     <line y2="0.18" stroke-width="0.36" x1="0.18" class="other" x2="0.18" stroke-linecap="round" stroke="black" y1="21.78"/>
    </g>
   </g>
  </g>
 </g>
 <g partID="854103901">
  <g transform="translate(202.707,82.5733)">
   <g id="silkscreen">
    <circle cx="7.56" stroke-width="0.72" cy="7.56" r="7.2" fill="none" id="circle7" stroke="black"/>
    <path stroke-width="0.792" fill="none" stroke-linecap="round" d="m2.88,3.6,2.16,0" stroke="black"/>
    <path stroke-width="0.792" fill="none" stroke-linecap="round" d="m2.88,11.52,2.16,0" stroke="black"/>
   </g>
  </g>
 </g>
 <g partID="854103931">
  <g transform="translate(16.7666,51.0373)">
   <g id="silkscreen">
    <line y2="3.096" stroke-width="0.72" x1="5.4" x2="10.584" stroke="black" y1="3.096"/>
    <line y2="3.096" stroke-width="0.72" x1="24.984" x2="28.8" stroke="black" y1="3.096"/>
    <line y2="0.72" stroke-width="0.72" x1="10.584" x2="24.984" stroke="black" y1="0.72"/>
    <line y2="5.472" stroke-width="0.72" x1="24.984" x2="24.984" stroke="black" y1="0.72"/>
    <line y2="5.472" stroke-width="0.72" x1="24.984" x2="10.584" stroke="black" y1="5.472"/>
    <line y2="0.72" stroke-width="0.72" x1="10.584" x2="10.584" stroke="black" y1="5.472"/>
   </g>
  </g>
 </g>
 <g partID="854104831">
  <g transform="translate(71.069,83.6872)">
   <g transform="matrix(0,1,-1,0,0,0)">
    <g id="silkscreen">
     <line stroke-width="0.72" y2="12.0586" x1="20.137" x2="20.137" stroke="black" y1="6.38928"/>
     <line stroke-width="0.72" y2="0.72" x1="5.96376" x2="18.0115" stroke="black" y1="0.72"/>
     <line stroke-width="0.72" y2="17.7278" x1="5.96376" x2="18.0115" stroke="black" y1="17.7278"/>
     <line stroke-width="0.72" y2="12.0586" x1="3.12912" x2="3.12912" stroke="black" y1="6.38928"/>
     <line stroke-width="0.72" y2="10.6416" x1="11.633" x2="11.633" stroke="black" y1="7.80696"/>
     <line stroke-width="0.72" y2="9.22392" x1="13.0507" x2="10.2161" stroke="black" y1="9.22392"/>
    </g>
   </g>
  </g>
 </g>
 <g partID="854105381">
  <g transform="translate(16.7666,58.2373)">
   <g id="silkscreen">
    <line y2="3.096" stroke-width="0.72" x1="5.4" x2="10.584" stroke="black" y1="3.096"/>
    <line y2="3.096" stroke-width="0.72" x1="24.984" x2="28.8" stroke="black" y1="3.096"/>
    <line y2="0.72" stroke-width="0.72" x1="10.584" x2="24.984" stroke="black" y1="0.72"/>
    <line y2="5.472" stroke-width="0.72" x1="24.984" x2="24.984" stroke="black" y1="0.72"/>
    <line y2="5.472" stroke-width="0.72" x1="24.984" x2="10.584" stroke="black" y1="5.472"/>
    <line y2="0.72" stroke-width="0.72" x1="10.584" x2="10.584" stroke="black" y1="5.472"/>
   </g>
  </g>
 </g>
 <g partID="854106291">
  <g transform="translate(88.7666,137.437)">
   <g id="silkscreen">
    <line y2="3.096" stroke-width="0.72" x1="5.4" x2="10.584" stroke="black" y1="3.096"/>
    <line y2="3.096" stroke-width="0.72" x1="24.984" x2="28.8" stroke="black" y1="3.096"/>
    <line y2="0.72" stroke-width="0.72" x1="10.584" x2="24.984" stroke="black" y1="0.72"/>
    <line y2="5.472" stroke-width="0.72" x1="24.984" x2="24.984" stroke="black" y1="0.72"/>
    <line y2="5.472" stroke-width="0.72" x1="24.984" x2="10.584" stroke="black" y1="5.472"/>
    <line y2="0.72" stroke-width="0.72" x1="10.584" x2="10.584" stroke="black" y1="5.472"/>
   </g>
  </g>
 </g>
 <g partID="854232511">
  <g transform="translate(24.5066,27.4933)">
   <g transform="matrix(0,1,-1,0,0,0)">
    <g id="silkscreen">
     <line stroke-width="0.72" y2="23.04" x1="1.44" x2="1.44" stroke="black" y1="1.44"/>
     <line stroke-width="0.72" y2="23.04" x1="1.44" x2="8.64" stroke="black" y1="23.04"/>
     <line stroke-width="0.72" y2="1.44" x1="8.64" x2="8.64" stroke="black" y1="23.04"/>
     <line stroke-width="0.72" y2="1.44" x1="8.64" x2="1.44" stroke="black" y1="1.44"/>
     <line stroke-width="0.36" y2="1.44" x1="1.44" x2="3.96" stroke="black" y1="3.96"/>
     <!-- 120 -->
    </g>
   </g>
  </g>
 </g>
 <g partID="854108021">
  <g transform="translate(88.7666,36.6373)">
   <g id="silkscreen">
    <line y2="3.096" stroke-width="0.72" x1="5.4" x2="10.584" stroke="black" y1="3.096"/>
    <line y2="3.096" stroke-width="0.72" x1="24.984" x2="28.8" stroke="black" y1="3.096"/>
    <line y2="0.72" stroke-width="0.72" x1="10.584" x2="24.984" stroke="black" y1="0.72"/>
    <line y2="5.472" stroke-width="0.72" x1="24.984" x2="24.984" stroke="black" y1="0.72"/>
    <line y2="5.472" stroke-width="0.72" x1="24.984" x2="10.584" stroke="black" y1="5.472"/>
    <line y2="0.72" stroke-width="0.72" x1="10.584" x2="10.584" stroke="black" y1="5.472"/>
   </g>
  </g>
 </g>
 <g partID="854109671">
  <g transform="translate(210.267,21.7333)">
   <g transform="matrix(0,1,-1,0,0,0)">
    <g gorn="0.2" id="silkscreen">
     <line stroke-width="0.576" y2="57.024" x1="0.576" x2="0.576" stroke="black" y1="0.576"/>
     <line stroke-width="0.576" y2="57.024" x1="0.576" x2="42.624" stroke="black" y1="57.024"/>
     <line stroke-width="0.576" y2="0.576" x1="42.624" x2="42.624" stroke="black" y1="57.024"/>
     <line stroke-width="0.576" y2="0.576" x1="0.576" x2="17.28" stroke="black" y1="0.576"/>
     <line stroke-width="0.576" y2="0.576" x1="25.776" x2="42.624" stroke="black" y1="0.576"/>
    </g>
   </g>
  </g>
 </g>
 <g partID="854114621">
  <g transform="translate(204.507,121.093)">
   <g transform="matrix(0,1,-1,0,0,0)">
    <g id="silkscreen">
     <line stroke-width="0.72" y2="30.24" x1="1.44" x2="1.44" stroke="black" y1="1.44"/>
     <line stroke-width="0.72" y2="30.24" x1="1.44" x2="8.64" stroke="black" y1="30.24"/>
     <line stroke-width="0.72" y2="1.44" x1="8.64" x2="8.64" stroke="black" y1="30.24"/>
     <line stroke-width="0.72" y2="1.44" x1="8.64" x2="1.44" stroke="black" y1="1.44"/>
     <line stroke-width="0.36" y2="1.44" x1="1.44" x2="3.96" stroke="black" y1="3.96"/>
     <!-- 120 -->
    </g>
   </g>
  </g>
 </g>
 <g id="partLabel" partID="854232510">
  <g transform="translate(17.3066,14.6933)">
   <g font-weight="normal" fill-opacity="1" fill="#000000" font-family="'OCRA'" font-size="5" id="silkscreenLabel" font-style="normal" stroke="none">
    <text x="0" y="3.75">FCrec</text>
   </g>
  </g>
 </g>
 <g id="partLabel" partID="854106290">
  <g transform="translate(122.967,131.837)">
   <g font-weight="normal" fill-opacity="1" fill="#000000" font-family="'OCRA'" font-size="5" id="silkscreenLabel" font-style="normal" stroke="none">
    <text x="0" y="3.75">RfimInje</text>
   </g>
  </g>
 </g>
 <g id="partLabel" partID="63610">
  <g transform="translate(48.4466,77.1533)">
   <g font-weight="normal" fill-opacity="1" fill="#000000" font-family="'OCRA'" font-size="5" id="silkscreenLabel" font-style="normal" stroke="none">
    <text x="0" y="3.75">BotIni</text>
   </g>
  </g>
 </g>
 <g id="partLabel" partID="854104830">
  <g transform="translate(73.4786,80.4967)">
   <g font-weight="normal" fill-opacity="1" fill="#000000" font-family="'OCRA'" font-size="5" id="silkscreenLabel" font-style="normal" stroke="none">
    <text x="0" y="3.75">botRec</text>
   </g>
  </g>
 </g>
 <g id="partLabel" partID="854105380">
  <g transform="translate(50.9666,52.6373)">
   <g font-weight="normal" fill-opacity="1" fill="#000000" font-family="'OCRA'" font-size="5" id="silkscreenLabel" font-style="normal" stroke="none">
    <text x="0" y="3.75">R100&#x3a9;</text>
   </g>
  </g>
 </g>
 <g id="partLabel" partID="854108020">
  <g transform="translate(122.967,31.0373)">
   <g font-weight="normal" fill-opacity="1" fill="#000000" font-family="'OCRA'" font-size="5" id="silkscreenLabel" font-style="normal" stroke="none">
    <text x="0" y="3.75">RFimRecol</text>
   </g>
  </g>
 </g>
 <g id="partLabel" partID="854103900">
  <g transform="translate(217.827,76.9733)">
   <g font-weight="normal" fill-opacity="1" fill="#000000" font-family="'OCRA'" font-size="5" id="silkscreenLabel" font-style="normal" stroke="none">
    <text x="0" y="3.75">C100&#xb5;F</text>
   </g>
  </g>
 </g>
 <g id="partLabel" partID="854109670">
  <g transform="translate(203.067,8.93334)">
   <g font-weight="normal" fill-opacity="1" fill="#000000" font-family="'OCRA'" font-size="5" id="silkscreenLabel" font-style="normal" stroke="none">
    <text x="0" y="3.75">driver</text>
   </g>
  </g>
 </g>
 <g id="partLabel" partID="854114620">
  <g transform="translate(193.707,104.693)">
   <g font-weight="normal" fill-opacity="1" fill="#000000" font-family="'OCRA'" font-size="5" id="silkscreenLabel" font-style="normal" stroke="none">
    <text x="0" y="3.75">Nema14</text>
   </g>
  </g>
 </g>
 <g id="partLabel" partID="854137120">
  <g transform="translate(177.887,69.7309)">
   <g transform="matrix(2.22045e-16,1,-1,2.22045e-16,0,0)">
    <g font-weight="normal" fill-opacity="1" fill="#000000" font-family="'OCRA'" font-size="5" id="silkscreenLabel" font-style="normal" stroke="none">
     <text x="0" y="3.75">botPa</text>
    </g>
   </g>
  </g>
 </g>
 <g id="partLabel" partID="854143530">
  <g transform="translate(136.255,80.9869)">
   <g font-weight="normal" fill-opacity="1" fill="#000000" font-family="'OCRA'" font-size="5" id="silkscreenLabel" font-style="normal" stroke="none">
    <text x="0" y="3.75">Lvm</text>
   </g>
  </g>
 </g>
 <g id="partLabel" partID="854145570">
  <g transform="translate(122.967,117.437)">
   <g font-weight="normal" fill-opacity="1" fill="#000000" font-family="'OCRA'" font-size="5" id="silkscreenLabel" font-style="normal" stroke="none">
    <text x="0" y="3.75">R3lVer</text>
   </g>
  </g>
 </g>
 <g id="partLabel" partID="854148620">
  <g transform="translate(110.907,7.49334)">
   <g font-weight="normal" fill-opacity="1" fill="#000000" font-family="'OCRA'" font-size="5" id="silkscreenLabel" font-style="normal" stroke="none">
    <text x="0" y="3.75">Buzzer</text>
   </g>
  </g>
 </g>
 <g id="partLabel" partID="854144830">
  <g transform="translate(114.654,80.9869)">
   <g font-weight="normal" fill-opacity="1" fill="#000000" font-family="'OCRA'" font-size="5" id="silkscreenLabel" font-style="normal" stroke="none">
    <text x="0" y="3.75">LV</text>
   </g>
  </g>
 </g>
 <g id="partLabel" partID="854144470">
  <g transform="translate(58.1666,131.837)">
   <g font-weight="normal" fill-opacity="1" fill="#000000" font-family="'OCRA'" font-size="5" id="silkscreenLabel" font-style="normal" stroke="none">
    <text x="0" y="3.75">RLver</text>
   </g>
  </g>
 </g>
 <g id="partLabel" partID="854220260">
  <g transform="translate(228.89,30.3066)">
   <g font-weight="normal" fill-opacity="1" fill="#000000" font-family="'OCRA'" font-size="5" id="silkscreenLabel" font-style="normal" stroke="none">
    <text x="0" y="3.75">R220&#x3a9;</text>
   </g>
  </g>
 </g>
 <g id="partLabel" partID="854217480">
  <g transform="translate(228.89,44.7066)">
   <g font-weight="normal" fill-opacity="1" fill="#000000" font-family="'OCRA'" font-size="5" id="silkscreenLabel" font-style="normal" stroke="none">
    <text x="0" y="3.75">R68&#x3a9;</text>
   </g>
  </g>
 </g>
 <g id="partLabel" partID="854216190">
  <g transform="translate(228.555,127.445)">
   <g font-weight="normal" fill-opacity="1" fill="#000000" font-family="'OCRA'" font-size="5" id="silkscreenLabel" font-style="normal" stroke="none">
    <text x="0" y="3.75">LM317</text>
   </g>
  </g>
 </g>
 <g id="partLabel" partID="854103930">
  <g transform="translate(50.9666,45.4373)">
   <g font-weight="normal" fill-opacity="1" fill="#000000" font-family="'OCRA'" font-size="5" id="silkscreenLabel" font-style="normal" stroke="none">
    <text x="0" y="3.75">R100&#x3a9;</text>
   </g>
  </g>
 </g>
 <g id="partLabel" partID="854137860">
  <g transform="translate(50.9666,124.637)">
   <g font-weight="normal" fill-opacity="1" fill="#000000" font-family="'OCRA'" font-size="5" id="silkscreenLabel" font-style="normal" stroke="none">
    <text x="0" y="3.75">R100&#x3a9;</text>
   </g>
  </g>
 </g>
 <g partID="854216192">
  <g transform="translate(199.179,133.045)">
   <g id="copper1">
    <circle cx="7.488" stroke-width="1.96668" connectorname="ADJ" cy="7.488" r="2.04066" fill="white" id="connector0pad" stroke="white"/>
    <path stroke-width="0.72" fill="white" d="m4.824,4.824,5.328,0,0,5.328,-5.328,0,0,-5.328zM6.07068,7.488a1.41732,1.41732,0,1,0,2.83465,0,1.41732,1.41732,0,1,0,-2.83465,0z" stroke="white"/>
    <circle cx="14.688" stroke-width="1.96668" connectorname="OUT" cy="7.488" r="2.04066" fill="white" id="connector2pad" stroke="white"/>
    <circle cx="21.888" stroke-width="1.96668" connectorname="IN" cy="7.488" r="2.04066" fill="white" id="connector1pad" stroke="white"/>
    <g id="copper0">
     <circle cx="7.488" stroke-width="1.96668" connectorname="ADJ" cy="7.488" r="2.04066" fill="white" id="connector0pad" stroke="white"/>
     <path stroke-width="0.72" fill="white" d="m4.824,4.824,5.328,0,0,5.328,-5.328,0,0,-5.328zM6.07068,7.488a1.41732,1.41732,0,1,0,2.83465,0,1.41732,1.41732,0,1,0,-2.83465,0z" stroke="white"/>
     <circle cx="14.688" stroke-width="1.96668" connectorname="OUT" cy="7.488" r="2.04066" fill="white" id="connector2pad" stroke="white"/>
     <circle cx="21.888" stroke-width="1.96668" connectorname="IN" cy="7.488" r="2.04066" fill="white" id="connector1pad" stroke="white"/>
    </g>
   </g>
  </g>
 </g>
 <g partID="854217480">
  <g transform="translate(211.315,50.3066)">
   <g id="copper1">
    <rect width="5.10235" stroke-width="0.72" connectorname="1" height="7.65353" fill="white" stroke-linecap="round" id="connector0pad" x="0" y="0" stroke="white"/>
    <rect width="5.10235" stroke-width="0.72" connectorname="2" height="7.65353" fill="white" stroke-linecap="round" id="connector1pad" x="12.4724" y="0" stroke="white"/>
    <g id="copper0"/>
   </g>
  </g>
 </g>
 <g partID="854220260">
  <g transform="translate(211.315,35.9066)">
   <g id="copper1">
    <rect width="5.10235" stroke-width="0.72" connectorname="1" height="7.65353" fill="white" stroke-linecap="round" id="connector0pad" x="0" y="0" stroke="white"/>
    <rect width="5.10235" stroke-width="0.72" connectorname="2" height="7.65353" fill="white" stroke-linecap="round" id="connector1pad" x="12.4724" y="0" stroke="white"/>
    <g id="copper0"/>
   </g>
  </g>
 </g>
 <g partID="854137122">
  <g transform="translate(142.62,81.7309)">
   <g id="copper1">
    <g id="copper0">
     <circle cx="20.8462" stroke-width="2.16" cy="15.6024" fill="white" r="1.98" id="connector0pad" stroke="white"/>
     <circle cx="2.42064" stroke-width="2.16" cy="15.6024" fill="white" r="1.98" id="connector1pad" stroke="white"/>
     <circle cx="20.8462" stroke-width="2.16" cy="2.84616" fill="white" r="1.98" id="connector2pad" stroke="white"/>
     <circle cx="2.42064" stroke-width="2.16" cy="2.84616" fill="white" r="1.98" id="connector3pad" stroke="white"/>
    </g>
   </g>
  </g>
 </g>
 <g partID="854137862">
  <g transform="translate(16.7666,130.237)">
   <g id="copper1">
    <!-- <rect width="55" x="10" y="15.5" fill="none" height="55" stroke="rgb(255, 191, 0)" stroke-width="20" />  -->
    <circle cx="2.7" stroke-width="2.16" cy="3.096" fill="white" r="1.98" id="connector0pin" stroke="white"/>
    <circle cx="31.5" stroke-width="2.16" cy="3.096" fill="white" r="1.98" id="connector1pin" stroke="white"/>
   </g>
  </g>
 </g>
 <g partID="854143532">
  <g transform="translate(118.679,86.5869)">
   <g id="copper1">
    <circle stroke-width="1.85384" cx="8.7872" cy="10.6336" fill="white" r="1.7008" id="connector1pad" stroke="white"/>
    <rect stroke-width="1.85384" width="3.4016" height="3.4016" fill="white" x="7.0864" y="8.9328" stroke="white"/>
    <circle stroke-width="1.85384" cx="8.7872" cy="3.5464" fill="white" r="1.7008" id="connector0pad" stroke="white"/>
   </g>
  </g>
 </g>
 <g partID="854144472">
  <g transform="translate(23.9666,137.437)">
   <g id="copper1">
    <!-- <rect width="55" x="10" y="15.5" fill="none" height="55" stroke="rgb(255, 191, 0)" stroke-width="20" />  -->
    <circle cx="2.7" stroke-width="2.16" cy="3.096" fill="white" r="1.98" id="connector0pin" stroke="white"/>
    <circle cx="31.5" stroke-width="2.16" cy="3.096" fill="white" r="1.98" id="connector1pin" stroke="white"/>
   </g>
  </g>
 </g>
 <g partID="854144832">
  <g transform="translate(97.0786,86.5869)">
   <g id="copper1">
    <circle cx="8.7876" stroke-width="1.85384" cy="10.6336" fill="white" r="1.7008" id="connector1pad" stroke="white"/>
    <rect stroke-width="1.85384" width="3.4016" height="3.4016" fill="white" x="7.0868" y="8.9328" stroke="white"/>
    <circle cx="8.7876" stroke-width="1.85384" cy="3.5464" fill="white" r="1.7008" id="connector0pad" stroke="white"/>
   </g>
  </g>
 </g>
 <g partID="854145572">
  <g transform="translate(88.7666,123.037)">
   <g id="copper1">
    <!-- <rect width="55" x="10" y="15.5" fill="none" height="55" stroke="rgb(255, 191, 0)" stroke-width="20" />  -->
    <circle cx="2.7" stroke-width="2.16" cy="3.096" fill="white" r="1.98" id="connector0pin" stroke="white"/>
    <circle cx="31.5" stroke-width="2.16" cy="3.096" fill="white" r="1.98" id="connector1pin" stroke="white"/>
   </g>
  </g>
 </g>
 <g partID="854148622">
  <g transform="translate(100.827,13.0933)">
   <g id="copper1">
    <g id="copper0">
     <rect width="4.176" stroke-width="2.16" height="4.176" fill="white" id="square" x="2.952" y="2.952" stroke="white"/>
     <circle cx="5.04" stroke-width="2.16" cy="5.04" fill="white" r="2.088" id="connector0pin" stroke="white"/>
     <circle cx="5.04" stroke-width="2.16" cy="12.24" fill="white" r="2.088" id="connector1pin" stroke="white"/>
    </g>
   </g>
  </g>
 </g>
 <g partID="63612">
  <g transform="translate(44.8466,79.1533)">
   <g transform="matrix(0,1,-1,0,0,0)">
    <g id="copper1">
     <circle cx="3.78" stroke-width="1.44" connectorname="P$1" cy="3.78" r="1.77732" fill="white" id="connector0pad" stroke="white"/>
     <path stroke-width="0.72" fill="white" d="m1.64268,1.64268,4.27465,0,0,4.27465,-4.27465,0,0,-4.27465zM2.36268,3.78a1.41732,1.41732,0,1,0,2.83465,0,1.41732,1.41732,0,1,0,-2.83465,0z" stroke="white"/>
     <circle cx="25.38" stroke-width="1.44" connectorname="P$2" cy="3.78" r="1.77732" fill="white" id="connector1pad" stroke="white"/>
     <path stroke-width="0.72" fill="white" d="m23.2427,1.64268,4.27465,0,0,4.27465,-4.27465,0,0,-4.27465zM23.9627,3.78a1.41732,1.41732,0,1,0,2.83465,0,1.41732,1.41732,0,1,0,-2.83465,0z" stroke="white"/>
     <circle cx="3.78" stroke-width="1.44" connectorname="P$3" cy="18.18" r="1.77732" fill="white" id="connector2pad" stroke="white"/>
     <path stroke-width="0.72" fill="white" d="m1.64268,16.0427,4.27465,0,0,4.27465,-4.27465,0,0,-4.27465zM2.36268,18.18a1.41732,1.41732,0,1,0,2.83465,0,1.41732,1.41732,0,1,0,-2.83465,0z" stroke="white"/>
     <circle cx="25.38" stroke-width="1.44" connectorname="P$4" cy="18.18" r="1.77732" fill="white" id="connector3pad" stroke="white"/>
     <path stroke-width="0.72" fill="white" d="m23.2427,16.0427,4.27465,0,0,4.27465,-4.27465,0,0,-4.27465zM23.9627,18.18a1.41732,1.41732,0,1,0,2.83465,0,1.41732,1.41732,0,1,0,-2.83465,0z" stroke="white"/>
     <g id="copper0">
      <circle cx="3.78" stroke-width="1.44" connectorname="P$1" cy="3.78" r="1.77732" fill="white" id="connector0pad" stroke="white"/>
      <path stroke-width="0.72" fill="white" d="m1.64268,1.64268,4.27465,0,0,4.27465,-4.27465,0,0,-4.27465zM2.36268,3.78a1.41732,1.41732,0,1,0,2.83465,0,1.41732,1.41732,0,1,0,-2.83465,0z" stroke="white"/>
      <circle cx="25.38" stroke-width="1.44" connectorname="P$2" cy="3.78" r="1.77732" fill="white" id="connector1pad" stroke="white"/>
      <path stroke-width="0.72" fill="white" d="m23.2427,1.64268,4.27465,0,0,4.27465,-4.27465,0,0,-4.27465zM23.9627,3.78a1.41732,1.41732,0,1,0,2.83465,0,1.41732,1.41732,0,1,0,-2.83465,0z" stroke="white"/>
      <circle cx="3.78" stroke-width="1.44" connectorname="P$3" cy="18.18" r="1.77732" fill="white" id="connector2pad" stroke="white"/>
      <path stroke-width="0.72" fill="white" d="m1.64268,16.0427,4.27465,0,0,4.27465,-4.27465,0,0,-4.27465zM2.36268,18.18a1.41732,1.41732,0,1,0,2.83465,0,1.41732,1.41732,0,1,0,-2.83465,0z" stroke="white"/>
      <circle cx="25.38" stroke-width="1.44" connectorname="P$4" cy="18.18" r="1.77732" fill="white" id="connector3pad" stroke="white"/>
      <path stroke-width="0.72" fill="white" d="m23.2427,16.0427,4.27465,0,0,4.27465,-4.27465,0,0,-4.27465zM23.9627,18.18a1.41732,1.41732,0,1,0,2.83465,0,1.41732,1.41732,0,1,0,-2.83465,0z" stroke="white"/>
     </g>
    </g>
   </g>
  </g>
 </g>
 <g partID="854103902">
  <g transform="translate(202.707,82.5733)">
   <g id="copper1">
    <g id="copper0">
     <rect width="3.96" stroke-width="2.16" height="3.96" fill="white" x="1.98" id="rect11" y="5.58" stroke="white"/>
     <circle cx="3.96" stroke-width="2.16" cy="7.56" r="1.98" fill="white" id="connector0pin" stroke="white"/>
     <circle cx="11.16" stroke-width="2.16" cy="7.56" r="1.98" fill="white" id="connector1pin" stroke="white"/>
    </g>
   </g>
  </g>
 </g>
 <g partID="854103932">
  <g transform="translate(16.7666,51.0373)">
   <g id="copper1">
    <!-- <rect width="55" x="10" y="15.5" fill="none" height="55" stroke="rgb(255, 191, 0)" stroke-width="20" />  -->
    <circle cx="2.7" stroke-width="2.16" cy="3.096" fill="white" r="1.98" id="connector0pin" stroke="white"/>
    <circle cx="31.5" stroke-width="2.16" cy="3.096" fill="white" r="1.98" id="connector1pin" stroke="white"/>
   </g>
  </g>
 </g>
 <g partID="854104832">
  <g transform="translate(71.069,83.6872)">
   <g transform="matrix(0,1,-1,0,0,0)">
    <g id="copper1">
     <g id="copper0">
      <circle cx="20.8462" stroke-width="2.16" cy="15.6024" fill="white" r="1.98" id="connector0pad" stroke="white"/>
      <circle cx="2.42064" stroke-width="2.16" cy="15.6024" fill="white" r="1.98" id="connector1pad" stroke="white"/>
      <circle cx="20.8462" stroke-width="2.16" cy="2.84616" fill="white" r="1.98" id="connector2pad" stroke="white"/>
      <circle cx="2.42064" stroke-width="2.16" cy="2.84616" fill="white" r="1.98" id="connector3pad" stroke="white"/>
     </g>
    </g>
   </g>
  </g>
 </g>
 <g partID="854105382">
  <g transform="translate(16.7666,58.2373)">
   <g id="copper1">
    <!-- <rect width="55" x="10" y="15.5" fill="none" height="55" stroke="rgb(255, 191, 0)" stroke-width="20" />  -->
    <circle cx="2.7" stroke-width="2.16" cy="3.096" fill="white" r="1.98" id="connector0pin" stroke="white"/>
    <circle cx="31.5" stroke-width="2.16" cy="3.096" fill="white" r="1.98" id="connector1pin" stroke="white"/>
   </g>
  </g>
 </g>
 <g partID="854106292">
  <g transform="translate(88.7666,137.437)">
   <g id="copper1">
    <!-- <rect width="55" x="10" y="15.5" fill="none" height="55" stroke="rgb(255, 191, 0)" stroke-width="20" />  -->
    <circle cx="2.7" stroke-width="2.16" cy="3.096" fill="white" r="1.98" id="connector0pin" stroke="white"/>
    <circle cx="31.5" stroke-width="2.16" cy="3.096" fill="white" r="1.98" id="connector1pin" stroke="white"/>
   </g>
  </g>
 </g>
 <g partID="854232512">
  <g transform="translate(24.5066,27.4933)">
   <g transform="matrix(0,1,-1,0,0,0)">
    <g id="copper1">
     <g id="copper0">
      <rect width="4.176" stroke-width="2.16" height="4.176" fill="white" id="square" x="2.952" y="2.952" stroke="white"/>
      <circle cx="5.04" stroke-width="2.16" cy="5.04" fill="white" r="2.088" id="connector0pin" stroke="white"/>
      <circle cx="5.04" stroke-width="2.16" cy="12.24" fill="white" r="2.088" id="connector1pin" stroke="white"/>
      <circle cx="5.04" stroke-width="2.16" cy="19.44" fill="white" r="2.088" id="connector2pin" stroke="white"/>
     </g>
    </g>
   </g>
  </g>
 </g>
 <g partID="854108022">
  <g transform="translate(88.7666,36.6373)">
   <g id="copper1">
    <!-- <rect width="55" x="10" y="15.5" fill="none" height="55" stroke="rgb(255, 191, 0)" stroke-width="20" />  -->
    <circle cx="2.7" stroke-width="2.16" cy="3.096" fill="white" r="1.98" id="connector0pin" stroke="white"/>
    <circle cx="31.5" stroke-width="2.16" cy="3.096" fill="white" r="1.98" id="connector1pin" stroke="white"/>
   </g>
  </g>
 </g>
 <g partID="854109672">
  <g transform="translate(210.267,21.7333)">
   <g transform="matrix(0,1,-1,0,0,0)">
    <g gorn="0.3" id="copper1">
     <g gorn="0.3.0" id="copper0">
      <rect width="3.6" stroke-width="2.16" gorn="0.3.0.0" height="3.6" fill="white" x="37.8" id="square" y="52.2" stroke="white"/>
      <rect width="3.6" stroke-width="2.16" gorn="0.3.0.1" height="3.6" fill="white" x="37.8" id="square" y="9" stroke="white"/>
      <circle cx="3.6" stroke-width="2.16" gorn="0.3.0.2" cy="3.6" fill="white" r="1.8" id="connector0pad" stroke="white"/>
      <circle cx="39.6" stroke-width="2.16" gorn="0.3.0.3" cy="3.6" fill="white" r="1.8" id="connector15pad" stroke="white"/>
      <circle cx="3.6" stroke-width="2.16" gorn="0.3.0.4" cy="10.8" fill="white" r="1.8" id="connector1pad" stroke="white"/>
      <circle cx="39.6" stroke-width="2.16" gorn="0.3.0.5" cy="10.8" fill="white" r="1.8" id="connector14pad" stroke="white"/>
      <circle cx="3.6" stroke-width="2.16" gorn="0.3.0.6" cy="18" fill="white" r="1.8" id="connector2pad" stroke="white"/>
      <circle cx="39.6" stroke-width="2.16" gorn="0.3.0.7" cy="18" fill="white" r="1.8" id="connector13pad" stroke="white"/>
      <circle cx="3.6" stroke-width="2.16" gorn="0.3.0.8" cy="25.2" fill="white" r="1.8" id="connector3pad" stroke="white"/>
      <circle cx="39.6" stroke-width="2.16" gorn="0.3.0.9" cy="25.2" fill="white" r="1.8" id="connector12pad" stroke="white"/>
      <circle cx="3.6" stroke-width="2.16" gorn="0.3.0.10" cy="32.4" fill="white" r="1.8" id="connector4pad" stroke="white"/>
      <circle cx="39.6" stroke-width="2.16" gorn="0.3.0.11" cy="32.4" fill="white" r="1.8" id="connector11pad" stroke="white"/>
      <circle cx="3.6" stroke-width="2.16" gorn="0.3.0.12" cy="39.6" fill="white" r="1.8" id="connector5pad" stroke="white"/>
      <circle cx="39.6" stroke-width="2.16" gorn="0.3.0.13" cy="39.6" fill="white" r="1.8" id="connector10pad" stroke="white"/>
      <circle cx="3.6" stroke-width="2.16" gorn="0.3.0.14" cy="46.8" fill="white" r="1.8" id="connector6pad" stroke="white"/>
      <circle cx="39.6" stroke-width="2.16" gorn="0.3.0.15" cy="46.8" fill="white" r="1.8" id="connector9pad" stroke="white"/>
      <circle cx="3.6" stroke-width="2.16" gorn="0.3.0.16" cy="54" fill="white" r="1.8" id="connector7pad" stroke="white"/>
      <circle cx="39.6" stroke-width="2.16" gorn="0.3.0.17" cy="54" fill="white" r="1.8" id="connector8pad" stroke="white"/>
     </g>
    </g>
   </g>
  </g>
 </g>
 <g partID="854114622">
  <g transform="translate(204.507,121.093)">
   <g transform="matrix(0,1,-1,0,0,0)">
    <g id="copper1">
     <g id="copper0">
      <rect width="4.176" stroke-width="2.16" height="4.176" fill="white" id="square" x="2.952" y="2.952" stroke="white"/>
      <circle cx="5.04" stroke-width="2.16" cy="5.04" fill="white" r="2.088" id="connector0pin" stroke="white"/>
      <circle cx="5.04" stroke-width="2.16" cy="12.24" fill="white" r="2.088" id="connector1pin" stroke="white"/>
      <circle cx="5.04" stroke-width="2.16" cy="19.44" fill="white" r="2.088" id="connector2pin" stroke="white"/>
      <circle cx="5.04" stroke-width="2.16" cy="26.64" fill="white" r="2.088" id="connector3pin" stroke="white"/>
     </g>
    </g>
   </g>
  </g>
 </g>
</svg>
