<?xml version='1.0' encoding='UTF-8' standalone='no'?>
<!-- Created with Fritzing (http://www.fritzing.org/) -->
<svg xmlns="http://www.w3.org/2000/svg" width="3.33333in" height="2.22222in" baseProfile="tiny"  viewBox="0 0 240 160" xmlns:svg="http://www.w3.org/2000/svg" x="0in" y="0in" version="1.2">
 <g transform="matrix(-1, 0, 0, 1, 240, 0)">
  <g partID="57690">
   <g  id="board">
    <rect stroke-width="0.5" width="239.424" height="159.424" fill-opacity="0.5"  fill="none" id="boardoutline" x="0.288" y="0.288" stroke="black"/>
   </g>
  </g>
  <g partID="854216192">
   <g transform="translate(199.179,133.045)">
    <g  id="copper1">
     <g cx="7.488" stroke-width="1.24668" connectorname="ADJ" cy="7.488"  r="2.04066" fill="none" id="0" stroke="black"/>
     <g stroke-width="0"  fill="black" d="m4.824,4.824,5.328,0,0,5.328,-5.328,0,0,-5.328zM6.07068,7.488a1.41732,1.41732,0,1,0,2.83465,0,1.41732,1.41732,0,1,0,-2.83465,0z" id="1" stroke="none"/>
     <g cx="14.688" stroke-width="1.24668" connectorname="OUT" cy="7.488"  r="2.04066" fill="none" id="2" stroke="black"/>
     <g cx="21.888" stroke-width="1.24668" connectorname="IN" cy="7.488"  r="2.04066" fill="none" id="3" stroke="black"/>
     <g  id="copper0">
      <g cx="7.488" stroke-width="1.24668" connectorname="ADJ" cy="7.488"  r="2.04066" fill="none" id="4" stroke="black"/>
      <g stroke-width="0"  fill="black" d="m4.824,4.824,5.328,0,0,5.328,-5.328,0,0,-5.328zM6.07068,7.488a1.41732,1.41732,0,1,0,2.83465,0,1.41732,1.41732,0,1,0,-2.83465,0z" id="5" stroke="none"/>
      <g cx="14.688" stroke-width="1.24668" connectorname="OUT" cy="7.488"  r="2.04066" fill="none" id="6" stroke="black"/>
      <g cx="21.888" stroke-width="1.24668" connectorname="IN" cy="7.488"  r="2.04066" fill="none" id="7" stroke="black"/>
     </g>
    </g>
   </g>
  </g>
  <g partID="854217480">
   <g transform="translate(211.315,50.3066)">
    <g  id="copper1">
     <rect width="5.10235" stroke-width="0" connectorname="1" height="7.65353"  fill="black" stroke-linecap="round" id="8" x="0" y="0" stroke="none"/>
     <rect width="5.10235" stroke-width="0" connectorname="2" height="7.65353"  fill="black" stroke-linecap="round" id="9" x="12.4724" y="0" stroke="none"/>
     <g  id="10"/>
    </g>
   </g>
  </g>
  <g partID="854220260">
   <g transform="translate(211.315,35.9066)">
    <g  id="copper1">
     <rect width="5.10235" stroke-width="0" connectorname="1" height="7.65353"  fill="black" stroke-linecap="round" id="11" x="0" y="0" stroke="none"/>
     <rect width="5.10235" stroke-width="0" connectorname="2" height="7.65353"  fill="black" stroke-linecap="round" id="12" x="12.4724" y="0" stroke="none"/>
     <g  id="13"/>
    </g>
   </g>
  </g>
  <g partID="854137122">
   <g transform="translate(142.62,81.7309)">
    <g  id="copper1">
     <g  id="copper0">
      <g cx="20.8462" stroke-width="1.44" cy="15.6024"  fill="none" r="1.98" id="14" stroke="black"/>
      <g cx="2.42064" stroke-width="1.44" cy="15.6024"  fill="none" r="1.98" id="15" stroke="black"/>
      <g cx="20.8462" stroke-width="1.44" cy="2.84616"  fill="none" r="1.98" id="16" stroke="black"/>
      <g cx="2.42064" stroke-width="1.44" cy="2.84616"  fill="none" r="1.98" id="17" stroke="black"/>
     </g>
    </g>
   </g>
  </g>
  <g partID="854137862">
   <g transform="translate(16.7666,130.237)">
    <g  id="copper1">
     <!-- <rect width="55" x="10" y="15.5" fill="none" height="55" stroke="rgb(255, 191, 0)" stroke-width="20" />  -->
     <g cx="2.7" stroke-width="1.44" cy="3.096"  fill="none" r="1.98" id="18" stroke="black"/>
     <g cx="31.5" stroke-width="1.44" cy="3.096"  fill="none" r="1.98" id="19" stroke="black"/>
    </g>
   </g>
  </g>
  <g partID="854143532">
   <g transform="translate(118.679,86.5869)">
    <g  id="copper1">
     <g stroke-width="1.13384" cx="8.7872" cy="10.6336"  fill="none" r="1.7008" id="20" stroke="black"/>
     <g stroke-width="1.13384" width="3.4016" height="3.4016"  fill="none" x="7.0864" id="21" y="8.9328" stroke="black"/>
     <g stroke-width="1.13384" cx="8.7872" cy="3.5464"  fill="none" r="1.7008" id="22" stroke="black"/>
    </g>
   </g>
  </g>
  <g partID="854144472">
   <g transform="translate(23.9666,137.437)">
    <g  id="copper1">
     <!-- <rect width="55" x="10" y="15.5" fill="none" height="55" stroke="rgb(255, 191, 0)" stroke-width="20" />  -->
     <g cx="2.7" stroke-width="1.44" cy="3.096"  fill="none" r="1.98" id="23" stroke="black"/>
     <g cx="31.5" stroke-width="1.44" cy="3.096"  fill="none" r="1.98" id="24" stroke="black"/>
    </g>
   </g>
  </g>
  <g partID="854144832">
   <g transform="translate(97.0786,86.5869)">
    <g  id="copper1">
     <g cx="8.7876" stroke-width="1.13384" cy="10.6336"  fill="none" r="1.7008" id="25" stroke="black"/>
     <g stroke-width="1.13384" width="3.4016" height="3.4016"  fill="none" x="7.0868" id="26" y="8.9328" stroke="black"/>
     <g cx="8.7876" stroke-width="1.13384" cy="3.5464"  fill="none" r="1.7008" id="27" stroke="black"/>
    </g>
   </g>
  </g>
  <g partID="854145572">
   <g transform="translate(88.7666,123.037)">
    <g  id="copper1">
     <!-- <rect width="55" x="10" y="15.5" fill="none" height="55" stroke="rgb(255, 191, 0)" stroke-width="20" />  -->
     <g cx="2.7" stroke-width="1.44" cy="3.096"  fill="none" r="1.98" id="28" stroke="black"/>
     <g cx="31.5" stroke-width="1.44" cy="3.096"  fill="none" r="1.98" id="29" stroke="black"/>
    </g>
   </g>
  </g>
  <g partID="854148622">
   <g transform="translate(100.827,13.0933)">
    <g  id="copper1">
     <g  id="copper0">
      <g width="4.176" stroke-width="1.44" height="4.176"  fill="none" id="30" x="2.952" y="2.952" stroke="black"/>
      <g cx="5.04" stroke-width="1.44" cy="5.04"  fill="none" r="2.088" id="31" stroke="black"/>
      <g cx="5.04" stroke-width="1.44" cy="12.24"  fill="none" r="2.088" id="32" stroke="black"/>
     </g>
    </g>
   </g>
  </g>
  <g partID="63612">
   <g transform="translate(44.8466,79.1533)">
    <g transform="matrix(0,1,-1,0,0,0)">
     <g  id="copper1">
      <g cx="3.78" stroke-width="0.72" connectorname="P$1" cy="3.78"  r="1.77732" fill="none" id="33" stroke="black"/>
      <g stroke-width="0"  fill="black" d="m1.64268,1.64268,4.27465,0,0,4.27465,-4.27465,0,0,-4.27465zM2.36268,3.78a1.41732,1.41732,0,1,0,2.83465,0,1.41732,1.41732,0,1,0,-2.83465,0z" id="34" stroke="none"/>
      <g cx="25.38" stroke-width="0.72" connectorname="P$2" cy="3.78"  r="1.77732" fill="none" id="35" stroke="black"/>
      <g stroke-width="0"  fill="black" d="m23.2427,1.64268,4.27465,0,0,4.27465,-4.27465,0,0,-4.27465zM23.9627,3.78a1.41732,1.41732,0,1,0,2.83465,0,1.41732,1.41732,0,1,0,-2.83465,0z" id="36" stroke="none"/>
      <g cx="3.78" stroke-width="0.72" connectorname="P$3" cy="18.18"  r="1.77732" fill="none" id="37" stroke="black"/>
      <g stroke-width="0"  fill="black" d="m1.64268,16.0427,4.27465,0,0,4.27465,-4.27465,0,0,-4.27465zM2.36268,18.18a1.41732,1.41732,0,1,0,2.83465,0,1.41732,1.41732,0,1,0,-2.83465,0z" id="38" stroke="none"/>
      <g cx="25.38" stroke-width="0.72" connectorname="P$4" cy="18.18"  r="1.77732" fill="none" id="39" stroke="black"/>
      <g stroke-width="0"  fill="black" d="m23.2427,16.0427,4.27465,0,0,4.27465,-4.27465,0,0,-4.27465zM23.9627,18.18a1.41732,1.41732,0,1,0,2.83465,0,1.41732,1.41732,0,1,0,-2.83465,0z" id="40" stroke="none"/>
      <g  id="copper0">
       <g cx="3.78" stroke-width="0.72" connectorname="P$1" cy="3.78"  r="1.77732" fill="none" id="41" stroke="black"/>
       <g stroke-width="0"  fill="black" d="m1.64268,1.64268,4.27465,0,0,4.27465,-4.27465,0,0,-4.27465zM2.36268,3.78a1.41732,1.41732,0,1,0,2.83465,0,1.41732,1.41732,0,1,0,-2.83465,0z" id="42" stroke="none"/>
       <g cx="25.38" stroke-width="0.72" connectorname="P$2" cy="3.78"  r="1.77732" fill="none" id="43" stroke="black"/>
       <g stroke-width="0"  fill="black" d="m23.2427,1.64268,4.27465,0,0,4.27465,-4.27465,0,0,-4.27465zM23.9627,3.78a1.41732,1.41732,0,1,0,2.83465,0,1.41732,1.41732,0,1,0,-2.83465,0z" id="44" stroke="none"/>
       <g cx="3.78" stroke-width="0.72" connectorname="P$3" cy="18.18"  r="1.77732" fill="none" id="45" stroke="black"/>
       <g stroke-width="0"  fill="black" d="m1.64268,16.0427,4.27465,0,0,4.27465,-4.27465,0,0,-4.27465zM2.36268,18.18a1.41732,1.41732,0,1,0,2.83465,0,1.41732,1.41732,0,1,0,-2.83465,0z" id="46" stroke="none"/>
       <g cx="25.38" stroke-width="0.72" connectorname="P$4" cy="18.18"  r="1.77732" fill="none" id="47" stroke="black"/>
       <g stroke-width="0"  fill="black" d="m23.2427,16.0427,4.27465,0,0,4.27465,-4.27465,0,0,-4.27465zM23.9627,18.18a1.41732,1.41732,0,1,0,2.83465,0,1.41732,1.41732,0,1,0,-2.83465,0z" id="48" stroke="none"/>
      </g>
     </g>
    </g>
   </g>
  </g>
  <g partID="854103902">
   <g transform="translate(202.707,82.5733)">
    <g  id="copper1">
     <g  id="copper0">
      <g width="3.96" stroke-width="1.44" height="3.96"  fill="none" x="1.98" id="49" y="5.58" stroke="black"/>
      <g cx="3.96" stroke-width="1.44" cy="7.56"  r="1.98" fill="none" id="50" stroke="black"/>
      <g cx="11.16" stroke-width="1.44" cy="7.56"  r="1.98" fill="none" id="51" stroke="black"/>
     </g>
    </g>
   </g>
  </g>
  <g partID="854103932">
   <g transform="translate(16.7666,51.0373)">
    <g  id="copper1">
     <!-- <rect width="55" x="10" y="15.5" fill="none" height="55" stroke="rgb(255, 191, 0)" stroke-width="20" />  -->
     <g cx="2.7" stroke-width="1.44" cy="3.096"  fill="none" r="1.98" id="52" stroke="black"/>
     <g cx="31.5" stroke-width="1.44" cy="3.096"  fill="none" r="1.98" id="53" stroke="black"/>
    </g>
   </g>
  </g>
  <g partID="854104832">
   <g transform="translate(71.069,83.6872)">
    <g transform="matrix(0,1,-1,0,0,0)">
     <g  id="copper1">
      <g  id="copper0">
       <g cx="20.8462" stroke-width="1.44" cy="15.6024"  fill="none" r="1.98" id="54" stroke="black"/>
       <g cx="2.42064" stroke-width="1.44" cy="15.6024"  fill="none" r="1.98" id="55" stroke="black"/>
       <g cx="20.8462" stroke-width="1.44" cy="2.84616"  fill="none" r="1.98" id="56" stroke="black"/>
       <g cx="2.42064" stroke-width="1.44" cy="2.84616"  fill="none" r="1.98" id="57" stroke="black"/>
      </g>
     </g>
    </g>
   </g>
  </g>
  <g partID="854105382">
   <g transform="translate(16.7666,58.2373)">
    <g  id="copper1">
     <!-- <rect width="55" x="10" y="15.5" fill="none" height="55" stroke="rgb(255, 191, 0)" stroke-width="20" />  -->
     <g cx="2.7" stroke-width="1.44" cy="3.096"  fill="none" r="1.98" id="58" stroke="black"/>
     <g cx="31.5" stroke-width="1.44" cy="3.096"  fill="none" r="1.98" id="59" stroke="black"/>
    </g>
   </g>
  </g>
  <g partID="854106292">
   <g transform="translate(88.7666,137.437)">
    <g  id="copper1">
     <!-- <rect width="55" x="10" y="15.5" fill="none" height="55" stroke="rgb(255, 191, 0)" stroke-width="20" />  -->
     <g cx="2.7" stroke-width="1.44" cy="3.096"  fill="none" r="1.98" id="60" stroke="black"/>
     <g cx="31.5" stroke-width="1.44" cy="3.096"  fill="none" r="1.98" id="61" stroke="black"/>
    </g>
   </g>
  </g>
  <g partID="854232512">
   <g transform="translate(24.5066,27.4933)">
    <g transform="matrix(0,1,-1,0,0,0)">
     <g  id="copper1">
      <g  id="copper0">
       <g width="4.176" stroke-width="1.44" height="4.176"  fill="none" id="62" x="2.952" y="2.952" stroke="black"/>
       <g cx="5.04" stroke-width="1.44" cy="5.04"  fill="none" r="2.088" id="63" stroke="black"/>
       <g cx="5.04" stroke-width="1.44" cy="12.24"  fill="none" r="2.088" id="64" stroke="black"/>
       <g cx="5.04" stroke-width="1.44" cy="19.44"  fill="none" r="2.088" id="65" stroke="black"/>
      </g>
     </g>
    </g>
   </g>
  </g>
  <g partID="854108022">
   <g transform="translate(88.7666,36.6373)">
    <g  id="copper1">
     <!-- <rect width="55" x="10" y="15.5" fill="none" height="55" stroke="rgb(255, 191, 0)" stroke-width="20" />  -->
     <g cx="2.7" stroke-width="1.44" cy="3.096"  fill="none" r="1.98" id="66" stroke="black"/>
     <g cx="31.5" stroke-width="1.44" cy="3.096"  fill="none" r="1.98" id="67" stroke="black"/>
    </g>
   </g>
  </g>
  <g partID="854109672">
   <g transform="translate(210.267,21.7333)">
    <g transform="matrix(0,1,-1,0,0,0)">
     <g gorn="0.3"  id="copper1">
      <g gorn="0.3.0"  id="copper0">
       <g width="3.6" stroke-width="1.44" gorn="0.3.0.0" height="3.6"  fill="none" x="37.8" id="68" y="52.2" stroke="black"/>
       <g width="3.6" stroke-width="1.44" gorn="0.3.0.1" height="3.6"  fill="none" x="37.8" id="69" y="9" stroke="black"/>
       <g cx="3.6" stroke-width="1.44" gorn="0.3.0.2" cy="3.6"  fill="none" r="1.8" id="70" stroke="black"/>
       <g cx="39.6" stroke-width="1.44" gorn="0.3.0.3" cy="3.6"  fill="none" r="1.8" id="71" stroke="black"/>
       <g cx="3.6" stroke-width="1.44" gorn="0.3.0.4" cy="10.8"  fill="none" r="1.8" id="72" stroke="black"/>
       <g cx="39.6" stroke-width="1.44" gorn="0.3.0.5" cy="10.8"  fill="none" r="1.8" id="73" stroke="black"/>
       <g cx="3.6" stroke-width="1.44" gorn="0.3.0.6" cy="18"  fill="none" r="1.8" id="74" stroke="black"/>
       <g cx="39.6" stroke-width="1.44" gorn="0.3.0.7" cy="18"  fill="none" r="1.8" id="75" stroke="black"/>
       <g cx="3.6" stroke-width="1.44" gorn="0.3.0.8" cy="25.2"  fill="none" r="1.8" id="76" stroke="black"/>
       <g cx="39.6" stroke-width="1.44" gorn="0.3.0.9" cy="25.2"  fill="none" r="1.8" id="77" stroke="black"/>
       <g cx="3.6" stroke-width="1.44" gorn="0.3.0.10" cy="32.4"  fill="none" r="1.8" id="78" stroke="black"/>
       <g cx="39.6" stroke-width="1.44" gorn="0.3.0.11" cy="32.4"  fill="none" r="1.8" id="79" stroke="black"/>
       <g cx="3.6" stroke-width="1.44" gorn="0.3.0.12" cy="39.6"  fill="none" r="1.8" id="80" stroke="black"/>
       <g cx="39.6" stroke-width="1.44" gorn="0.3.0.13" cy="39.6"  fill="none" r="1.8" id="81" stroke="black"/>
       <g cx="3.6" stroke-width="1.44" gorn="0.3.0.14" cy="46.8"  fill="none" r="1.8" id="82" stroke="black"/>
       <g cx="39.6" stroke-width="1.44" gorn="0.3.0.15" cy="46.8"  fill="none" r="1.8" id="83" stroke="black"/>
       <g cx="3.6" stroke-width="1.44" gorn="0.3.0.16" cy="54"  fill="none" r="1.8" id="84" stroke="black"/>
       <g cx="39.6" stroke-width="1.44" gorn="0.3.0.17" cy="54"  fill="none" r="1.8" id="85" stroke="black"/>
      </g>
     </g>
    </g>
   </g>
  </g>
  <g partID="854114622">
   <g transform="translate(204.507,121.093)">
    <g transform="matrix(0,1,-1,0,0,0)">
     <g  id="copper1">
      <g  id="copper0">
       <g width="4.176" stroke-width="1.44" height="4.176"  fill="none" id="86" x="2.952" y="2.952" stroke="black"/>
       <g cx="5.04" stroke-width="1.44" cy="5.04"  fill="none" r="2.088" id="87" stroke="black"/>
       <g cx="5.04" stroke-width="1.44" cy="12.24"  fill="none" r="2.088" id="88" stroke="black"/>
       <g cx="5.04" stroke-width="1.44" cy="19.44"  fill="none" r="2.088" id="89" stroke="black"/>
       <g cx="5.04" stroke-width="1.44" cy="26.64"  fill="none" r="2.088" id="90" stroke="black"/>
      </g>
     </g>
    </g>
   </g>
  </g>
 </g>
</svg>
