<?xml version='1.0' encoding='UTF-8' standalone='no'?>
<!-- Created with Fritzing (http://www.fritzing.org/) -->
<svg xmlns="http://www.w3.org/2000/svg" width="3.33333in" height="2.22222in" baseProfile="tiny"  viewBox="0 0 240 160" xmlns:svg="http://www.w3.org/2000/svg" x="0in" y="0in" version="1.2">
 <g transform="matrix(-1, 0, 0, 1, 240, 0)">
  <g partID="57690">
   <g  id="board">
    <rect stroke-width="0.5" width="239.424" height="159.424" fill-opacity="0.5"  fill="none" id="boardoutline" x="0.288" y="0.288" stroke="black"/>
   </g>
  </g>
  <g partID="854216190">
   <g transform="translate(199.179,133.045)">
    <g  id="copper0">
     <circle cx="7.488" stroke-width="1.96668" connectorname="ADJ" cy="7.488"  r="2.04066" fill="black" id="connector0pad" stroke="black"/>
     <path stroke-width="0.72"  fill="black" d="m4.824,4.824,5.328,0,0,5.328,-5.328,0,0,-5.328zM6.07068,7.488a1.41732,1.41732,0,1,0,2.83465,0,1.41732,1.41732,0,1,0,-2.83465,0z" stroke="black"/>
     <circle cx="14.688" stroke-width="1.96668" connectorname="OUT" cy="7.488"  r="2.04066" fill="black" id="connector2pad" stroke="black"/>
     <circle cx="21.888" stroke-width="1.96668" connectorname="IN" cy="7.488"  r="2.04066" fill="black" id="connector1pad" stroke="black"/>
    </g>
   </g>
  </g>
  <g partID="854137120">
   <g transform="translate(142.62,81.7309)">
    <g  id="copper0">
     <circle cx="20.8462" stroke-width="2.16" cy="15.6024"  fill="black" r="1.98" id="connector0pad" stroke="black"/>
     <circle cx="2.42064" stroke-width="2.16" cy="15.6024"  fill="black" r="1.98" id="connector1pad" stroke="black"/>
     <circle cx="20.8462" stroke-width="2.16" cy="2.84616"  fill="black" r="1.98" id="connector2pad" stroke="black"/>
     <circle cx="2.42064" stroke-width="2.16" cy="2.84616"  fill="black" r="1.98" id="connector3pad" stroke="black"/>
    </g>
   </g>
  </g>
  <g partID="854137860">
   <g transform="translate(16.7666,130.237)">
    <g  id="copper0">
     <g  id="copper1">
      <!-- <rect width="55" x="10" y="15.5" fill="none" height="55" stroke="rgb(255, 191, 0)" stroke-width="20" />  -->
      <circle cx="2.7" stroke-width="2.16" cy="3.096"  fill="black" r="1.98" id="connector0pin" stroke="black"/>
      <circle cx="31.5" stroke-width="2.16" cy="3.096"  fill="black" r="1.98" id="connector1pin" stroke="black"/>
     </g>
    </g>
   </g>
  </g>
  <g partID="854143530">
   <g transform="translate(118.679,86.5869)">
    <g  id="copper0">
     <g  id="copper1">
      <circle stroke-width="1.85384" cx="8.7872" cy="10.6336"  fill="black" r="1.7008" id="connector1pad" stroke="black"/>
      <rect stroke-width="1.85384" width="3.4016" height="3.4016"  fill="black" x="7.0864" y="8.9328" stroke="black"/>
      <circle stroke-width="1.85384" cx="8.7872" cy="3.5464"  fill="black" r="1.7008" id="connector0pad" stroke="black"/>
     </g>
    </g>
   </g>
  </g>
  <g partID="854144470">
   <g transform="translate(23.9666,137.437)">
    <g  id="copper0">
     <g  id="copper1">
      <!-- <rect width="55" x="10" y="15.5" fill="none" height="55" stroke="rgb(255, 191, 0)" stroke-width="20" />  -->
      <circle cx="2.7" stroke-width="2.16" cy="3.096"  fill="black" r="1.98" id="connector0pin" stroke="black"/>
      <circle cx="31.5" stroke-width="2.16" cy="3.096"  fill="black" r="1.98" id="connector1pin" stroke="black"/>
     </g>
    </g>
   </g>
  </g>
  <g partID="854144830">
   <g transform="translate(97.0786,86.5869)">
    <g  id="copper0">
     <g  id="copper1">
      <circle cx="8.7876" stroke-width="1.85384" cy="10.6336"  fill="black" r="1.7008" id="connector1pad" stroke="black"/>
      <rect stroke-width="1.85384" width="3.4016" height="3.4016"  fill="black" x="7.0868" y="8.9328" stroke="black"/>
      <circle cx="8.7876" stroke-width="1.85384" cy="3.5464"  fill="black" r="1.7008" id="connector0pad" stroke="black"/>
     </g>
    </g>
   </g>
  </g>
  <g partID="854145570">
   <g transform="translate(88.7666,123.037)">
    <g  id="copper0">
     <g  id="copper1">
      <!-- <rect width="55" x="10" y="15.5" fill="none" height="55" stroke="rgb(255, 191, 0)" stroke-width="20" />  -->
      <circle cx="2.7" stroke-width="2.16" cy="3.096"  fill="black" r="1.98" id="connector0pin" stroke="black"/>
      <circle cx="31.5" stroke-width="2.16" cy="3.096"  fill="black" r="1.98" id="connector1pin" stroke="black"/>
     </g>
    </g>
   </g>
  </g>
  <g partID="854148620">
   <g transform="translate(100.827,13.0933)">
    <g  id="copper0">
     <rect width="4.176" stroke-width="2.16" height="4.176"  fill="black" id="square" x="2.952" y="2.952" stroke="black"/>
     <circle cx="5.04" stroke-width="2.16" cy="5.04"  fill="black" r="2.088" id="connector0pin" stroke="black"/>
     <circle cx="5.04" stroke-width="2.16" cy="12.24"  fill="black" r="2.088" id="connector1pin" stroke="black"/>
    </g>
   </g>
  </g>
  <g partID="63610">
   <g transform="translate(44.8466,79.1533)">
    <g transform="matrix(0,1,-1,0,0,0)">
     <g  id="copper0">
      <circle cx="3.78" stroke-width="1.44" connectorname="P$1" cy="3.78"  r="1.77732" fill="black" id="connector0pad" stroke="black"/>
      <path stroke-width="0.72"  fill="black" d="m1.64268,1.64268,4.27465,0,0,4.27465,-4.27465,0,0,-4.27465zM2.36268,3.78a1.41732,1.41732,0,1,0,2.83465,0,1.41732,1.41732,0,1,0,-2.83465,0z" stroke="black"/>
      <circle cx="25.38" stroke-width="1.44" connectorname="P$2" cy="3.78"  r="1.77732" fill="black" id="connector1pad" stroke="black"/>
      <path stroke-width="0.72"  fill="black" d="m23.2427,1.64268,4.27465,0,0,4.27465,-4.27465,0,0,-4.27465zM23.9627,3.78a1.41732,1.41732,0,1,0,2.83465,0,1.41732,1.41732,0,1,0,-2.83465,0z" stroke="black"/>
      <circle cx="3.78" stroke-width="1.44" connectorname="P$3" cy="18.18"  r="1.77732" fill="black" id="connector2pad" stroke="black"/>
      <path stroke-width="0.72"  fill="black" d="m1.64268,16.0427,4.27465,0,0,4.27465,-4.27465,0,0,-4.27465zM2.36268,18.18a1.41732,1.41732,0,1,0,2.83465,0,1.41732,1.41732,0,1,0,-2.83465,0z" stroke="black"/>
      <circle cx="25.38" stroke-width="1.44" connectorname="P$4" cy="18.18"  r="1.77732" fill="black" id="connector3pad" stroke="black"/>
      <path stroke-width="0.72"  fill="black" d="m23.2427,16.0427,4.27465,0,0,4.27465,-4.27465,0,0,-4.27465zM23.9627,18.18a1.41732,1.41732,0,1,0,2.83465,0,1.41732,1.41732,0,1,0,-2.83465,0z" stroke="black"/>
     </g>
    </g>
   </g>
  </g>
  <g partID="854103900">
   <g transform="translate(202.707,82.5733)">
    <g  id="copper0">
     <rect width="3.96" stroke-width="2.16" height="3.96"  fill="black" x="1.98" id="rect11" y="5.58" stroke="black"/>
     <circle cx="3.96" stroke-width="2.16" cy="7.56"  r="1.98" fill="black" id="connector0pin" stroke="black"/>
     <circle cx="11.16" stroke-width="2.16" cy="7.56"  r="1.98" fill="black" id="connector1pin" stroke="black"/>
    </g>
   </g>
  </g>
  <g partID="854103930">
   <g transform="translate(16.7666,51.0373)">
    <g  id="copper0">
     <g  id="copper1">
      <!-- <rect width="55" x="10" y="15.5" fill="none" height="55" stroke="rgb(255, 191, 0)" stroke-width="20" />  -->
      <circle cx="2.7" stroke-width="2.16" cy="3.096"  fill="black" r="1.98" id="connector0pin" stroke="black"/>
      <circle cx="31.5" stroke-width="2.16" cy="3.096"  fill="black" r="1.98" id="connector1pin" stroke="black"/>
     </g>
    </g>
   </g>
  </g>
  <g partID="854104830">
   <g transform="translate(71.069,83.6872)">
    <g transform="matrix(0,1,-1,0,0,0)">
     <g  id="copper0">
      <circle cx="20.8462" stroke-width="2.16" cy="15.6024"  fill="black" r="1.98" id="connector0pad" stroke="black"/>
      <circle cx="2.42064" stroke-width="2.16" cy="15.6024"  fill="black" r="1.98" id="connector1pad" stroke="black"/>
      <circle cx="20.8462" stroke-width="2.16" cy="2.84616"  fill="black" r="1.98" id="connector2pad" stroke="black"/>
      <circle cx="2.42064" stroke-width="2.16" cy="2.84616"  fill="black" r="1.98" id="connector3pad" stroke="black"/>
     </g>
    </g>
   </g>
  </g>
  <g partID="854105380">
   <g transform="translate(16.7666,58.2373)">
    <g  id="copper0">
     <g  id="copper1">
      <!-- <rect width="55" x="10" y="15.5" fill="none" height="55" stroke="rgb(255, 191, 0)" stroke-width="20" />  -->
      <circle cx="2.7" stroke-width="2.16" cy="3.096"  fill="black" r="1.98" id="connector0pin" stroke="black"/>
      <circle cx="31.5" stroke-width="2.16" cy="3.096"  fill="black" r="1.98" id="connector1pin" stroke="black"/>
     </g>
    </g>
   </g>
  </g>
  <g partID="854106290">
   <g transform="translate(88.7666,137.437)">
    <g  id="copper0">
     <g  id="copper1">
      <!-- <rect width="55" x="10" y="15.5" fill="none" height="55" stroke="rgb(255, 191, 0)" stroke-width="20" />  -->
      <circle cx="2.7" stroke-width="2.16" cy="3.096"  fill="black" r="1.98" id="connector0pin" stroke="black"/>
      <circle cx="31.5" stroke-width="2.16" cy="3.096"  fill="black" r="1.98" id="connector1pin" stroke="black"/>
     </g>
    </g>
   </g>
  </g>
  <g partID="854232510">
   <g transform="translate(24.5066,27.4933)">
    <g transform="matrix(0,1,-1,0,0,0)">
     <g  id="copper0">
      <rect width="4.176" stroke-width="2.16" height="4.176"  fill="black" id="square" x="2.952" y="2.952" stroke="black"/>
      <circle cx="5.04" stroke-width="2.16" cy="5.04"  fill="black" r="2.088" id="connector0pin" stroke="black"/>
      <circle cx="5.04" stroke-width="2.16" cy="12.24"  fill="black" r="2.088" id="connector1pin" stroke="black"/>
      <circle cx="5.04" stroke-width="2.16" cy="19.44"  fill="black" r="2.088" id="connector2pin" stroke="black"/>
     </g>
    </g>
   </g>
  </g>
  <g partID="854108020">
   <g transform="translate(88.7666,36.6373)">
    <g  id="copper0">
     <g  id="copper1">
      <!-- <rect width="55" x="10" y="15.5" fill="none" height="55" stroke="rgb(255, 191, 0)" stroke-width="20" />  -->
      <circle cx="2.7" stroke-width="2.16" cy="3.096"  fill="black" r="1.98" id="connector0pin" stroke="black"/>
      <circle cx="31.5" stroke-width="2.16" cy="3.096"  fill="black" r="1.98" id="connector1pin" stroke="black"/>
     </g>
    </g>
   </g>
  </g>
  <g partID="854109670">
   <g transform="translate(210.267,21.7333)">
    <g transform="matrix(0,1,-1,0,0,0)">
     <g gorn="0.3.0"  id="copper0">
      <rect width="3.6" stroke-width="2.16" gorn="0.3.0.0" height="3.6"  fill="black" x="37.8" id="square" y="52.2" stroke="black"/>
      <rect width="3.6" stroke-width="2.16" gorn="0.3.0.1" height="3.6"  fill="black" x="37.8" id="square" y="9" stroke="black"/>
      <circle cx="3.6" stroke-width="2.16" gorn="0.3.0.2" cy="3.6"  fill="black" r="1.8" id="connector0pad" stroke="black"/>
      <circle cx="39.6" stroke-width="2.16" gorn="0.3.0.3" cy="3.6"  fill="black" r="1.8" id="connector15pad" stroke="black"/>
      <circle cx="3.6" stroke-width="2.16" gorn="0.3.0.4" cy="10.8"  fill="black" r="1.8" id="connector1pad" stroke="black"/>
      <circle cx="39.6" stroke-width="2.16" gorn="0.3.0.5" cy="10.8"  fill="black" r="1.8" id="connector14pad" stroke="black"/>
      <circle cx="3.6" stroke-width="2.16" gorn="0.3.0.6" cy="18"  fill="black" r="1.8" id="connector2pad" stroke="black"/>
      <circle cx="39.6" stroke-width="2.16" gorn="0.3.0.7" cy="18"  fill="black" r="1.8" id="connector13pad" stroke="black"/>
      <circle cx="3.6" stroke-width="2.16" gorn="0.3.0.8" cy="25.2"  fill="black" r="1.8" id="connector3pad" stroke="black"/>
      <circle cx="39.6" stroke-width="2.16" gorn="0.3.0.9" cy="25.2"  fill="black" r="1.8" id="connector12pad" stroke="black"/>
      <circle cx="3.6" stroke-width="2.16" gorn="0.3.0.10" cy="32.4"  fill="black" r="1.8" id="connector4pad" stroke="black"/>
      <circle cx="39.6" stroke-width="2.16" gorn="0.3.0.11" cy="32.4"  fill="black" r="1.8" id="connector11pad" stroke="black"/>
      <circle cx="3.6" stroke-width="2.16" gorn="0.3.0.12" cy="39.6"  fill="black" r="1.8" id="connector5pad" stroke="black"/>
      <circle cx="39.6" stroke-width="2.16" gorn="0.3.0.13" cy="39.6"  fill="black" r="1.8" id="connector10pad" stroke="black"/>
      <circle cx="3.6" stroke-width="2.16" gorn="0.3.0.14" cy="46.8"  fill="black" r="1.8" id="connector6pad" stroke="black"/>
      <circle cx="39.6" stroke-width="2.16" gorn="0.3.0.15" cy="46.8"  fill="black" r="1.8" id="connector9pad" stroke="black"/>
      <circle cx="3.6" stroke-width="2.16" gorn="0.3.0.16" cy="54"  fill="black" r="1.8" id="connector7pad" stroke="black"/>
      <circle cx="39.6" stroke-width="2.16" gorn="0.3.0.17" cy="54"  fill="black" r="1.8" id="connector8pad" stroke="black"/>
     </g>
    </g>
   </g>
  </g>
  <g partID="854114620">
   <g transform="translate(204.507,121.093)">
    <g transform="matrix(0,1,-1,0,0,0)">
     <g  id="copper0">
      <rect width="4.176" stroke-width="2.16" height="4.176"  fill="black" id="square" x="2.952" y="2.952" stroke="black"/>
      <circle cx="5.04" stroke-width="2.16" cy="5.04"  fill="black" r="2.088" id="connector0pin" stroke="black"/>
      <circle cx="5.04" stroke-width="2.16" cy="12.24"  fill="black" r="2.088" id="connector1pin" stroke="black"/>
      <circle cx="5.04" stroke-width="2.16" cy="19.44"  fill="black" r="2.088" id="connector2pin" stroke="black"/>
      <circle cx="5.04" stroke-width="2.16" cy="26.64"  fill="black" r="2.088" id="connector3pin" stroke="black"/>
     </g>
    </g>
   </g>
  </g>
 </g>
</svg>
