<?xml version='1.0' encoding='UTF-8' standalone='no'?>
<!-- Created with Fritzing (http://www.fritzing.org/) -->
<svg xmlns="http://www.w3.org/2000/svg" width="3.33333in" height="2.22222in" baseProfile="tiny"  viewBox="0 0 240 160" xmlns:svg="http://www.w3.org/2000/svg" x="0in" y="0in" version="1.2">
 <g transform="matrix(-1, 0, 0, 1, 240, 0)">
  <g partID="57690">
   <g  id="board">
    <rect stroke-width="0.5" width="239.424" height="159.424" fill-opacity="0.5"  fill="none" id="boardoutline" x="0.288" y="0.288" stroke="black"/>
   </g>
  </g>
  <g partID="854216192">
   <g transform="translate(199.179,133.045)">
    <g  id="copper1">
     <circle cx="7.488" stroke-width="1.24668" connectorname="ADJ" cy="7.488"  r="2.04066" fill="none" id="connector0pad" stroke="black"/>
     <path stroke-width="0"  fill="black" d="m4.824,4.824,5.328,0,0,5.328,-5.328,0,0,-5.328zM6.07068,7.488a1.41732,1.41732,0,1,0,2.83465,0,1.41732,1.41732,0,1,0,-2.83465,0z" stroke="none"/>
     <circle cx="14.688" stroke-width="1.24668" connectorname="OUT" cy="7.488"  r="2.04066" fill="none" id="connector2pad" stroke="black"/>
     <circle cx="21.888" stroke-width="1.24668" connectorname="IN" cy="7.488"  r="2.04066" fill="none" id="connector1pad" stroke="black"/>
     <g  id="copper0">
      <circle cx="7.488" stroke-width="1.24668" connectorname="ADJ" cy="7.488"  r="2.04066" fill="none" id="connector0pad" stroke="black"/>
      <path stroke-width="0"  fill="black" d="m4.824,4.824,5.328,0,0,5.328,-5.328,0,0,-5.328zM6.07068,7.488a1.41732,1.41732,0,1,0,2.83465,0,1.41732,1.41732,0,1,0,-2.83465,0z" stroke="none"/>
      <circle cx="14.688" stroke-width="1.24668" connectorname="OUT" cy="7.488"  r="2.04066" fill="none" id="connector2pad" stroke="black"/>
      <circle cx="21.888" stroke-width="1.24668" connectorname="IN" cy="7.488"  r="2.04066" fill="none" id="connector1pad" stroke="black"/>
     </g>
    </g>
   </g>
  </g>
  <g partID="854217480">
   <g transform="translate(211.315,50.3066)">
    <g  id="copper1">
     <rect width="5.10235" stroke-width="0" connectorname="1" height="7.65353"  fill="black" stroke-linecap="round" id="connector0pad" x="0" y="0" stroke="none"/>
     <rect width="5.10235" stroke-width="0" connectorname="2" height="7.65353"  fill="black" stroke-linecap="round" id="connector1pad" x="12.4724" y="0" stroke="none"/>
     <g  id="copper0"/>
    </g>
   </g>
  </g>
  <g partID="854220260">
   <g transform="translate(211.315,35.9066)">
    <g  id="copper1">
     <rect width="5.10235" stroke-width="0" connectorname="1" height="7.65353"  fill="black" stroke-linecap="round" id="connector0pad" x="0" y="0" stroke="none"/>
     <rect width="5.10235" stroke-width="0" connectorname="2" height="7.65353"  fill="black" stroke-linecap="round" id="connector1pad" x="12.4724" y="0" stroke="none"/>
     <g  id="copper0"/>
    </g>
   </g>
  </g>
  <g partID="854137122">
   <g transform="translate(142.62,81.7309)">
    <g  id="copper1">
     <g  id="copper0">
      <circle cx="20.8462" stroke-width="1.44" cy="15.6024"  fill="none" r="1.98" id="connector0pad" stroke="black"/>
      <circle cx="2.42064" stroke-width="1.44" cy="15.6024"  fill="none" r="1.98" id="connector1pad" stroke="black"/>
      <circle cx="20.8462" stroke-width="1.44" cy="2.84616"  fill="none" r="1.98" id="connector2pad" stroke="black"/>
      <circle cx="2.42064" stroke-width="1.44" cy="2.84616"  fill="none" r="1.98" id="connector3pad" stroke="black"/>
     </g>
    </g>
   </g>
  </g>
  <g partID="854137862">
   <g transform="translate(16.7666,130.237)">
    <g  id="copper1">
     <!-- <rect width="55" x="10" y="15.5" fill="none" height="55" stroke="rgb(255, 191, 0)" stroke-width="20" />  -->
     <circle cx="2.7" stroke-width="1.44" cy="3.096"  fill="none" r="1.98" id="connector0pin" stroke="black"/>
     <circle cx="31.5" stroke-width="1.44" cy="3.096"  fill="none" r="1.98" id="connector1pin" stroke="black"/>
    </g>
   </g>
  </g>
  <g partID="854143532">
   <g transform="translate(118.679,86.5869)">
    <g  id="copper1">
     <circle stroke-width="1.13384" cx="8.7872" cy="10.6336"  fill="none" r="1.7008" id="connector1pad" stroke="black"/>
     <rect stroke-width="1.13384" width="3.4016" height="3.4016"  fill="none" x="7.0864" y="8.9328" stroke="black"/>
     <circle stroke-width="1.13384" cx="8.7872" cy="3.5464"  fill="none" r="1.7008" id="connector0pad" stroke="black"/>
    </g>
   </g>
  </g>
  <g partID="854144472">
   <g transform="translate(23.9666,137.437)">
    <g  id="copper1">
     <!-- <rect width="55" x="10" y="15.5" fill="none" height="55" stroke="rgb(255, 191, 0)" stroke-width="20" />  -->
     <circle cx="2.7" stroke-width="1.44" cy="3.096"  fill="none" r="1.98" id="connector0pin" stroke="black"/>
     <circle cx="31.5" stroke-width="1.44" cy="3.096"  fill="none" r="1.98" id="connector1pin" stroke="black"/>
    </g>
   </g>
  </g>
  <g partID="854144832">
   <g transform="translate(97.0786,86.5869)">
    <g  id="copper1">
     <circle cx="8.7876" stroke-width="1.13384" cy="10.6336"  fill="none" r="1.7008" id="connector1pad" stroke="black"/>
     <rect stroke-width="1.13384" width="3.4016" height="3.4016"  fill="none" x="7.0868" y="8.9328" stroke="black"/>
     <circle cx="8.7876" stroke-width="1.13384" cy="3.5464"  fill="none" r="1.7008" id="connector0pad" stroke="black"/>
    </g>
   </g>
  </g>
  <g partID="854145572">
   <g transform="translate(88.7666,123.037)">
    <g  id="copper1">
     <!-- <rect width="55" x="10" y="15.5" fill="none" height="55" stroke="rgb(255, 191, 0)" stroke-width="20" />  -->
     <circle cx="2.7" stroke-width="1.44" cy="3.096"  fill="none" r="1.98" id="connector0pin" stroke="black"/>
     <circle cx="31.5" stroke-width="1.44" cy="3.096"  fill="none" r="1.98" id="connector1pin" stroke="black"/>
    </g>
   </g>
  </g>
  <g partID="854148622">
   <g transform="translate(100.827,13.0933)">
    <g  id="copper1">
     <g  id="copper0">
      <rect width="4.176" stroke-width="1.44" height="4.176"  fill="none" id="square" x="2.952" y="2.952" stroke="black"/>
      <circle cx="5.04" stroke-width="1.44" cy="5.04"  fill="none" r="2.088" id="connector0pin" stroke="black"/>
      <circle cx="5.04" stroke-width="1.44" cy="12.24"  fill="none" r="2.088" id="connector1pin" stroke="black"/>
     </g>
    </g>
   </g>
  </g>
  <g partID="63612">
   <g transform="translate(44.8466,79.1533)">
    <g transform="matrix(0,1,-1,0,0,0)">
     <g  id="copper1">
      <circle cx="3.78" stroke-width="0.72" connectorname="P$1" cy="3.78"  r="1.77732" fill="none" id="connector0pad" stroke="black"/>
      <path stroke-width="0"  fill="black" d="m1.64268,1.64268,4.27465,0,0,4.27465,-4.27465,0,0,-4.27465zM2.36268,3.78a1.41732,1.41732,0,1,0,2.83465,0,1.41732,1.41732,0,1,0,-2.83465,0z" stroke="none"/>
      <circle cx="25.38" stroke-width="0.72" connectorname="P$2" cy="3.78"  r="1.77732" fill="none" id="connector1pad" stroke="black"/>
      <path stroke-width="0"  fill="black" d="m23.2427,1.64268,4.27465,0,0,4.27465,-4.27465,0,0,-4.27465zM23.9627,3.78a1.41732,1.41732,0,1,0,2.83465,0,1.41732,1.41732,0,1,0,-2.83465,0z" stroke="none"/>
      <circle cx="3.78" stroke-width="0.72" connectorname="P$3" cy="18.18"  r="1.77732" fill="none" id="connector2pad" stroke="black"/>
      <path stroke-width="0"  fill="black" d="m1.64268,16.0427,4.27465,0,0,4.27465,-4.27465,0,0,-4.27465zM2.36268,18.18a1.41732,1.41732,0,1,0,2.83465,0,1.41732,1.41732,0,1,0,-2.83465,0z" stroke="none"/>
      <circle cx="25.38" stroke-width="0.72" connectorname="P$4" cy="18.18"  r="1.77732" fill="none" id="connector3pad" stroke="black"/>
      <path stroke-width="0"  fill="black" d="m23.2427,16.0427,4.27465,0,0,4.27465,-4.27465,0,0,-4.27465zM23.9627,18.18a1.41732,1.41732,0,1,0,2.83465,0,1.41732,1.41732,0,1,0,-2.83465,0z" stroke="none"/>
      <g  id="copper0">
       <circle cx="3.78" stroke-width="0.72" connectorname="P$1" cy="3.78"  r="1.77732" fill="none" id="connector0pad" stroke="black"/>
       <path stroke-width="0"  fill="black" d="m1.64268,1.64268,4.27465,0,0,4.27465,-4.27465,0,0,-4.27465zM2.36268,3.78a1.41732,1.41732,0,1,0,2.83465,0,1.41732,1.41732,0,1,0,-2.83465,0z" stroke="none"/>
       <circle cx="25.38" stroke-width="0.72" connectorname="P$2" cy="3.78"  r="1.77732" fill="none" id="connector1pad" stroke="black"/>
       <path stroke-width="0"  fill="black" d="m23.2427,1.64268,4.27465,0,0,4.27465,-4.27465,0,0,-4.27465zM23.9627,3.78a1.41732,1.41732,0,1,0,2.83465,0,1.41732,1.41732,0,1,0,-2.83465,0z" stroke="none"/>
       <circle cx="3.78" stroke-width="0.72" connectorname="P$3" cy="18.18"  r="1.77732" fill="none" id="connector2pad" stroke="black"/>
       <path stroke-width="0"  fill="black" d="m1.64268,16.0427,4.27465,0,0,4.27465,-4.27465,0,0,-4.27465zM2.36268,18.18a1.41732,1.41732,0,1,0,2.83465,0,1.41732,1.41732,0,1,0,-2.83465,0z" stroke="none"/>
       <circle cx="25.38" stroke-width="0.72" connectorname="P$4" cy="18.18"  r="1.77732" fill="none" id="connector3pad" stroke="black"/>
       <path stroke-width="0"  fill="black" d="m23.2427,16.0427,4.27465,0,0,4.27465,-4.27465,0,0,-4.27465zM23.9627,18.18a1.41732,1.41732,0,1,0,2.83465,0,1.41732,1.41732,0,1,0,-2.83465,0z" stroke="none"/>
      </g>
     </g>
    </g>
   </g>
  </g>
  <g partID="854103902">
   <g transform="translate(202.707,82.5733)">
    <g  id="copper1">
     <g  id="copper0">
      <rect width="3.96" stroke-width="1.44" height="3.96"  fill="none" x="1.98" id="rect11" y="5.58" stroke="black"/>
      <circle cx="3.96" stroke-width="1.44" cy="7.56"  r="1.98" fill="none" id="connector0pin" stroke="black"/>
      <circle cx="11.16" stroke-width="1.44" cy="7.56"  r="1.98" fill="none" id="connector1pin" stroke="black"/>
     </g>
    </g>
   </g>
  </g>
  <g partID="854103932">
   <g transform="translate(16.7666,51.0373)">
    <g  id="copper1">
     <!-- <rect width="55" x="10" y="15.5" fill="none" height="55" stroke="rgb(255, 191, 0)" stroke-width="20" />  -->
     <circle cx="2.7" stroke-width="1.44" cy="3.096"  fill="none" r="1.98" id="connector0pin" stroke="black"/>
     <circle cx="31.5" stroke-width="1.44" cy="3.096"  fill="none" r="1.98" id="connector1pin" stroke="black"/>
    </g>
   </g>
  </g>
  <g partID="854104832">
   <g transform="translate(71.069,83.6872)">
    <g transform="matrix(0,1,-1,0,0,0)">
     <g  id="copper1">
      <g  id="copper0">
       <circle cx="20.8462" stroke-width="1.44" cy="15.6024"  fill="none" r="1.98" id="connector0pad" stroke="black"/>
       <circle cx="2.42064" stroke-width="1.44" cy="15.6024"  fill="none" r="1.98" id="connector1pad" stroke="black"/>
       <circle cx="20.8462" stroke-width="1.44" cy="2.84616"  fill="none" r="1.98" id="connector2pad" stroke="black"/>
       <circle cx="2.42064" stroke-width="1.44" cy="2.84616"  fill="none" r="1.98" id="connector3pad" stroke="black"/>
      </g>
     </g>
    </g>
   </g>
  </g>
  <g partID="854105382">
   <g transform="translate(16.7666,58.2373)">
    <g  id="copper1">
     <!-- <rect width="55" x="10" y="15.5" fill="none" height="55" stroke="rgb(255, 191, 0)" stroke-width="20" />  -->
     <circle cx="2.7" stroke-width="1.44" cy="3.096"  fill="none" r="1.98" id="connector0pin" stroke="black"/>
     <circle cx="31.5" stroke-width="1.44" cy="3.096"  fill="none" r="1.98" id="connector1pin" stroke="black"/>
    </g>
   </g>
  </g>
  <g partID="854106292">
   <g transform="translate(88.7666,137.437)">
    <g  id="copper1">
     <!-- <rect width="55" x="10" y="15.5" fill="none" height="55" stroke="rgb(255, 191, 0)" stroke-width="20" />  -->
     <circle cx="2.7" stroke-width="1.44" cy="3.096"  fill="none" r="1.98" id="connector0pin" stroke="black"/>
     <circle cx="31.5" stroke-width="1.44" cy="3.096"  fill="none" r="1.98" id="connector1pin" stroke="black"/>
    </g>
   </g>
  </g>
  <g partID="854232512">
   <g transform="translate(24.5066,27.4933)">
    <g transform="matrix(0,1,-1,0,0,0)">
     <g  id="copper1">
      <g  id="copper0">
       <rect width="4.176" stroke-width="1.44" height="4.176"  fill="none" id="square" x="2.952" y="2.952" stroke="black"/>
       <circle cx="5.04" stroke-width="1.44" cy="5.04"  fill="none" r="2.088" id="connector0pin" stroke="black"/>
       <circle cx="5.04" stroke-width="1.44" cy="12.24"  fill="none" r="2.088" id="connector1pin" stroke="black"/>
       <circle cx="5.04" stroke-width="1.44" cy="19.44"  fill="none" r="2.088" id="connector2pin" stroke="black"/>
      </g>
     </g>
    </g>
   </g>
  </g>
  <g partID="854108022">
   <g transform="translate(88.7666,36.6373)">
    <g  id="copper1">
     <!-- <rect width="55" x="10" y="15.5" fill="none" height="55" stroke="rgb(255, 191, 0)" stroke-width="20" />  -->
     <circle cx="2.7" stroke-width="1.44" cy="3.096"  fill="none" r="1.98" id="connector0pin" stroke="black"/>
     <circle cx="31.5" stroke-width="1.44" cy="3.096"  fill="none" r="1.98" id="connector1pin" stroke="black"/>
    </g>
   </g>
  </g>
  <g partID="854109672">
   <g transform="translate(210.267,21.7333)">
    <g transform="matrix(0,1,-1,0,0,0)">
     <g gorn="0.3"  id="copper1">
      <g gorn="0.3.0"  id="copper0">
       <rect width="3.6" stroke-width="1.44" gorn="0.3.0.0" height="3.6"  fill="none" x="37.8" id="square" y="52.2" stroke="black"/>
       <rect width="3.6" stroke-width="1.44" gorn="0.3.0.1" height="3.6"  fill="none" x="37.8" id="square" y="9" stroke="black"/>
       <circle cx="3.6" stroke-width="1.44" gorn="0.3.0.2" cy="3.6"  fill="none" r="1.8" id="connector0pad" stroke="black"/>
       <circle cx="39.6" stroke-width="1.44" gorn="0.3.0.3" cy="3.6"  fill="none" r="1.8" id="connector15pad" stroke="black"/>
       <circle cx="3.6" stroke-width="1.44" gorn="0.3.0.4" cy="10.8"  fill="none" r="1.8" id="connector1pad" stroke="black"/>
       <circle cx="39.6" stroke-width="1.44" gorn="0.3.0.5" cy="10.8"  fill="none" r="1.8" id="connector14pad" stroke="black"/>
       <circle cx="3.6" stroke-width="1.44" gorn="0.3.0.6" cy="18"  fill="none" r="1.8" id="connector2pad" stroke="black"/>
       <circle cx="39.6" stroke-width="1.44" gorn="0.3.0.7" cy="18"  fill="none" r="1.8" id="connector13pad" stroke="black"/>
       <circle cx="3.6" stroke-width="1.44" gorn="0.3.0.8" cy="25.2"  fill="none" r="1.8" id="connector3pad" stroke="black"/>
       <circle cx="39.6" stroke-width="1.44" gorn="0.3.0.9" cy="25.2"  fill="none" r="1.8" id="connector12pad" stroke="black"/>
       <circle cx="3.6" stroke-width="1.44" gorn="0.3.0.10" cy="32.4"  fill="none" r="1.8" id="connector4pad" stroke="black"/>
       <circle cx="39.6" stroke-width="1.44" gorn="0.3.0.11" cy="32.4"  fill="none" r="1.8" id="connector11pad" stroke="black"/>
       <circle cx="3.6" stroke-width="1.44" gorn="0.3.0.12" cy="39.6"  fill="none" r="1.8" id="connector5pad" stroke="black"/>
       <circle cx="39.6" stroke-width="1.44" gorn="0.3.0.13" cy="39.6"  fill="none" r="1.8" id="connector10pad" stroke="black"/>
       <circle cx="3.6" stroke-width="1.44" gorn="0.3.0.14" cy="46.8"  fill="none" r="1.8" id="connector6pad" stroke="black"/>
       <circle cx="39.6" stroke-width="1.44" gorn="0.3.0.15" cy="46.8"  fill="none" r="1.8" id="connector9pad" stroke="black"/>
       <circle cx="3.6" stroke-width="1.44" gorn="0.3.0.16" cy="54"  fill="none" r="1.8" id="connector7pad" stroke="black"/>
       <circle cx="39.6" stroke-width="1.44" gorn="0.3.0.17" cy="54"  fill="none" r="1.8" id="connector8pad" stroke="black"/>
      </g>
     </g>
    </g>
   </g>
  </g>
  <g partID="854114622">
   <g transform="translate(204.507,121.093)">
    <g transform="matrix(0,1,-1,0,0,0)">
     <g  id="copper1">
      <g  id="copper0">
       <rect width="4.176" stroke-width="1.44" height="4.176"  fill="none" id="square" x="2.952" y="2.952" stroke="black"/>
       <circle cx="5.04" stroke-width="1.44" cy="5.04"  fill="none" r="2.088" id="connector0pin" stroke="black"/>
       <circle cx="5.04" stroke-width="1.44" cy="12.24"  fill="none" r="2.088" id="connector1pin" stroke="black"/>
       <circle cx="5.04" stroke-width="1.44" cy="19.44"  fill="none" r="2.088" id="connector2pin" stroke="black"/>
       <circle cx="5.04" stroke-width="1.44" cy="26.64"  fill="none" r="2.088" id="connector3pin" stroke="black"/>
      </g>
     </g>
    </g>
   </g>
  </g>
  <g partID="854301620">
   <line y2="138.32" stroke-width="1.728" x1="226.13" x2="221.202" stroke-linecap="round" stroke="black" y1="57.5601"/>
  </g>
  <g partID="854301740">
   <line y2="25.3333" stroke-width="1.728" x1="175.987" x2="172.547" stroke-linecap="round" stroke="black" y1="25.3333"/>
  </g>
  <g partID="854301800">
   <line y2="125.28" stroke-width="1.728" x1="118.388" x2="118.368" stroke-linecap="round" stroke="black" y1="125.289"/>
  </g>
  <g partID="854301820">
   <line y2="126.068" stroke-width="1.728" x1="118.368" x2="93.5256" stroke-linecap="round" stroke="black" y1="125.28"/>
  </g>
  <g partID="854301860">
   <line y2="125.28" stroke-width="1.728" x1="106.653" x2="118.368" stroke-linecap="round" stroke="black" y1="98.987"/>
  </g>
  <g partID="854302260">
   <line y2="113.184" stroke-width="1.728" x1="183.523" x2="171.936" stroke-linecap="round" stroke="black" y1="124.611"/>
  </g>
  <g partID="854302380">
   <line y2="63.2128" stroke-width="1.728" x1="171.936" x2="170.713" stroke-linecap="round" stroke="black" y1="113.184"/>
  </g>
  <g partID="854302580">
   <line y2="114.912" stroke-width="1.728" x1="190.703" x2="180.576" stroke-linecap="round" stroke="black" y1="124.632"/>
  </g>
  <g partID="854302740">
   <line y2="63.2109" stroke-width="1.728" x1="180.576" x2="177.962" stroke-linecap="round" stroke="black" y1="114.912"/>
  </g>
  <g partID="854302780">
   <line y2="124.017" stroke-width="1.728" x1="185.474" x2="198.996" stroke-linecap="round" stroke="black" y1="63.1686"/>
  </g>
  <g partID="854303100">
   <line y2="43.1601" stroke-width="1.728" x1="213.867" x2="213.867" stroke-linecap="round" stroke="black" y1="50.7066"/>
  </g>
  <g partID="854303220">
   <line y2="59.616" stroke-width="1.728" x1="199.595" x2="199.584" stroke-linecap="round" stroke="black" y1="59.4577"/>
  </g>
  <g partID="854303240">
   <line y2="54.9591" stroke-width="1.728" x1="199.584" x2="211.715" stroke-linecap="round" stroke="black" y1="59.616"/>
  </g>
  <g partID="854304220">
   <line y2="140.533" stroke-width="1.728" x1="53.4066" x2="28.7266" stroke-linecap="round" stroke="black" y1="140.533"/>
  </g>
  <g partID="854304280">
   <line y2="130.464" stroke-width="1.728" x1="127.34" x2="125.28" stroke-linecap="round" stroke="black" y1="99.1502"/>
  </g>
  <g partID="854304380">
   <line y2="140.239" stroke-width="1.728" x1="125.28" x2="57.5055" stroke-linecap="round" stroke="black" y1="130.464"/>
  </g>
  <g partID="854304540">
   <line y2="82.5171" stroke-width="1.728" x1="163.467" x2="163.466" stroke-linecap="round" stroke="black" y1="63.2133"/>
  </g>
  <g partID="854305040">
   <line y2="62.2546" stroke-width="1.728" x1="104.137" x2="50.1092" stroke-linecap="round" stroke="black" y1="89.2685"/>
  </g>
  <g partID="854305600">
   <line y2="63.3933" stroke-width="1.728" x1="48.2666" x2="48.2666" stroke-linecap="round" stroke="black" y1="131.273"/>
  </g>
 </g>
</svg>
