<?xml version='1.0' encoding='UTF-8' standalone='no'?>
<!-- Created with Fritzing (http://www.fritzing.org/) -->
<svg xmlns="http://www.w3.org/2000/svg" x="0in" y="0in" version="1.2" baseProfile="tiny" xmlns:svg="http://www.w3.org/2000/svg" width="3.33333in" height="2.22222in" viewBox="0 0 240 160" >
 <g partID="57691">
  <g transform="translate(240,160)">
   <g transform="matrix(-1,0,0,-1,0,0)">
    <g id="silkscreen">
     <rect stroke-width="0.576" x="0.288" fill="none" y="0.288" stroke="black" width="239.424" height="159.424"/>
    </g>
   </g>
  </g>
 </g>
 <g partID="57690">
  <g transform="translate(240,160)">
   <g transform="matrix(-1,0,0,-1,0,0)">
    <g id="board">
     <rect stroke-width="0.5" x="0.288" fill="none" y="0.288" fill-opacity="0.5" stroke="black" id="boardoutline" width="239.424" height="159.424"/>
    </g>
   </g>
  </g>
 </g>
 <g partID="854216191">
  <g transform="translate(188.623,89.9565)">
   <g id="silkscreen">
    <line stroke-width="0.576" stroke="black" class="other" y1="12.888" y2="12.888" x1="29.088" x2="0.288" stroke-linecap="round"/>
    <line stroke-width="0.576" stroke="black" class="other" y1="12.888" y2="2.088" x1="0.288" x2="0.288" stroke-linecap="round"/>
    <line stroke-width="0.576" stroke="black" class="other" y1="2.088" y2="0.288" x1="0.288" x2="0.288" stroke-linecap="round"/>
    <line stroke-width="0.576" stroke="black" class="other" y1="0.288" y2="0.288" x1="0.288" x2="29.088" stroke-linecap="round"/>
    <line stroke-width="0.576" stroke="black" class="other" y1="0.288" y2="2.088" x1="29.088" x2="29.088" stroke-linecap="round"/>
    <line stroke-width="0.576" stroke="black" class="other" y1="2.088" y2="12.888" x1="29.088" x2="29.088" stroke-linecap="round"/>
    <line stroke-width="0.576" stroke="black" class="other" y1="2.088" y2="2.088" x1="29.088" x2="0.288" stroke-linecap="round"/>
   </g>
  </g>
 </g>
 <g partID="854137121">
  <g transform="translate(62.1064,69.0862)">
   <g id="silkscreen">
    <line stroke-width="0.72" stroke="black" y1="6.38928" y2="12.0586" x1="20.137" x2="20.137"/>
    <line stroke-width="0.72" stroke="black" y1="0.72" y2="0.72" x1="5.96376" x2="18.0115"/>
    <line stroke-width="0.72" stroke="black" y1="17.7278" y2="17.7278" x1="5.96376" x2="18.0115"/>
    <line stroke-width="0.72" stroke="black" y1="6.38928" y2="12.0586" x1="3.12912" x2="3.12912"/>
    <line stroke-width="0.72" stroke="black" y1="7.80696" y2="10.6416" x1="11.633" x2="11.633"/>
    <line stroke-width="0.72" stroke="black" y1="9.22392" y2="9.22392" x1="13.0507" x2="10.2161"/>
   </g>
  </g>
 </g>
 <g partID="854137861">
  <g transform="translate(61.3735,104.27)">
   <g id="silkscreen">
    <line stroke-width="0.72" stroke="black" y1="3.096" y2="3.096" x1="5.4" x2="10.584"/>
    <line stroke-width="0.72" stroke="black" y1="3.096" y2="3.096" x1="24.984" x2="28.8"/>
    <line stroke-width="0.72" stroke="black" y1="0.72" y2="0.72" x1="10.584" x2="24.984"/>
    <line stroke-width="0.72" stroke="black" y1="0.72" y2="5.472" x1="24.984" x2="24.984"/>
    <line stroke-width="0.72" stroke="black" y1="5.472" y2="5.472" x1="24.984" x2="10.584"/>
    <line stroke-width="0.72" stroke="black" y1="5.472" y2="0.72" x1="10.584" x2="10.584"/>
   </g>
  </g>
 </g>
 <g partID="854144471">
  <g transform="translate(42.9483,136.868)">
   <g id="silkscreen">
    <line stroke-width="0.72" stroke="black" y1="3.096" y2="3.096" x1="5.4" x2="10.584"/>
    <line stroke-width="0.72" stroke="black" y1="3.096" y2="3.096" x1="24.984" x2="28.8"/>
    <line stroke-width="0.72" stroke="black" y1="0.72" y2="0.72" x1="10.584" x2="24.984"/>
    <line stroke-width="0.72" stroke="black" y1="0.72" y2="5.472" x1="24.984" x2="24.984"/>
    <line stroke-width="0.72" stroke="black" y1="5.472" y2="5.472" x1="24.984" x2="10.584"/>
    <line stroke-width="0.72" stroke="black" y1="5.472" y2="0.72" x1="10.584" x2="10.584"/>
   </g>
  </g>
 </g>
 <g partID="854144831">
  <g transform="translate(3.29853,129.331)">
   <g id="silkscreen">
    <path stroke-width="0.56696" fill="none" stroke="black" stroke-linejoin="round" id="path2820" stroke-linecap="round" d="M13.912,0.3048c3.748,2.8296,4.4912,8.1624,1.6608,11.9112c-2.8304,3.748,-8.1632,4.4912,-11.9112,1.6608S-0.8288,5.7128,2.0016,1.9656C2.4824,1.328,3.0504,0.7616,3.6904,0.2832"/>
    <path stroke-width="0.56696" fill="none" stroke="black" id="path3707" stroke-linecap="round" d="M13.8896,0.2872L3.6848,0.2872"/>
   </g>
  </g>
 </g>
 <g partID="854145571">
  <g transform="translate(9.38613,149.624)">
   <g id="silkscreen">
    <line stroke-width="0.72" stroke="black" y1="3.096" y2="3.096" x1="5.4" x2="10.584"/>
    <line stroke-width="0.72" stroke="black" y1="3.096" y2="3.096" x1="24.984" x2="28.8"/>
    <line stroke-width="0.72" stroke="black" y1="0.72" y2="0.72" x1="10.584" x2="24.984"/>
    <line stroke-width="0.72" stroke="black" y1="0.72" y2="5.472" x1="24.984" x2="24.984"/>
    <line stroke-width="0.72" stroke="black" y1="5.472" y2="5.472" x1="24.984" x2="10.584"/>
    <line stroke-width="0.72" stroke="black" y1="5.472" y2="0.72" x1="10.584" x2="10.584"/>
   </g>
  </g>
 </g>
 <g partID="854148621">
  <g transform="translate(106.259,55.4407)">
   <g id="silkscreen">
    <line stroke-width="0.72" stroke="black" y1="1.44" y2="15.84" x1="1.44" x2="1.44"/>
    <line stroke-width="0.72" stroke="black" y1="15.84" y2="15.84" x1="1.44" x2="8.64"/>
    <line stroke-width="0.72" stroke="black" y1="15.84" y2="1.44" x1="8.64" x2="8.64"/>
    <line stroke-width="0.72" stroke="black" y1="1.44" y2="1.44" x1="8.64" x2="1.44"/>
    <line stroke-width="0.36" stroke="black" y1="3.96" y2="1.44" x1="1.44" x2="3.96"/>
    <!-- 120 -->
   </g>
  </g>
 </g>
 <g partID="57691">
  <g transform="translate(240,160)">
   <g transform="matrix(-1,0,0,-1,0,0)">
    <g id="silkscreen">
     <rect stroke-width="0.576" x="0.288" fill="none" y="0.288" stroke="black" width="239.424" height="159.424"/>
    </g>
   </g>
  </g>
 </g>
 <g partID="854103901">
  <g transform="translate(192.378,67.2073)">
   <g id="silkscreen">
    <circle stroke-width="0.72" fill="none" stroke="black" id="circle7" cx="7.56" cy="7.56" r="7.2"/>
    <path stroke-width="0.792" fill="none" stroke="black" d="m2.88,3.6,2.16,0" stroke-linecap="round"/>
    <path stroke-width="0.792" fill="none" stroke="black" d="m2.88,11.52,2.16,0" stroke-linecap="round"/>
   </g>
  </g>
 </g>
 <g partID="854103931">
  <g transform="translate(3.2633,112.774)">
   <g id="silkscreen">
    <line stroke-width="0.72" stroke="black" y1="3.096" y2="3.096" x1="5.4" x2="10.584"/>
    <line stroke-width="0.72" stroke="black" y1="3.096" y2="3.096" x1="24.984" x2="28.8"/>
    <line stroke-width="0.72" stroke="black" y1="0.72" y2="0.72" x1="10.584" x2="24.984"/>
    <line stroke-width="0.72" stroke="black" y1="0.72" y2="5.472" x1="24.984" x2="24.984"/>
    <line stroke-width="0.72" stroke="black" y1="5.472" y2="5.472" x1="24.984" x2="10.584"/>
    <line stroke-width="0.72" stroke="black" y1="5.472" y2="0.72" x1="10.584" x2="10.584"/>
   </g>
  </g>
 </g>
 <g partID="854345681">
  <g transform="translate(22.0192,66.6774)">
   <g transform="matrix(0,1,-1,0,0,0)">
    <g id="silkscreen">
     <line stroke-width="0.72" stroke="black" y1="6.38928" y2="12.0586" x1="20.137" x2="20.137"/>
     <line stroke-width="0.72" stroke="black" y1="0.72" y2="0.72" x1="5.96376" x2="18.0115"/>
     <line stroke-width="0.72" stroke="black" y1="17.7278" y2="17.7278" x1="5.96376" x2="18.0115"/>
     <line stroke-width="0.72" stroke="black" y1="6.38928" y2="12.0586" x1="3.12912" x2="3.12912"/>
     <line stroke-width="0.72" stroke="black" y1="7.80696" y2="10.6416" x1="11.633" x2="11.633"/>
     <line stroke-width="0.72" stroke="black" y1="9.22392" y2="9.22392" x1="13.0507" x2="10.2161"/>
    </g>
   </g>
  </g>
 </g>
 <g partID="854104831">
  <g transform="translate(50.3657,66.6774)">
   <g transform="matrix(0,1,-1,0,0,0)">
    <g id="silkscreen">
     <line stroke-width="0.72" stroke="black" y1="6.38928" y2="12.0586" x1="20.137" x2="20.137"/>
     <line stroke-width="0.72" stroke="black" y1="0.72" y2="0.72" x1="5.96376" x2="18.0115"/>
     <line stroke-width="0.72" stroke="black" y1="17.7278" y2="17.7278" x1="5.96376" x2="18.0115"/>
     <line stroke-width="0.72" stroke="black" y1="6.38928" y2="12.0586" x1="3.12912" x2="3.12912"/>
     <line stroke-width="0.72" stroke="black" y1="7.80696" y2="10.6416" x1="11.633" x2="11.633"/>
     <line stroke-width="0.72" stroke="black" y1="9.22392" y2="9.22392" x1="13.0507" x2="10.2161"/>
    </g>
   </g>
  </g>
 </g>
 <g partID="854105381">
  <g transform="translate(25.9405,98.6005)">
   <g id="silkscreen">
    <line stroke-width="0.72" stroke="black" y1="3.096" y2="3.096" x1="5.4" x2="10.584"/>
    <line stroke-width="0.72" stroke="black" y1="3.096" y2="3.096" x1="24.984" x2="28.8"/>
    <line stroke-width="0.72" stroke="black" y1="0.72" y2="0.72" x1="10.584" x2="24.984"/>
    <line stroke-width="0.72" stroke="black" y1="0.72" y2="5.472" x1="24.984" x2="24.984"/>
    <line stroke-width="0.72" stroke="black" y1="5.472" y2="5.472" x1="24.984" x2="10.584"/>
    <line stroke-width="0.72" stroke="black" y1="5.472" y2="0.72" x1="10.584" x2="10.584"/>
   </g>
  </g>
 </g>
 <g partID="854106291">
  <g transform="translate(124.374,123.218)">
   <g transform="matrix(-1,0,0,-1,0,0)">
    <g id="silkscreen">
     <line stroke-width="0.72" stroke="black" y1="3.096" y2="3.096" x1="5.4" x2="10.584"/>
     <line stroke-width="0.72" stroke="black" y1="3.096" y2="3.096" x1="24.984" x2="28.8"/>
     <line stroke-width="0.72" stroke="black" y1="0.72" y2="0.72" x1="10.584" x2="24.984"/>
     <line stroke-width="0.72" stroke="black" y1="0.72" y2="5.472" x1="24.984" x2="24.984"/>
     <line stroke-width="0.72" stroke="black" y1="5.472" y2="5.472" x1="24.984" x2="10.584"/>
     <line stroke-width="0.72" stroke="black" y1="5.472" y2="0.72" x1="10.584" x2="10.584"/>
    </g>
   </g>
  </g>
 </g>
 <g partID="854232761">
  <g transform="translate(133.46,88.1525)">
   <g transform="matrix(0,1,-1,0,0,0)">
    <g id="silkscreen">
     <line stroke-width="0.72" stroke="black" y1="1.44" y2="23.04" x1="1.44" x2="1.44"/>
     <line stroke-width="0.72" stroke="black" y1="23.04" y2="23.04" x1="1.44" x2="8.64"/>
     <line stroke-width="0.72" stroke="black" y1="23.04" y2="1.44" x1="8.64" x2="8.64"/>
     <line stroke-width="0.72" stroke="black" y1="1.44" y2="1.44" x1="8.64" x2="1.44"/>
     <line stroke-width="0.36" stroke="black" y1="3.96" y2="1.44" x1="1.44" x2="3.96"/>
     <!-- 120 -->
    </g>
   </g>
  </g>
 </g>
 <g partID="854232511">
  <g transform="translate(51.2553,38.5462)">
   <g transform="matrix(0,1,-1,0,0,0)">
    <g id="silkscreen">
     <line stroke-width="0.72" stroke="black" y1="1.44" y2="23.04" x1="1.44" x2="1.44"/>
     <line stroke-width="0.72" stroke="black" y1="23.04" y2="23.04" x1="1.44" x2="8.64"/>
     <line stroke-width="0.72" stroke="black" y1="23.04" y2="1.44" x1="8.64" x2="8.64"/>
     <line stroke-width="0.72" stroke="black" y1="1.44" y2="1.44" x1="8.64" x2="1.44"/>
     <line stroke-width="0.36" stroke="black" y1="3.96" y2="1.44" x1="1.44" x2="3.96"/>
     <!-- 120 -->
    </g>
   </g>
  </g>
 </g>
 <g partID="854108021">
  <g transform="translate(58.5389,41.9076)">
   <g id="silkscreen">
    <line stroke-width="0.72" stroke="black" y1="3.096" y2="3.096" x1="5.4" x2="10.584"/>
    <line stroke-width="0.72" stroke="black" y1="3.096" y2="3.096" x1="24.984" x2="28.8"/>
    <line stroke-width="0.72" stroke="black" y1="0.72" y2="0.72" x1="10.584" x2="24.984"/>
    <line stroke-width="0.72" stroke="black" y1="0.72" y2="5.472" x1="24.984" x2="24.984"/>
    <line stroke-width="0.72" stroke="black" y1="5.472" y2="5.472" x1="24.984" x2="10.584"/>
    <line stroke-width="0.72" stroke="black" y1="5.472" y2="0.72" x1="10.584" x2="10.584"/>
   </g>
  </g>
 </g>
 <g partID="854109671">
  <g transform="translate(198.521,20.1437)">
   <g transform="matrix(0,1,-1,0,0,0)">
    <g id="silkscreen" gorn="0.2">
     <line stroke-width="0.576" stroke="black" y1="0.576" y2="57.024" x1="0.576" x2="0.576"/>
     <line stroke-width="0.576" stroke="black" y1="57.024" y2="57.024" x1="0.576" x2="42.624"/>
     <line stroke-width="0.576" stroke="black" y1="57.024" y2="0.576" x1="42.624" x2="42.624"/>
     <line stroke-width="0.576" stroke="black" y1="0.576" y2="0.576" x1="0.576" x2="17.28"/>
     <line stroke-width="0.576" stroke="black" y1="0.576" y2="0.576" x1="25.776" x2="42.624"/>
    </g>
   </g>
  </g>
 </g>
 <g partID="854114621">
  <g transform="translate(178.814,81.0659)">
   <g transform="matrix(0,1,-1,0,0,0)">
    <g id="silkscreen">
     <line stroke-width="0.72" stroke="black" y1="1.44" y2="30.24" x1="1.44" x2="1.44"/>
     <line stroke-width="0.72" stroke="black" y1="30.24" y2="30.24" x1="1.44" x2="8.64"/>
     <line stroke-width="0.72" stroke="black" y1="30.24" y2="1.44" x1="8.64" x2="8.64"/>
     <line stroke-width="0.72" stroke="black" y1="1.44" y2="1.44" x1="8.64" x2="1.44"/>
     <line stroke-width="0.36" stroke="black" y1="3.96" y2="1.44" x1="1.44" x2="3.96"/>
     <!-- 120 -->
    </g>
   </g>
  </g>
 </g>
 <g partID="854143531">
  <g transform="translate(23.1415,129.331)">
   <g id="silkscreen">
    <path stroke-width="0.36864" fill="none" stroke="black" stroke-linejoin="round" id="path2820_2_" stroke-linecap="round" d="M6.0272,11.6048c-0.196,-0.1136,-0.388,-0.24,-0.5736,-0.3808c-2.4368,-1.84,-2.92,-5.3088,-1.0792,-7.7456C4.688,3.064,5.0576,2.696,5.4728,2.384"/>
    <path stroke-width="0.36864" fill="none" stroke="black" stroke-linejoin="round" id="path2820_1_" stroke-linecap="round" d="M12.12,2.3992c2.436,1.8392,2.9192,5.308,1.08,7.7456c-0.4424,0.5856,-0.9792,1.0584,-1.5728,1.4136"/>
    <path stroke-width="0.36864" fill="none" stroke="black" id="path3707_2_" stroke-linecap="round" d="M6.3872,2.3864L5.4696,2.3864"/>
    <path stroke-width="0.36864" fill="none" stroke="black" id="path3707_1_" stroke-linecap="round" d="M12.1048,2.3864l-0.9168,0"/>
   </g>
  </g>
 </g>
 <g partID="854105380" id="partLabel">
  <g transform="translate(60.1405,93.0005)">
   <g fill="#000000" font-weight="normal" fill-opacity="1" stroke="none" font-size="5" id="silkscreenLabel" font-style="normal" font-family="'OCRA'">
    <text x="0" y="3.75">Rbr100&#x3a9;</text>
   </g>
  </g>
 </g>
 <g partID="854106290" id="partLabel">
  <g transform="translate(90.1735,128.818)">
   <g transform="matrix(-1,0,0,-1,0,0)">
    <g fill="#000000" font-weight="normal" fill-opacity="1" stroke="none" font-size="5" id="silkscreenLabel" font-style="normal" font-family="'OCRA'">
     <text x="0" y="3.75">RfimInje</text>
    </g>
   </g>
  </g>
 </g>
 <g partID="854345680" id="partLabel">
  <g transform="translate(24.4288,63.4869)">
   <g fill="#000000" font-weight="normal" fill-opacity="1" stroke="none" font-size="5" id="silkscreenLabel" font-style="normal" font-family="'OCRA'">
    <text x="0" y="3.75">botIn</text>
   </g>
  </g>
 </g>
 <g partID="854232760" id="partLabel">
  <g transform="translate(126.26,75.3525)">
   <g fill="#000000" font-weight="normal" fill-opacity="1" stroke="none" font-size="5" id="silkscreenLabel" font-style="normal" font-family="'OCRA'">
    <text x="0" y="3.75">FCinj</text>
   </g>
  </g>
 </g>
 <g partID="854232510" id="partLabel">
  <g transform="translate(44.0553,25.7462)">
   <g fill="#000000" font-weight="normal" fill-opacity="1" stroke="none" font-size="5" id="silkscreenLabel" font-style="normal" font-family="'OCRA'">
    <text x="0" y="3.75">FCrec</text>
   </g>
  </g>
 </g>
 <g partID="854104830" id="partLabel">
  <g transform="translate(52.7752,63.4869)">
   <g fill="#000000" font-weight="normal" fill-opacity="1" stroke="none" font-size="5" id="silkscreenLabel" font-style="normal" font-family="'OCRA'">
    <text x="0" y="3.75">botRec</text>
   </g>
  </g>
 </g>
 <g partID="854108020" id="partLabel">
  <g transform="translate(92.7389,36.3076)">
   <g fill="#000000" font-weight="normal" fill-opacity="1" stroke="none" font-size="5" id="silkscreenLabel" font-style="normal" font-family="'OCRA'">
    <text x="0" y="3.75">RFimRecol</text>
   </g>
  </g>
 </g>
 <g partID="854103900" id="partLabel">
  <g transform="translate(207.498,61.6073)">
   <g fill="#000000" font-weight="normal" fill-opacity="1" stroke="none" font-size="5" id="silkscreenLabel" font-style="normal" font-family="'OCRA'">
    <text x="0" y="3.75">C100&#xb5;F</text>
   </g>
  </g>
 </g>
 <g partID="854114620" id="partLabel">
  <g transform="translate(168.014,64.6659)">
   <g fill="#000000" font-weight="normal" fill-opacity="1" stroke="none" font-size="5" id="silkscreenLabel" font-style="normal" font-family="'OCRA'">
    <text x="0" y="3.75">Nema14</text>
   </g>
  </g>
 </g>
 <g partID="854109670" id="partLabel">
  <g transform="translate(191.321,7.34371)">
   <g fill="#000000" font-weight="normal" fill-opacity="1" stroke="none" font-size="5" id="silkscreenLabel" font-style="normal" font-family="'OCRA'">
    <text x="0" y="3.75">A4988</text>
   </g>
  </g>
 </g>
 <g partID="854137120" id="partLabel">
  <g transform="translate(97.3732,57.0862)">
   <g transform="matrix(2.22045e-16,1,-1,2.22045e-16,0,0)">
    <g fill="#000000" font-weight="normal" fill-opacity="1" stroke="none" font-size="5" id="silkscreenLabel" font-style="normal" font-family="'OCRA'">
     <text x="0" y="3.75">botPa</text>
    </g>
   </g>
  </g>
 </g>
 <g partID="854144830" id="partLabel">
  <g transform="translate(20.8737,123.731)">
   <g fill="#000000" font-weight="normal" fill-opacity="1" stroke="none" font-size="5" id="silkscreenLabel" font-style="normal" font-family="'OCRA'">
    <text x="0" y="3.75">LV</text>
   </g>
  </g>
 </g>
 <g partID="854145570" id="partLabel">
  <g transform="translate(43.5861,144.024)">
   <g fill="#000000" font-weight="normal" fill-opacity="1" stroke="none" font-size="5" id="silkscreenLabel" font-style="normal" font-family="'OCRA'">
    <text x="0" y="3.75">R3lVerd</text>
   </g>
  </g>
 </g>
 <g partID="854144470" id="partLabel">
  <g transform="translate(77.1483,131.268)">
   <g fill="#000000" font-weight="normal" fill-opacity="1" stroke="none" font-size="5" id="silkscreenLabel" font-style="normal" font-family="'OCRA'">
    <text x="0" y="3.75">RLver</text>
   </g>
  </g>
 </g>
 <g partID="854143530" id="partLabel">
  <g transform="translate(40.7167,123.731)">
   <g fill="#000000" font-weight="normal" fill-opacity="1" stroke="none" font-size="5" id="silkscreenLabel" font-style="normal" font-family="'OCRA'">
    <text x="0" y="3.75">Lvm</text>
   </g>
  </g>
 </g>
 <g partID="854103930" id="partLabel">
  <g transform="translate(37.4633,107.174)">
   <g fill="#000000" font-weight="normal" fill-opacity="1" stroke="none" font-size="5" id="silkscreenLabel" font-style="normal" font-family="'OCRA'">
    <text x="0" y="3.75">Rbi100&#x3a9;</text>
   </g>
  </g>
 </g>
 <g partID="854148620" id="partLabel">
  <g transform="translate(116.339,49.8407)">
   <g fill="#000000" font-weight="normal" fill-opacity="1" stroke="none" font-size="5" id="silkscreenLabel" font-style="normal" font-family="'OCRA'">
    <text x="0" y="3.75">Buzzer</text>
   </g>
  </g>
 </g>
 <g partID="854216190" id="partLabel">
  <g transform="translate(217.999,84.3565)">
   <g fill="#000000" font-weight="normal" fill-opacity="1" stroke="none" font-size="5" id="silkscreenLabel" font-style="normal" font-family="'OCRA'">
    <text x="0" y="3.75">LM317</text>
   </g>
  </g>
 </g>
 <g partID="854137860" id="partLabel">
  <g transform="translate(95.5735,98.6698)">
   <g fill="#000000" font-weight="normal" fill-opacity="1" stroke="none" font-size="5" id="silkscreenLabel" font-style="normal" font-family="'OCRA'">
    <text x="0" y="3.75">Rbp100&#x3a9;</text>
   </g>
  </g>
 </g>
 <g partID="854216192">
  <g transform="translate(188.623,89.9565)">
   <g id="copper1">
    <circle stroke-width="1.96668" connectorname="ADJ" fill="white" stroke="white" id="connector0pad" cx="7.488" cy="7.488" r="2.04066"/>
    <path stroke-width="0.72" fill="white" stroke="white" d="m4.824,4.824,5.328,0,0,5.328,-5.328,0,0,-5.328zM6.07068,7.488a1.41732,1.41732,0,1,0,2.83465,0,1.41732,1.41732,0,1,0,-2.83465,0z"/>
    <circle stroke-width="1.96668" connectorname="OUT" fill="white" stroke="white" id="connector2pad" cx="14.688" cy="7.488" r="2.04066"/>
    <circle stroke-width="1.96668" connectorname="IN" fill="white" stroke="white" id="connector1pad" cx="21.888" cy="7.488" r="2.04066"/>
    <g id="copper0">
     <circle stroke-width="1.96668" connectorname="ADJ" fill="white" stroke="white" id="connector0pad" cx="7.488" cy="7.488" r="2.04066"/>
     <path stroke-width="0.72" fill="white" stroke="white" d="m4.824,4.824,5.328,0,0,5.328,-5.328,0,0,-5.328zM6.07068,7.488a1.41732,1.41732,0,1,0,2.83465,0,1.41732,1.41732,0,1,0,-2.83465,0z"/>
     <circle stroke-width="1.96668" connectorname="OUT" fill="white" stroke="white" id="connector2pad" cx="14.688" cy="7.488" r="2.04066"/>
     <circle stroke-width="1.96668" connectorname="IN" fill="white" stroke="white" id="connector1pad" cx="21.888" cy="7.488" r="2.04066"/>
    </g>
   </g>
  </g>
 </g>
 <g partID="854137122">
  <g transform="translate(62.1064,69.0862)">
   <g id="copper1">
    <g id="copper0">
     <circle stroke-width="2.16" fill="white" stroke="white" id="connector0pad" cx="20.8462" cy="15.6024" r="1.98"/>
     <circle stroke-width="2.16" fill="white" stroke="white" id="connector1pad" cx="2.42064" cy="15.6024" r="1.98"/>
     <circle stroke-width="2.16" fill="white" stroke="white" id="connector2pad" cx="20.8462" cy="2.84616" r="1.98"/>
     <circle stroke-width="2.16" fill="white" stroke="white" id="connector3pad" cx="2.42064" cy="2.84616" r="1.98"/>
    </g>
   </g>
  </g>
 </g>
 <g partID="854137862">
  <g transform="translate(61.3735,104.27)">
   <g id="copper1">
    <!-- <rect width="55" x="10" y="15.5" fill="none" height="55" stroke="rgb(255, 191, 0)" stroke-width="20" />  -->
    <circle stroke-width="2.16" fill="white" stroke="white" id="connector0pin" cx="2.7" cy="3.096" r="1.98"/>
    <circle stroke-width="2.16" fill="white" stroke="white" id="connector1pin" cx="31.5" cy="3.096" r="1.98"/>
   </g>
  </g>
 </g>
 <g partID="854144472">
  <g transform="translate(42.9483,136.868)">
   <g id="copper1">
    <!-- <rect width="55" x="10" y="15.5" fill="none" height="55" stroke="rgb(255, 191, 0)" stroke-width="20" />  -->
    <circle stroke-width="2.16" fill="white" stroke="white" id="connector0pin" cx="2.7" cy="3.096" r="1.98"/>
    <circle stroke-width="2.16" fill="white" stroke="white" id="connector1pin" cx="31.5" cy="3.096" r="1.98"/>
   </g>
  </g>
 </g>
 <g partID="854144832">
  <g transform="translate(3.29853,129.331)">
   <g id="copper1">
    <circle stroke-width="1.85384" fill="white" stroke="white" id="connector1pad" cx="8.7876" cy="10.6336" r="1.7008"/>
    <rect stroke-width="1.85384" x="7.0868" fill="white" y="8.9328" stroke="white" width="3.4016" height="3.4016"/>
    <circle stroke-width="1.85384" fill="white" stroke="white" id="connector0pad" cx="8.7876" cy="3.5464" r="1.7008"/>
   </g>
  </g>
 </g>
 <g partID="854145572">
  <g transform="translate(9.38613,149.624)">
   <g id="copper1">
    <!-- <rect width="55" x="10" y="15.5" fill="none" height="55" stroke="rgb(255, 191, 0)" stroke-width="20" />  -->
    <circle stroke-width="2.16" fill="white" stroke="white" id="connector0pin" cx="2.7" cy="3.096" r="1.98"/>
    <circle stroke-width="2.16" fill="white" stroke="white" id="connector1pin" cx="31.5" cy="3.096" r="1.98"/>
   </g>
  </g>
 </g>
 <g partID="854148622">
  <g transform="translate(106.259,55.4407)">
   <g id="copper1">
    <g id="copper0">
     <rect stroke-width="2.16" x="2.952" fill="white" y="2.952" stroke="white" id="square" height="4.176" width="4.176"/>
     <circle stroke-width="2.16" fill="white" stroke="white" id="connector0pin" cx="5.04" cy="5.04" r="2.088"/>
     <circle stroke-width="2.16" fill="white" stroke="white" id="connector1pin" cx="5.04" cy="12.24" r="2.088"/>
    </g>
   </g>
  </g>
 </g>
 <g partID="854103902">
  <g transform="translate(192.378,67.2073)">
   <g id="copper1">
    <g id="copper0">
     <rect stroke-width="2.16" x="1.98" y="5.58" fill="white" stroke="white" width="3.96" height="3.96" id="rect11"/>
     <circle stroke-width="2.16" fill="white" stroke="white" id="connector0pin" cx="3.96" cy="7.56" r="1.98"/>
     <circle stroke-width="2.16" fill="white" stroke="white" id="connector1pin" cx="11.16" cy="7.56" r="1.98"/>
    </g>
   </g>
  </g>
 </g>
 <g partID="854103932">
  <g transform="translate(3.2633,112.774)">
   <g id="copper1">
    <!-- <rect width="55" x="10" y="15.5" fill="none" height="55" stroke="rgb(255, 191, 0)" stroke-width="20" />  -->
    <circle stroke-width="2.16" fill="white" stroke="white" id="connector0pin" cx="2.7" cy="3.096" r="1.98"/>
    <circle stroke-width="2.16" fill="white" stroke="white" id="connector1pin" cx="31.5" cy="3.096" r="1.98"/>
   </g>
  </g>
 </g>
 <g partID="854345682">
  <g transform="translate(22.0192,66.6774)">
   <g transform="matrix(0,1,-1,0,0,0)">
    <g id="copper1">
     <g id="copper0">
      <circle stroke-width="2.16" fill="white" stroke="white" id="connector0pad" cx="20.8462" cy="15.6024" r="1.98"/>
      <circle stroke-width="2.16" fill="white" stroke="white" id="connector1pad" cx="2.42064" cy="15.6024" r="1.98"/>
      <circle stroke-width="2.16" fill="white" stroke="white" id="connector2pad" cx="20.8462" cy="2.84616" r="1.98"/>
      <circle stroke-width="2.16" fill="white" stroke="white" id="connector3pad" cx="2.42064" cy="2.84616" r="1.98"/>
     </g>
    </g>
   </g>
  </g>
 </g>
 <g partID="854104832">
  <g transform="translate(50.3657,66.6774)">
   <g transform="matrix(0,1,-1,0,0,0)">
    <g id="copper1">
     <g id="copper0">
      <circle stroke-width="2.16" fill="white" stroke="white" id="connector0pad" cx="20.8462" cy="15.6024" r="1.98"/>
      <circle stroke-width="2.16" fill="white" stroke="white" id="connector1pad" cx="2.42064" cy="15.6024" r="1.98"/>
      <circle stroke-width="2.16" fill="white" stroke="white" id="connector2pad" cx="20.8462" cy="2.84616" r="1.98"/>
      <circle stroke-width="2.16" fill="white" stroke="white" id="connector3pad" cx="2.42064" cy="2.84616" r="1.98"/>
     </g>
    </g>
   </g>
  </g>
 </g>
 <g partID="854105382">
  <g transform="translate(25.9405,98.6005)">
   <g id="copper1">
    <!-- <rect width="55" x="10" y="15.5" fill="none" height="55" stroke="rgb(255, 191, 0)" stroke-width="20" />  -->
    <circle stroke-width="2.16" fill="white" stroke="white" id="connector0pin" cx="2.7" cy="3.096" r="1.98"/>
    <circle stroke-width="2.16" fill="white" stroke="white" id="connector1pin" cx="31.5" cy="3.096" r="1.98"/>
   </g>
  </g>
 </g>
 <g partID="854106292">
  <g transform="translate(124.374,123.218)">
   <g transform="matrix(-1,0,0,-1,0,0)">
    <g id="copper1">
     <!-- <rect width="55" x="10" y="15.5" fill="none" height="55" stroke="rgb(255, 191, 0)" stroke-width="20" />  -->
     <circle stroke-width="2.16" fill="white" stroke="white" id="connector0pin" cx="2.7" cy="3.096" r="1.98"/>
     <circle stroke-width="2.16" fill="white" stroke="white" id="connector1pin" cx="31.5" cy="3.096" r="1.98"/>
    </g>
   </g>
  </g>
 </g>
 <g partID="854232762">
  <g transform="translate(133.46,88.1525)">
   <g transform="matrix(0,1,-1,0,0,0)">
    <g id="copper1">
     <g id="copper0">
      <rect stroke-width="2.16" x="2.952" fill="white" y="2.952" stroke="white" id="square" height="4.176" width="4.176"/>
      <circle stroke-width="2.16" fill="white" stroke="white" id="connector0pin" cx="5.04" cy="5.04" r="2.088"/>
      <circle stroke-width="2.16" fill="white" stroke="white" id="connector1pin" cx="5.04" cy="12.24" r="2.088"/>
      <circle stroke-width="2.16" fill="white" stroke="white" id="connector2pin" cx="5.04" cy="19.44" r="2.088"/>
     </g>
    </g>
   </g>
  </g>
 </g>
 <g partID="854232512">
  <g transform="translate(51.2553,38.5462)">
   <g transform="matrix(0,1,-1,0,0,0)">
    <g id="copper1">
     <g id="copper0">
      <rect stroke-width="2.16" x="2.952" fill="white" y="2.952" stroke="white" id="square" height="4.176" width="4.176"/>
      <circle stroke-width="2.16" fill="white" stroke="white" id="connector0pin" cx="5.04" cy="5.04" r="2.088"/>
      <circle stroke-width="2.16" fill="white" stroke="white" id="connector1pin" cx="5.04" cy="12.24" r="2.088"/>
      <circle stroke-width="2.16" fill="white" stroke="white" id="connector2pin" cx="5.04" cy="19.44" r="2.088"/>
     </g>
    </g>
   </g>
  </g>
 </g>
 <g partID="854108022">
  <g transform="translate(58.5389,41.9076)">
   <g id="copper1">
    <!-- <rect width="55" x="10" y="15.5" fill="none" height="55" stroke="rgb(255, 191, 0)" stroke-width="20" />  -->
    <circle stroke-width="2.16" fill="white" stroke="white" id="connector0pin" cx="2.7" cy="3.096" r="1.98"/>
    <circle stroke-width="2.16" fill="white" stroke="white" id="connector1pin" cx="31.5" cy="3.096" r="1.98"/>
   </g>
  </g>
 </g>
 <g partID="854109672">
  <g transform="translate(198.521,20.1437)">
   <g transform="matrix(0,1,-1,0,0,0)">
    <g id="copper1" gorn="0.3">
     <g id="copper0" gorn="0.3.0">
      <rect stroke-width="2.16" x="37.8" y="52.2" fill="white" stroke="white" width="3.6" height="3.6" id="square" gorn="0.3.0.0"/>
      <rect stroke-width="2.16" x="37.8" y="9" fill="white" stroke="white" width="3.6" height="3.6" id="square" gorn="0.3.0.1"/>
      <circle stroke-width="2.16" fill="white" stroke="white" id="connector0pad" cx="3.6" cy="3.6" r="1.8" gorn="0.3.0.2"/>
      <circle stroke-width="2.16" fill="white" stroke="white" id="connector15pad" cx="39.6" cy="3.6" r="1.8" gorn="0.3.0.3"/>
      <circle stroke-width="2.16" fill="white" stroke="white" id="connector1pad" cx="3.6" cy="10.8" r="1.8" gorn="0.3.0.4"/>
      <circle stroke-width="2.16" fill="white" stroke="white" id="connector14pad" cx="39.6" cy="10.8" r="1.8" gorn="0.3.0.5"/>
      <circle stroke-width="2.16" fill="white" stroke="white" id="connector2pad" cx="3.6" cy="18" r="1.8" gorn="0.3.0.6"/>
      <circle stroke-width="2.16" fill="white" stroke="white" id="connector13pad" cx="39.6" cy="18" r="1.8" gorn="0.3.0.7"/>
      <circle stroke-width="2.16" fill="white" stroke="white" id="connector3pad" cx="3.6" cy="25.2" r="1.8" gorn="0.3.0.8"/>
      <circle stroke-width="2.16" fill="white" stroke="white" id="connector12pad" cx="39.6" cy="25.2" r="1.8" gorn="0.3.0.9"/>
      <circle stroke-width="2.16" fill="white" stroke="white" id="connector4pad" cx="3.6" cy="32.4" r="1.8" gorn="0.3.0.10"/>
      <circle stroke-width="2.16" fill="white" stroke="white" id="connector11pad" cx="39.6" cy="32.4" r="1.8" gorn="0.3.0.11"/>
      <circle stroke-width="2.16" fill="white" stroke="white" id="connector5pad" cx="3.6" cy="39.6" r="1.8" gorn="0.3.0.12"/>
      <circle stroke-width="2.16" fill="white" stroke="white" id="connector10pad" cx="39.6" cy="39.6" r="1.8" gorn="0.3.0.13"/>
      <circle stroke-width="2.16" fill="white" stroke="white" id="connector6pad" cx="3.6" cy="46.8" r="1.8" gorn="0.3.0.14"/>
      <circle stroke-width="2.16" fill="white" stroke="white" id="connector9pad" cx="39.6" cy="46.8" r="1.8" gorn="0.3.0.15"/>
      <circle stroke-width="2.16" fill="white" stroke="white" id="connector7pad" cx="3.6" cy="54" r="1.8" gorn="0.3.0.16"/>
      <circle stroke-width="2.16" fill="white" stroke="white" id="connector8pad" cx="39.6" cy="54" r="1.8" gorn="0.3.0.17"/>
     </g>
    </g>
   </g>
  </g>
 </g>
 <g partID="854114622">
  <g transform="translate(178.814,81.0659)">
   <g transform="matrix(0,1,-1,0,0,0)">
    <g id="copper1">
     <g id="copper0">
      <rect stroke-width="2.16" x="2.952" fill="white" y="2.952" stroke="white" id="square" height="4.176" width="4.176"/>
      <circle stroke-width="2.16" fill="white" stroke="white" id="connector0pin" cx="5.04" cy="5.04" r="2.088"/>
      <circle stroke-width="2.16" fill="white" stroke="white" id="connector1pin" cx="5.04" cy="12.24" r="2.088"/>
      <circle stroke-width="2.16" fill="white" stroke="white" id="connector2pin" cx="5.04" cy="19.44" r="2.088"/>
      <circle stroke-width="2.16" fill="white" stroke="white" id="connector3pin" cx="5.04" cy="26.64" r="2.088"/>
     </g>
    </g>
   </g>
  </g>
 </g>
 <g partID="854143532">
  <g transform="translate(23.1415,129.331)">
   <g id="copper1">
    <circle stroke-width="1.85384" fill="white" stroke="white" id="connector1pad" cx="8.7872" cy="10.6336" r="1.7008"/>
    <rect stroke-width="1.85384" x="7.0864" y="8.9328" fill="white" stroke="white" width="3.4016" height="3.4016"/>
    <circle stroke-width="1.85384" fill="white" stroke="white" id="connector0pad" cx="8.7872" cy="3.5464" r="1.7008"/>
   </g>
  </g>
 </g>
</svg>
